M48
;DRILL file {KiCad 4.0.6} date 2017 October 20, Friday 03:08:27
;FORMAT={-:-/ absolute / metric / decimal}
FMAT,2
METRIC,TZ
T1C0.300
T2C0.400
T3C0.998
T4C1.000
T5C1.500
T6C1.700
T7C2.700
T8C2.748
%
G90
G05
M71
T1
X164.509Y-122.67
X165.024Y-120.612
X165.443Y-123.85
X165.5Y-123.
X165.519Y-124.866
X165.786Y-125.844
X166.052Y-120.599
X166.802Y-125.857
X167.069Y-120.587
X167.818Y-125.857
X168.084Y-120.561
X168.846Y-125.882
X169.1Y-120.574
X169.875Y-125.882
X170.129Y-120.574
X170.879Y-127.965
X170.879Y-128.981
X170.879Y-130.01
X170.891Y-126.949
X170.917Y-125.933
X173.863Y-116.307
X174.25Y-122.5
X175.8Y-127.8
X176.6Y-116.7
X177.75Y-115.25
X179.1Y-126.2
X179.15Y-123.45
X179.15Y-124.85
X180.7Y-129.8
X180.85Y-123.45
X180.9Y-124.85
X180.9Y-126.2
X181.5Y-115.25
X182.45Y-123.45
X182.55Y-124.85
X182.6Y-126.25
X184.5Y-129.25
X184.75Y-120.15
X185.Y-118.25
X185.5Y-113.75
X190.6Y-127.75
X191.15Y-118.8
X191.75Y-129.
X192.5Y-121.
X194.Y-132.6
X194.Y-135.
X196.25Y-116.5
X196.3Y-112.8
X197.6Y-127.45
X197.65Y-123.1
X198.Y-117.75
X199.95Y-125.25
X201.25Y-118.
X202.4Y-123.
X202.45Y-127.2
X202.6Y-112.95
X203.25Y-135.
X204.Y-130.
X204.25Y-120.
X207.05Y-127.55
X207.5Y-115.
X207.55Y-124.9
X208.85Y-119.65
X212.55Y-129.35
X218.Y-117.25
T2
X170.739Y-114.922
X174.257Y-128.6
X175.7Y-122.65
X177.241Y-118.923
X177.241Y-120.396
X180.797Y-119.71
X183.85Y-118.25
X187.452Y-127.762
X188.087Y-125.476
X188.5Y-123.75
X189.103Y-126.238
X189.75Y-116.35
X191.35Y-125.95
X194.056Y-129.54
X194.15Y-121.95
X197.7Y-126.2
X198.5Y-119.
X206.1Y-123.
X207.19Y-128.61
X207.19Y-130.8
X207.2Y-120.15
X212.Y-113.8
X213.3Y-113.8
X213.8Y-111.
X217.043Y-121.92
X217.7Y-114.8
T3
X163.83Y-107.98
X163.83Y-110.52
X166.37Y-107.98
X166.37Y-110.52
X168.91Y-107.98
X168.91Y-110.52
X171.45Y-107.98
X171.45Y-110.52
X173.99Y-107.98
X173.99Y-110.52
X176.53Y-107.98
X176.53Y-110.52
X179.07Y-107.98
X179.07Y-110.52
X181.61Y-107.98
X181.61Y-110.52
X184.15Y-107.98
X184.15Y-110.52
X186.69Y-107.98
X186.69Y-110.52
X189.23Y-107.98
X189.23Y-110.52
X191.77Y-107.98
X191.77Y-110.52
X194.31Y-107.98
X194.31Y-110.52
X196.85Y-107.98
X196.85Y-110.52
X199.39Y-107.98
X199.39Y-110.52
X201.93Y-107.98
X201.93Y-110.52
X204.47Y-107.98
X204.47Y-110.52
X207.01Y-107.98
X207.01Y-110.52
X209.55Y-107.98
X209.55Y-110.52
X212.09Y-107.98
X212.09Y-110.52
T4
X199.136Y-114.808
X201.676Y-114.808
X204.216Y-114.808
X210.42Y-127.
X210.5Y-123.5
X212.96Y-127.
X213.04Y-123.5
X215.5Y-127.
X215.58Y-123.5
X218.04Y-127.
X218.12Y-123.5
T5
X160.6Y-121.65
T6
X158.06Y-119.11
X158.06Y-124.19
X163.14Y-119.11
X163.14Y-124.19
T7
X158.95Y-109.25
X158.95Y-132.25
X216.959Y-109.237
X216.959Y-132.239
T8
X158.958Y-109.25
X158.958Y-132.253
X216.959Y-109.25
X216.959Y-132.253
T0
M30
