G04 #@! TF.FileFunction,Legend,Top*
%FSLAX46Y46*%
G04 Gerber Fmt 4.6, Leading zero omitted, Abs format (unit mm)*
G04 Created by KiCad (PCBNEW 4.0.6) date 2017 October 20, Friday 03:08:25*
%MOMM*%
%LPD*%
G01*
G04 APERTURE LIST*
%ADD10C,0.100000*%
%ADD11C,0.125000*%
%ADD12C,0.250000*%
%ADD13C,0.120000*%
%ADD14C,0.150000*%
%ADD15C,0.127000*%
%ADD16C,0.010000*%
%ADD17C,0.101600*%
G04 APERTURE END LIST*
D10*
D11*
X188161849Y-134046090D02*
X188161849Y-133546090D01*
X188161849Y-133736567D02*
X188209468Y-133712757D01*
X188304706Y-133712757D01*
X188352325Y-133736567D01*
X188376134Y-133760376D01*
X188399944Y-133807995D01*
X188399944Y-133950852D01*
X188376134Y-133998471D01*
X188352325Y-134022281D01*
X188304706Y-134046090D01*
X188209468Y-134046090D01*
X188161849Y-134022281D01*
X188566611Y-133712757D02*
X188685658Y-134046090D01*
X188804706Y-133712757D02*
X188685658Y-134046090D01*
X188638039Y-134165138D01*
X188614230Y-134188948D01*
X188566611Y-134212757D01*
X189376134Y-134046090D02*
X189376134Y-133546090D01*
X189376134Y-133784186D02*
X189661848Y-133784186D01*
X189661848Y-134046090D02*
X189661848Y-133546090D01*
X189876134Y-134022281D02*
X189947563Y-134046090D01*
X190066610Y-134046090D01*
X190114229Y-134022281D01*
X190138039Y-133998471D01*
X190161848Y-133950852D01*
X190161848Y-133903233D01*
X190138039Y-133855614D01*
X190114229Y-133831805D01*
X190066610Y-133807995D01*
X189971372Y-133784186D01*
X189923753Y-133760376D01*
X189899944Y-133736567D01*
X189876134Y-133688948D01*
X189876134Y-133641329D01*
X189899944Y-133593710D01*
X189923753Y-133569900D01*
X189971372Y-133546090D01*
X190090420Y-133546090D01*
X190161848Y-133569900D01*
X190447562Y-133760376D02*
X190399943Y-133736567D01*
X190376134Y-133712757D01*
X190352324Y-133665138D01*
X190352324Y-133641329D01*
X190376134Y-133593710D01*
X190399943Y-133569900D01*
X190447562Y-133546090D01*
X190542800Y-133546090D01*
X190590419Y-133569900D01*
X190614229Y-133593710D01*
X190638038Y-133641329D01*
X190638038Y-133665138D01*
X190614229Y-133712757D01*
X190590419Y-133736567D01*
X190542800Y-133760376D01*
X190447562Y-133760376D01*
X190399943Y-133784186D01*
X190376134Y-133807995D01*
X190352324Y-133855614D01*
X190352324Y-133950852D01*
X190376134Y-133998471D01*
X190399943Y-134022281D01*
X190447562Y-134046090D01*
X190542800Y-134046090D01*
X190590419Y-134022281D01*
X190614229Y-133998471D01*
X190638038Y-133950852D01*
X190638038Y-133855614D01*
X190614229Y-133807995D01*
X190590419Y-133784186D01*
X190542800Y-133760376D01*
X190995181Y-133546090D02*
X190995181Y-133903233D01*
X190971371Y-133974662D01*
X190923752Y-134022281D01*
X190852324Y-134046090D01*
X190804705Y-134046090D01*
X191518990Y-133998471D02*
X191495180Y-134022281D01*
X191423752Y-134046090D01*
X191376133Y-134046090D01*
X191304704Y-134022281D01*
X191257085Y-133974662D01*
X191233276Y-133927043D01*
X191209466Y-133831805D01*
X191209466Y-133760376D01*
X191233276Y-133665138D01*
X191257085Y-133617519D01*
X191304704Y-133569900D01*
X191376133Y-133546090D01*
X191423752Y-133546090D01*
X191495180Y-133569900D01*
X191518990Y-133593710D01*
X191661847Y-133546090D02*
X191828514Y-134046090D01*
X191995180Y-133546090D01*
D12*
X184959786Y-132942081D02*
X185293119Y-133942081D01*
X185626453Y-132942081D01*
X185959786Y-133942081D02*
X185959786Y-132942081D01*
X185959786Y-133418271D02*
X186531215Y-133418271D01*
X186531215Y-133942081D02*
X186531215Y-132942081D01*
X187340739Y-133418271D02*
X187007405Y-133418271D01*
X187007405Y-133942081D02*
X187007405Y-132942081D01*
X187483596Y-132942081D01*
D11*
X217619047Y-125000000D02*
X217571428Y-124976190D01*
X217500000Y-124976190D01*
X217428571Y-125000000D01*
X217380952Y-125047619D01*
X217357143Y-125095238D01*
X217333333Y-125190476D01*
X217333333Y-125261905D01*
X217357143Y-125357143D01*
X217380952Y-125404762D01*
X217428571Y-125452381D01*
X217500000Y-125476190D01*
X217547619Y-125476190D01*
X217619047Y-125452381D01*
X217642857Y-125428571D01*
X217642857Y-125261905D01*
X217547619Y-125261905D01*
X217857143Y-125476190D02*
X217857143Y-124976190D01*
X218142857Y-125476190D01*
X218142857Y-124976190D01*
X218380953Y-125476190D02*
X218380953Y-124976190D01*
X218500000Y-124976190D01*
X218571429Y-125000000D01*
X218619048Y-125047619D01*
X218642857Y-125095238D01*
X218666667Y-125190476D01*
X218666667Y-125261905D01*
X218642857Y-125357143D01*
X218619048Y-125404762D01*
X218571429Y-125452381D01*
X218500000Y-125476190D01*
X218380953Y-125476190D01*
X215202381Y-125428571D02*
X215178571Y-125452381D01*
X215107143Y-125476190D01*
X215059524Y-125476190D01*
X214988095Y-125452381D01*
X214940476Y-125404762D01*
X214916667Y-125357143D01*
X214892857Y-125261905D01*
X214892857Y-125190476D01*
X214916667Y-125095238D01*
X214940476Y-125047619D01*
X214988095Y-125000000D01*
X215059524Y-124976190D01*
X215107143Y-124976190D01*
X215178571Y-125000000D01*
X215202381Y-125023810D01*
X215654762Y-125476190D02*
X215416667Y-125476190D01*
X215416667Y-124976190D01*
X215821429Y-125476190D02*
X215821429Y-124976190D01*
X216107143Y-125476190D02*
X215892857Y-125190476D01*
X216107143Y-124976190D02*
X215821429Y-125261905D01*
X212488096Y-125476190D02*
X212488096Y-124976190D01*
X212607143Y-124976190D01*
X212678572Y-125000000D01*
X212726191Y-125047619D01*
X212750000Y-125095238D01*
X212773810Y-125190476D01*
X212773810Y-125261905D01*
X212750000Y-125357143D01*
X212726191Y-125404762D01*
X212678572Y-125452381D01*
X212607143Y-125476190D01*
X212488096Y-125476190D01*
X212988096Y-125476190D02*
X212988096Y-124976190D01*
X213321429Y-124976190D02*
X213416667Y-124976190D01*
X213464286Y-125000000D01*
X213511905Y-125047619D01*
X213535714Y-125142857D01*
X213535714Y-125309524D01*
X213511905Y-125404762D01*
X213464286Y-125452381D01*
X213416667Y-125476190D01*
X213321429Y-125476190D01*
X213273810Y-125452381D01*
X213226191Y-125404762D01*
X213202381Y-125309524D01*
X213202381Y-125142857D01*
X213226191Y-125047619D01*
X213273810Y-125000000D01*
X213321429Y-124976190D01*
X209904763Y-124976190D02*
X210214286Y-124976190D01*
X210047620Y-125166667D01*
X210119048Y-125166667D01*
X210166667Y-125190476D01*
X210190477Y-125214286D01*
X210214286Y-125261905D01*
X210214286Y-125380952D01*
X210190477Y-125428571D01*
X210166667Y-125452381D01*
X210119048Y-125476190D01*
X209976191Y-125476190D01*
X209928572Y-125452381D01*
X209904763Y-125428571D01*
X210380953Y-125142857D02*
X210500000Y-125476190D01*
X210619048Y-125142857D01*
X210761905Y-124976190D02*
X211071428Y-124976190D01*
X210904762Y-125166667D01*
X210976190Y-125166667D01*
X211023809Y-125190476D01*
X211047619Y-125214286D01*
X211071428Y-125261905D01*
X211071428Y-125380952D01*
X211047619Y-125428571D01*
X211023809Y-125452381D01*
X210976190Y-125476190D01*
X210833333Y-125476190D01*
X210785714Y-125452381D01*
X210761905Y-125428571D01*
X217694047Y-128500000D02*
X217646428Y-128476190D01*
X217575000Y-128476190D01*
X217503571Y-128500000D01*
X217455952Y-128547619D01*
X217432143Y-128595238D01*
X217408333Y-128690476D01*
X217408333Y-128761905D01*
X217432143Y-128857143D01*
X217455952Y-128904762D01*
X217503571Y-128952381D01*
X217575000Y-128976190D01*
X217622619Y-128976190D01*
X217694047Y-128952381D01*
X217717857Y-128928571D01*
X217717857Y-128761905D01*
X217622619Y-128761905D01*
X217932143Y-128976190D02*
X217932143Y-128476190D01*
X218217857Y-128976190D01*
X218217857Y-128476190D01*
X218455953Y-128976190D02*
X218455953Y-128476190D01*
X218575000Y-128476190D01*
X218646429Y-128500000D01*
X218694048Y-128547619D01*
X218717857Y-128595238D01*
X218741667Y-128690476D01*
X218741667Y-128761905D01*
X218717857Y-128857143D01*
X218694048Y-128904762D01*
X218646429Y-128952381D01*
X218575000Y-128976190D01*
X218455953Y-128976190D01*
X215166667Y-128976190D02*
X215000000Y-128738095D01*
X214880953Y-128976190D02*
X214880953Y-128476190D01*
X215071429Y-128476190D01*
X215119048Y-128500000D01*
X215142857Y-128523810D01*
X215166667Y-128571429D01*
X215166667Y-128642857D01*
X215142857Y-128690476D01*
X215119048Y-128714286D01*
X215071429Y-128738095D01*
X214880953Y-128738095D01*
X215333334Y-128476190D02*
X215666667Y-128976190D01*
X215666667Y-128476190D02*
X215333334Y-128976190D01*
X215857143Y-128976190D02*
X215857143Y-128476190D01*
X215976190Y-128476190D01*
X216047619Y-128500000D01*
X216095238Y-128547619D01*
X216119047Y-128595238D01*
X216142857Y-128690476D01*
X216142857Y-128761905D01*
X216119047Y-128857143D01*
X216095238Y-128904762D01*
X216047619Y-128952381D01*
X215976190Y-128976190D01*
X215857143Y-128976190D01*
X212344048Y-128476190D02*
X212629762Y-128476190D01*
X212486905Y-128976190D02*
X212486905Y-128476190D01*
X212748810Y-128476190D02*
X213082143Y-128976190D01*
X213082143Y-128476190D02*
X212748810Y-128976190D01*
X213272619Y-128976190D02*
X213272619Y-128476190D01*
X213391666Y-128476190D01*
X213463095Y-128500000D01*
X213510714Y-128547619D01*
X213534523Y-128595238D01*
X213558333Y-128690476D01*
X213558333Y-128761905D01*
X213534523Y-128857143D01*
X213510714Y-128904762D01*
X213463095Y-128952381D01*
X213391666Y-128976190D01*
X213272619Y-128976190D01*
X210115477Y-128476190D02*
X209877382Y-128476190D01*
X209853572Y-128714286D01*
X209877382Y-128690476D01*
X209925001Y-128666667D01*
X210044048Y-128666667D01*
X210091667Y-128690476D01*
X210115477Y-128714286D01*
X210139286Y-128761905D01*
X210139286Y-128880952D01*
X210115477Y-128928571D01*
X210091667Y-128952381D01*
X210044048Y-128976190D01*
X209925001Y-128976190D01*
X209877382Y-128952381D01*
X209853572Y-128928571D01*
X210305953Y-128642857D02*
X210425000Y-128976190D01*
X210544048Y-128642857D01*
X210829762Y-128476190D02*
X210877381Y-128476190D01*
X210925000Y-128500000D01*
X210948809Y-128523810D01*
X210972619Y-128571429D01*
X210996428Y-128666667D01*
X210996428Y-128785714D01*
X210972619Y-128880952D01*
X210948809Y-128928571D01*
X210925000Y-128952381D01*
X210877381Y-128976190D01*
X210829762Y-128976190D01*
X210782143Y-128952381D01*
X210758333Y-128928571D01*
X210734524Y-128880952D01*
X210710714Y-128785714D01*
X210710714Y-128666667D01*
X210734524Y-128571429D01*
X210758333Y-128523810D01*
X210782143Y-128500000D01*
X210829762Y-128476190D01*
D12*
X217285714Y-114204762D02*
X217428571Y-114252381D01*
X217666667Y-114252381D01*
X217761905Y-114204762D01*
X217809524Y-114157143D01*
X217857143Y-114061905D01*
X217857143Y-113966667D01*
X217809524Y-113871429D01*
X217761905Y-113823810D01*
X217666667Y-113776190D01*
X217476190Y-113728571D01*
X217380952Y-113680952D01*
X217333333Y-113633333D01*
X217285714Y-113538095D01*
X217285714Y-113442857D01*
X217333333Y-113347619D01*
X217380952Y-113300000D01*
X217476190Y-113252381D01*
X217714286Y-113252381D01*
X217857143Y-113300000D01*
X218142857Y-113252381D02*
X218476190Y-114252381D01*
X218809524Y-113252381D01*
X219714286Y-114157143D02*
X219666667Y-114204762D01*
X219523810Y-114252381D01*
X219428572Y-114252381D01*
X219285714Y-114204762D01*
X219190476Y-114109524D01*
X219142857Y-114014286D01*
X219095238Y-113823810D01*
X219095238Y-113680952D01*
X219142857Y-113490476D01*
X219190476Y-113395238D01*
X219285714Y-113300000D01*
X219428572Y-113252381D01*
X219523810Y-113252381D01*
X219666667Y-113300000D01*
X219714286Y-113347619D01*
D11*
X162736905Y-114791667D02*
X162713095Y-114767857D01*
X162665476Y-114696429D01*
X162641667Y-114648810D01*
X162617857Y-114577381D01*
X162594048Y-114458333D01*
X162594048Y-114363095D01*
X162617857Y-114244048D01*
X162641667Y-114172619D01*
X162665476Y-114125000D01*
X162713095Y-114053571D01*
X162736905Y-114029762D01*
X163141666Y-114577381D02*
X163094047Y-114601190D01*
X162998809Y-114601190D01*
X162951190Y-114577381D01*
X162927381Y-114553571D01*
X162903571Y-114505952D01*
X162903571Y-114363095D01*
X162927381Y-114315476D01*
X162951190Y-114291667D01*
X162998809Y-114267857D01*
X163094047Y-114267857D01*
X163141666Y-114291667D01*
X163308333Y-114791667D02*
X163332142Y-114767857D01*
X163379761Y-114696429D01*
X163403571Y-114648810D01*
X163427380Y-114577381D01*
X163451190Y-114458333D01*
X163451190Y-114363095D01*
X163427380Y-114244048D01*
X163403571Y-114172619D01*
X163379761Y-114125000D01*
X163332142Y-114053571D01*
X163308333Y-114029762D01*
X164046427Y-114148810D02*
X164070237Y-114125000D01*
X164117856Y-114101190D01*
X164236903Y-114101190D01*
X164284522Y-114125000D01*
X164308332Y-114148810D01*
X164332141Y-114196429D01*
X164332141Y-114244048D01*
X164308332Y-114315476D01*
X164022618Y-114601190D01*
X164332141Y-114601190D01*
X164641665Y-114101190D02*
X164689284Y-114101190D01*
X164736903Y-114125000D01*
X164760712Y-114148810D01*
X164784522Y-114196429D01*
X164808331Y-114291667D01*
X164808331Y-114410714D01*
X164784522Y-114505952D01*
X164760712Y-114553571D01*
X164736903Y-114577381D01*
X164689284Y-114601190D01*
X164641665Y-114601190D01*
X164594046Y-114577381D01*
X164570236Y-114553571D01*
X164546427Y-114505952D01*
X164522617Y-114410714D01*
X164522617Y-114291667D01*
X164546427Y-114196429D01*
X164570236Y-114148810D01*
X164594046Y-114125000D01*
X164641665Y-114101190D01*
X165284521Y-114601190D02*
X164998807Y-114601190D01*
X165141664Y-114601190D02*
X165141664Y-114101190D01*
X165094045Y-114172619D01*
X165046426Y-114220238D01*
X164998807Y-114244048D01*
X165451188Y-114101190D02*
X165784521Y-114101190D01*
X165570235Y-114601190D01*
X166355949Y-114601190D02*
X166355949Y-114101190D01*
X166474996Y-114101190D01*
X166546425Y-114125000D01*
X166594044Y-114172619D01*
X166617853Y-114220238D01*
X166641663Y-114315476D01*
X166641663Y-114386905D01*
X166617853Y-114482143D01*
X166594044Y-114529762D01*
X166546425Y-114577381D01*
X166474996Y-114601190D01*
X166355949Y-114601190D01*
X167022615Y-114339286D02*
X167094044Y-114363095D01*
X167117853Y-114386905D01*
X167141663Y-114434524D01*
X167141663Y-114505952D01*
X167117853Y-114553571D01*
X167094044Y-114577381D01*
X167046425Y-114601190D01*
X166855949Y-114601190D01*
X166855949Y-114101190D01*
X167022615Y-114101190D01*
X167070234Y-114125000D01*
X167094044Y-114148810D01*
X167117853Y-114196429D01*
X167117853Y-114244048D01*
X167094044Y-114291667D01*
X167070234Y-114315476D01*
X167022615Y-114339286D01*
X166855949Y-114339286D01*
X167379758Y-114601190D02*
X167474996Y-114601190D01*
X167522615Y-114577381D01*
X167546425Y-114553571D01*
X167594044Y-114482143D01*
X167617853Y-114386905D01*
X167617853Y-114196429D01*
X167594044Y-114148810D01*
X167570234Y-114125000D01*
X167522615Y-114101190D01*
X167427377Y-114101190D01*
X167379758Y-114125000D01*
X167355949Y-114148810D01*
X167332139Y-114196429D01*
X167332139Y-114315476D01*
X167355949Y-114363095D01*
X167379758Y-114386905D01*
X167427377Y-114410714D01*
X167522615Y-114410714D01*
X167570234Y-114386905D01*
X167594044Y-114363095D01*
X167617853Y-114315476D01*
X167832139Y-114601190D02*
X167832139Y-114101190D01*
X167998805Y-114458333D01*
X168165472Y-114101190D01*
X168165472Y-114601190D01*
X168379758Y-114458333D02*
X168617853Y-114458333D01*
X168332139Y-114601190D02*
X168498806Y-114101190D01*
X168665472Y-114601190D01*
X168760710Y-114101190D02*
X169046424Y-114101190D01*
X168903567Y-114601190D02*
X168903567Y-114101190D01*
X169594043Y-114601190D02*
X169594043Y-114101190D01*
X169713090Y-114101190D01*
X169784519Y-114125000D01*
X169832138Y-114172619D01*
X169855947Y-114220238D01*
X169879757Y-114315476D01*
X169879757Y-114386905D01*
X169855947Y-114482143D01*
X169832138Y-114529762D01*
X169784519Y-114577381D01*
X169713090Y-114601190D01*
X169594043Y-114601190D01*
X170260709Y-114339286D02*
X170094043Y-114339286D01*
X170094043Y-114601190D02*
X170094043Y-114101190D01*
X170332138Y-114101190D01*
X170498804Y-114148810D02*
X170522614Y-114125000D01*
X170570233Y-114101190D01*
X170689280Y-114101190D01*
X170736899Y-114125000D01*
X170760709Y-114148810D01*
X170784518Y-114196429D01*
X170784518Y-114244048D01*
X170760709Y-114315476D01*
X170474995Y-114601190D01*
X170784518Y-114601190D01*
X170998804Y-114339286D02*
X171165470Y-114339286D01*
X171236899Y-114601190D02*
X170998804Y-114601190D01*
X170998804Y-114101190D01*
X171236899Y-114101190D01*
X171379756Y-114101190D02*
X171665470Y-114101190D01*
X171522613Y-114601190D02*
X171522613Y-114101190D01*
X162879762Y-115428571D02*
X162855952Y-115452381D01*
X162784524Y-115476190D01*
X162736905Y-115476190D01*
X162665476Y-115452381D01*
X162617857Y-115404762D01*
X162594048Y-115357143D01*
X162570238Y-115261905D01*
X162570238Y-115190476D01*
X162594048Y-115095238D01*
X162617857Y-115047619D01*
X162665476Y-115000000D01*
X162736905Y-114976190D01*
X162784524Y-114976190D01*
X162855952Y-115000000D01*
X162879762Y-115023810D01*
X163379762Y-115428571D02*
X163355952Y-115452381D01*
X163284524Y-115476190D01*
X163236905Y-115476190D01*
X163165476Y-115452381D01*
X163117857Y-115404762D01*
X163094048Y-115357143D01*
X163070238Y-115261905D01*
X163070238Y-115190476D01*
X163094048Y-115095238D01*
X163117857Y-115047619D01*
X163165476Y-115000000D01*
X163236905Y-114976190D01*
X163284524Y-114976190D01*
X163355952Y-115000000D01*
X163379762Y-115023810D01*
X163594048Y-115285714D02*
X163975000Y-115285714D01*
X164379762Y-115214286D02*
X164451191Y-115238095D01*
X164475000Y-115261905D01*
X164498810Y-115309524D01*
X164498810Y-115380952D01*
X164475000Y-115428571D01*
X164451191Y-115452381D01*
X164403572Y-115476190D01*
X164213096Y-115476190D01*
X164213096Y-114976190D01*
X164379762Y-114976190D01*
X164427381Y-115000000D01*
X164451191Y-115023810D01*
X164475000Y-115071429D01*
X164475000Y-115119048D01*
X164451191Y-115166667D01*
X164427381Y-115190476D01*
X164379762Y-115214286D01*
X164213096Y-115214286D01*
X164808334Y-115238095D02*
X164808334Y-115476190D01*
X164641667Y-114976190D02*
X164808334Y-115238095D01*
X164975000Y-114976190D01*
X165141667Y-115285714D02*
X165522619Y-115285714D01*
X165760715Y-115476190D02*
X165760715Y-114976190D01*
X166046429Y-115476190D01*
X166046429Y-114976190D01*
X166570239Y-115428571D02*
X166546429Y-115452381D01*
X166475001Y-115476190D01*
X166427382Y-115476190D01*
X166355953Y-115452381D01*
X166308334Y-115404762D01*
X166284525Y-115357143D01*
X166260715Y-115261905D01*
X166260715Y-115190476D01*
X166284525Y-115095238D01*
X166308334Y-115047619D01*
X166355953Y-115000000D01*
X166427382Y-114976190D01*
X166475001Y-114976190D01*
X166546429Y-115000000D01*
X166570239Y-115023810D01*
X166784525Y-115285714D02*
X167165477Y-115285714D01*
X167379763Y-115452381D02*
X167451192Y-115476190D01*
X167570239Y-115476190D01*
X167617858Y-115452381D01*
X167641668Y-115428571D01*
X167665477Y-115380952D01*
X167665477Y-115333333D01*
X167641668Y-115285714D01*
X167617858Y-115261905D01*
X167570239Y-115238095D01*
X167475001Y-115214286D01*
X167427382Y-115190476D01*
X167403573Y-115166667D01*
X167379763Y-115119048D01*
X167379763Y-115071429D01*
X167403573Y-115023810D01*
X167427382Y-115000000D01*
X167475001Y-114976190D01*
X167594049Y-114976190D01*
X167665477Y-115000000D01*
X167855953Y-115333333D02*
X168094048Y-115333333D01*
X167808334Y-115476190D02*
X167975001Y-114976190D01*
X168141667Y-115476190D01*
X162879762Y-116351190D02*
X162713095Y-116113095D01*
X162594048Y-116351190D02*
X162594048Y-115851190D01*
X162784524Y-115851190D01*
X162832143Y-115875000D01*
X162855952Y-115898810D01*
X162879762Y-115946429D01*
X162879762Y-116017857D01*
X162855952Y-116065476D01*
X162832143Y-116089286D01*
X162784524Y-116113095D01*
X162594048Y-116113095D01*
X163284524Y-116327381D02*
X163236905Y-116351190D01*
X163141667Y-116351190D01*
X163094048Y-116327381D01*
X163070238Y-116279762D01*
X163070238Y-116089286D01*
X163094048Y-116041667D01*
X163141667Y-116017857D01*
X163236905Y-116017857D01*
X163284524Y-116041667D01*
X163308333Y-116089286D01*
X163308333Y-116136905D01*
X163070238Y-116184524D01*
X163475000Y-116017857D02*
X163594047Y-116351190D01*
X163713095Y-116017857D01*
X163903571Y-116351190D02*
X163903571Y-116017857D01*
X163903571Y-115851190D02*
X163879761Y-115875000D01*
X163903571Y-115898810D01*
X163927380Y-115875000D01*
X163903571Y-115851190D01*
X163903571Y-115898810D01*
X164117856Y-116327381D02*
X164165475Y-116351190D01*
X164260713Y-116351190D01*
X164308332Y-116327381D01*
X164332142Y-116279762D01*
X164332142Y-116255952D01*
X164308332Y-116208333D01*
X164260713Y-116184524D01*
X164189285Y-116184524D01*
X164141666Y-116160714D01*
X164117856Y-116113095D01*
X164117856Y-116089286D01*
X164141666Y-116041667D01*
X164189285Y-116017857D01*
X164260713Y-116017857D01*
X164308332Y-116041667D01*
X164546428Y-116351190D02*
X164546428Y-116017857D01*
X164546428Y-115851190D02*
X164522618Y-115875000D01*
X164546428Y-115898810D01*
X164570237Y-115875000D01*
X164546428Y-115851190D01*
X164546428Y-115898810D01*
X164855951Y-116351190D02*
X164808332Y-116327381D01*
X164784523Y-116303571D01*
X164760713Y-116255952D01*
X164760713Y-116113095D01*
X164784523Y-116065476D01*
X164808332Y-116041667D01*
X164855951Y-116017857D01*
X164927380Y-116017857D01*
X164974999Y-116041667D01*
X164998808Y-116065476D01*
X165022618Y-116113095D01*
X165022618Y-116255952D01*
X164998808Y-116303571D01*
X164974999Y-116327381D01*
X164927380Y-116351190D01*
X164855951Y-116351190D01*
X165236904Y-116017857D02*
X165236904Y-116351190D01*
X165236904Y-116065476D02*
X165260713Y-116041667D01*
X165308332Y-116017857D01*
X165379761Y-116017857D01*
X165427380Y-116041667D01*
X165451189Y-116089286D01*
X165451189Y-116351190D01*
X166332141Y-116351190D02*
X166046427Y-116351190D01*
X166189284Y-116351190D02*
X166189284Y-115851190D01*
X166141665Y-115922619D01*
X166094046Y-115970238D01*
X166046427Y-115994048D01*
X166546427Y-116303571D02*
X166570236Y-116327381D01*
X166546427Y-116351190D01*
X166522617Y-116327381D01*
X166546427Y-116303571D01*
X166546427Y-116351190D01*
X166760712Y-115898810D02*
X166784522Y-115875000D01*
X166832141Y-115851190D01*
X166951188Y-115851190D01*
X166998807Y-115875000D01*
X167022617Y-115898810D01*
X167046426Y-115946429D01*
X167046426Y-115994048D01*
X167022617Y-116065476D01*
X166736903Y-116351190D01*
X167046426Y-116351190D01*
X167260712Y-116303571D02*
X167284521Y-116327381D01*
X167260712Y-116351190D01*
X167236902Y-116327381D01*
X167260712Y-116303571D01*
X167260712Y-116351190D01*
X167760711Y-116351190D02*
X167474997Y-116351190D01*
X167617854Y-116351190D02*
X167617854Y-115851190D01*
X167570235Y-115922619D01*
X167522616Y-115970238D01*
X167474997Y-115994048D01*
X168117854Y-116541667D02*
X168094044Y-116517857D01*
X168046425Y-116446429D01*
X168022616Y-116398810D01*
X167998806Y-116327381D01*
X167974997Y-116208333D01*
X167974997Y-116113095D01*
X167998806Y-115994048D01*
X168022616Y-115922619D01*
X168046425Y-115875000D01*
X168094044Y-115803571D01*
X168117854Y-115779762D01*
X168236901Y-115851190D02*
X168403568Y-116351190D01*
X168570234Y-115851190D01*
X168736901Y-116351190D02*
X168736901Y-115851190D01*
X168736901Y-116089286D02*
X169022615Y-116089286D01*
X169022615Y-116351190D02*
X169022615Y-115851190D01*
X169427377Y-116089286D02*
X169260711Y-116089286D01*
X169260711Y-116351190D02*
X169260711Y-115851190D01*
X169498806Y-115851190D01*
X169641663Y-116541667D02*
X169665472Y-116517857D01*
X169713091Y-116446429D01*
X169736901Y-116398810D01*
X169760710Y-116327381D01*
X169784520Y-116208333D01*
X169784520Y-116113095D01*
X169760710Y-115994048D01*
X169736901Y-115922619D01*
X169713091Y-115875000D01*
X169665472Y-115803571D01*
X169641663Y-115779762D01*
D12*
X162638095Y-113652381D02*
X162638095Y-112652381D01*
X162971429Y-113366667D01*
X163304762Y-112652381D01*
X163304762Y-113652381D01*
X163780952Y-113652381D02*
X163780952Y-112652381D01*
X164114286Y-113366667D01*
X164447619Y-112652381D01*
X164447619Y-113652381D01*
X164923809Y-113652381D02*
X164923809Y-112652381D01*
X165161904Y-112652381D01*
X165304762Y-112700000D01*
X165400000Y-112795238D01*
X165447619Y-112890476D01*
X165495238Y-113080952D01*
X165495238Y-113223810D01*
X165447619Y-113414286D01*
X165400000Y-113509524D01*
X165304762Y-113604762D01*
X165161904Y-113652381D01*
X164923809Y-113652381D01*
X165780952Y-112652381D02*
X166114285Y-113652381D01*
X166447619Y-112652381D01*
X166780952Y-113652381D02*
X166780952Y-112652381D01*
X167114286Y-113366667D01*
X167447619Y-112652381D01*
X167447619Y-113652381D01*
X167685714Y-113747619D02*
X168447619Y-113747619D01*
X168685714Y-113652381D02*
X168685714Y-112652381D01*
X168685714Y-113128571D02*
X169257143Y-113128571D01*
X169257143Y-113652381D02*
X169257143Y-112652381D01*
X169685714Y-113604762D02*
X169828571Y-113652381D01*
X170066667Y-113652381D01*
X170161905Y-113604762D01*
X170209524Y-113557143D01*
X170257143Y-113461905D01*
X170257143Y-113366667D01*
X170209524Y-113271429D01*
X170161905Y-113223810D01*
X170066667Y-113176190D01*
X169876190Y-113128571D01*
X169780952Y-113080952D01*
X169733333Y-113033333D01*
X169685714Y-112938095D01*
X169685714Y-112842857D01*
X169733333Y-112747619D01*
X169780952Y-112700000D01*
X169876190Y-112652381D01*
X170114286Y-112652381D01*
X170257143Y-112700000D01*
X171447619Y-113652381D02*
X171447619Y-112652381D01*
X171828572Y-112652381D01*
X171923810Y-112700000D01*
X171971429Y-112747619D01*
X172019048Y-112842857D01*
X172019048Y-112985714D01*
X171971429Y-113080952D01*
X171923810Y-113128571D01*
X171828572Y-113176190D01*
X171447619Y-113176190D01*
X172447619Y-113652381D02*
X172447619Y-112985714D01*
X172447619Y-112652381D02*
X172400000Y-112700000D01*
X172447619Y-112747619D01*
X172495238Y-112700000D01*
X172447619Y-112652381D01*
X172447619Y-112747619D01*
X173685714Y-113652381D02*
X173685714Y-112652381D01*
X173685714Y-113128571D02*
X174257143Y-113128571D01*
X174257143Y-113652381D02*
X174257143Y-112652381D01*
X175161905Y-113652381D02*
X175161905Y-113128571D01*
X175114286Y-113033333D01*
X175019048Y-112985714D01*
X174828571Y-112985714D01*
X174733333Y-113033333D01*
X175161905Y-113604762D02*
X175066667Y-113652381D01*
X174828571Y-113652381D01*
X174733333Y-113604762D01*
X174685714Y-113509524D01*
X174685714Y-113414286D01*
X174733333Y-113319048D01*
X174828571Y-113271429D01*
X175066667Y-113271429D01*
X175161905Y-113223810D01*
X175495238Y-112985714D02*
X175876190Y-112985714D01*
X175638095Y-112652381D02*
X175638095Y-113509524D01*
X175685714Y-113604762D01*
X175780952Y-113652381D01*
X175876190Y-113652381D01*
D11*
X196714286Y-115259524D02*
X196738095Y-115188095D01*
X196761905Y-115164286D01*
X196809524Y-115140476D01*
X196880952Y-115140476D01*
X196928571Y-115164286D01*
X196952381Y-115188095D01*
X196976190Y-115235714D01*
X196976190Y-115426190D01*
X196476190Y-115426190D01*
X196476190Y-115259524D01*
X196500000Y-115211905D01*
X196523810Y-115188095D01*
X196571429Y-115164286D01*
X196619048Y-115164286D01*
X196666667Y-115188095D01*
X196690476Y-115211905D01*
X196714286Y-115259524D01*
X196714286Y-115426190D01*
X196976190Y-114854762D02*
X196952381Y-114902381D01*
X196928571Y-114926190D01*
X196880952Y-114950000D01*
X196738095Y-114950000D01*
X196690476Y-114926190D01*
X196666667Y-114902381D01*
X196642857Y-114854762D01*
X196642857Y-114783333D01*
X196666667Y-114735714D01*
X196690476Y-114711905D01*
X196738095Y-114688095D01*
X196880952Y-114688095D01*
X196928571Y-114711905D01*
X196952381Y-114735714D01*
X196976190Y-114783333D01*
X196976190Y-114854762D01*
X196976190Y-114402381D02*
X196952381Y-114450000D01*
X196928571Y-114473809D01*
X196880952Y-114497619D01*
X196738095Y-114497619D01*
X196690476Y-114473809D01*
X196666667Y-114450000D01*
X196642857Y-114402381D01*
X196642857Y-114330952D01*
X196666667Y-114283333D01*
X196690476Y-114259524D01*
X196738095Y-114235714D01*
X196880952Y-114235714D01*
X196928571Y-114259524D01*
X196952381Y-114283333D01*
X196976190Y-114330952D01*
X196976190Y-114402381D01*
X196642857Y-114092857D02*
X196642857Y-113902381D01*
X196476190Y-114021428D02*
X196904762Y-114021428D01*
X196952381Y-113997619D01*
X196976190Y-113950000D01*
X196976190Y-113902381D01*
X203492858Y-112776190D02*
X203492858Y-112276190D01*
X203611905Y-112276190D01*
X203683334Y-112300000D01*
X203730953Y-112347619D01*
X203754762Y-112395238D01*
X203778572Y-112490476D01*
X203778572Y-112561905D01*
X203754762Y-112657143D01*
X203730953Y-112704762D01*
X203683334Y-112752381D01*
X203611905Y-112776190D01*
X203492858Y-112776190D01*
X204159524Y-112514286D02*
X203992858Y-112514286D01*
X203992858Y-112776190D02*
X203992858Y-112276190D01*
X204230953Y-112276190D01*
X204421429Y-112276190D02*
X204421429Y-112680952D01*
X204445238Y-112728571D01*
X204469048Y-112752381D01*
X204516667Y-112776190D01*
X204611905Y-112776190D01*
X204659524Y-112752381D01*
X204683333Y-112728571D01*
X204707143Y-112680952D01*
X204707143Y-112276190D01*
X198685714Y-112776190D02*
X198685714Y-112276190D01*
X198971428Y-112776190D01*
X198971428Y-112276190D01*
X199280952Y-112776190D02*
X199233333Y-112752381D01*
X199209524Y-112728571D01*
X199185714Y-112680952D01*
X199185714Y-112538095D01*
X199209524Y-112490476D01*
X199233333Y-112466667D01*
X199280952Y-112442857D01*
X199352381Y-112442857D01*
X199400000Y-112466667D01*
X199423809Y-112490476D01*
X199447619Y-112538095D01*
X199447619Y-112680952D01*
X199423809Y-112728571D01*
X199400000Y-112752381D01*
X199352381Y-112776190D01*
X199280952Y-112776190D01*
X199661905Y-112776190D02*
X199661905Y-112442857D01*
X199661905Y-112538095D02*
X199685714Y-112490476D01*
X199709524Y-112466667D01*
X199757143Y-112442857D01*
X199804762Y-112442857D01*
X199971429Y-112776190D02*
X199971429Y-112442857D01*
X199971429Y-112490476D02*
X199995238Y-112466667D01*
X200042857Y-112442857D01*
X200114286Y-112442857D01*
X200161905Y-112466667D01*
X200185714Y-112514286D01*
X200185714Y-112776190D01*
X200185714Y-112514286D02*
X200209524Y-112466667D01*
X200257143Y-112442857D01*
X200328571Y-112442857D01*
X200376191Y-112466667D01*
X200400000Y-112514286D01*
X200400000Y-112776190D01*
X200852381Y-112776190D02*
X200852381Y-112514286D01*
X200828572Y-112466667D01*
X200780953Y-112442857D01*
X200685715Y-112442857D01*
X200638096Y-112466667D01*
X200852381Y-112752381D02*
X200804762Y-112776190D01*
X200685715Y-112776190D01*
X200638096Y-112752381D01*
X200614286Y-112704762D01*
X200614286Y-112657143D01*
X200638096Y-112609524D01*
X200685715Y-112585714D01*
X200804762Y-112585714D01*
X200852381Y-112561905D01*
X201161905Y-112776190D02*
X201114286Y-112752381D01*
X201090477Y-112704762D01*
X201090477Y-112276190D01*
X208502381Y-124833333D02*
X208526190Y-124761904D01*
X208526190Y-124642857D01*
X208502381Y-124595238D01*
X208478571Y-124571428D01*
X208430952Y-124547619D01*
X208383333Y-124547619D01*
X208335714Y-124571428D01*
X208311905Y-124595238D01*
X208288095Y-124642857D01*
X208264286Y-124738095D01*
X208240476Y-124785714D01*
X208216667Y-124809523D01*
X208169048Y-124833333D01*
X208121429Y-124833333D01*
X208073810Y-124809523D01*
X208050000Y-124785714D01*
X208026190Y-124738095D01*
X208026190Y-124619047D01*
X208050000Y-124547619D01*
X208026190Y-124404762D02*
X208026190Y-124119048D01*
X208526190Y-124261905D02*
X208026190Y-124261905D01*
X208526190Y-123714286D02*
X208526190Y-123952381D01*
X208026190Y-123952381D01*
X208526190Y-123547619D02*
X208192857Y-123547619D01*
X208026190Y-123547619D02*
X208050000Y-123571429D01*
X208073810Y-123547619D01*
X208050000Y-123523810D01*
X208026190Y-123547619D01*
X208073810Y-123547619D01*
X208192857Y-123309524D02*
X208526190Y-123309524D01*
X208240476Y-123309524D02*
X208216667Y-123285715D01*
X208192857Y-123238096D01*
X208192857Y-123166667D01*
X208216667Y-123119048D01*
X208264286Y-123095239D01*
X208526190Y-123095239D01*
X208526190Y-122857143D02*
X208026190Y-122857143D01*
X208335714Y-122809524D02*
X208526190Y-122666667D01*
X208192857Y-122666667D02*
X208383333Y-122857143D01*
X210030953Y-131576190D02*
X209864286Y-131338095D01*
X209745239Y-131576190D02*
X209745239Y-131076190D01*
X209935715Y-131076190D01*
X209983334Y-131100000D01*
X210007143Y-131123810D01*
X210030953Y-131171429D01*
X210030953Y-131242857D01*
X210007143Y-131290476D01*
X209983334Y-131314286D01*
X209935715Y-131338095D01*
X209745239Y-131338095D01*
X210435715Y-131552381D02*
X210388096Y-131576190D01*
X210292858Y-131576190D01*
X210245239Y-131552381D01*
X210221429Y-131504762D01*
X210221429Y-131314286D01*
X210245239Y-131266667D01*
X210292858Y-131242857D01*
X210388096Y-131242857D01*
X210435715Y-131266667D01*
X210459524Y-131314286D01*
X210459524Y-131361905D01*
X210221429Y-131409524D01*
X210650000Y-131552381D02*
X210697619Y-131576190D01*
X210792857Y-131576190D01*
X210840476Y-131552381D01*
X210864286Y-131504762D01*
X210864286Y-131480952D01*
X210840476Y-131433333D01*
X210792857Y-131409524D01*
X210721429Y-131409524D01*
X210673810Y-131385714D01*
X210650000Y-131338095D01*
X210650000Y-131314286D01*
X210673810Y-131266667D01*
X210721429Y-131242857D01*
X210792857Y-131242857D01*
X210840476Y-131266667D01*
X211269048Y-131552381D02*
X211221429Y-131576190D01*
X211126191Y-131576190D01*
X211078572Y-131552381D01*
X211054762Y-131504762D01*
X211054762Y-131314286D01*
X211078572Y-131266667D01*
X211126191Y-131242857D01*
X211221429Y-131242857D01*
X211269048Y-131266667D01*
X211292857Y-131314286D01*
X211292857Y-131361905D01*
X211054762Y-131409524D01*
X211435714Y-131242857D02*
X211626190Y-131242857D01*
X211507143Y-131076190D02*
X211507143Y-131504762D01*
X211530952Y-131552381D01*
X211578571Y-131576190D01*
X211626190Y-131576190D01*
X208476190Y-128476190D02*
X207976190Y-128476190D01*
X207976190Y-128357143D01*
X208000000Y-128285714D01*
X208047619Y-128238095D01*
X208095238Y-128214286D01*
X208190476Y-128190476D01*
X208261905Y-128190476D01*
X208357143Y-128214286D01*
X208404762Y-128238095D01*
X208452381Y-128285714D01*
X208476190Y-128357143D01*
X208476190Y-128476190D01*
X208476190Y-127976190D02*
X208142857Y-127976190D01*
X207976190Y-127976190D02*
X208000000Y-128000000D01*
X208023810Y-127976190D01*
X208000000Y-127952381D01*
X207976190Y-127976190D01*
X208023810Y-127976190D01*
X208452381Y-127761905D02*
X208476190Y-127714286D01*
X208476190Y-127619048D01*
X208452381Y-127571429D01*
X208404762Y-127547619D01*
X208380952Y-127547619D01*
X208333333Y-127571429D01*
X208309524Y-127619048D01*
X208309524Y-127690476D01*
X208285714Y-127738095D01*
X208238095Y-127761905D01*
X208214286Y-127761905D01*
X208166667Y-127738095D01*
X208142857Y-127690476D01*
X208142857Y-127619048D01*
X208166667Y-127571429D01*
X208142857Y-127333333D02*
X208642857Y-127333333D01*
X208166667Y-127333333D02*
X208142857Y-127285714D01*
X208142857Y-127190476D01*
X208166667Y-127142857D01*
X208190476Y-127119048D01*
X208238095Y-127095238D01*
X208380952Y-127095238D01*
X208428571Y-127119048D01*
X208452381Y-127142857D01*
X208476190Y-127190476D01*
X208476190Y-127285714D01*
X208452381Y-127333333D01*
X208476190Y-126809524D02*
X208452381Y-126857143D01*
X208404762Y-126880952D01*
X207976190Y-126880952D01*
X208476190Y-126404762D02*
X208214286Y-126404762D01*
X208166667Y-126428571D01*
X208142857Y-126476190D01*
X208142857Y-126571428D01*
X208166667Y-126619047D01*
X208452381Y-126404762D02*
X208476190Y-126452381D01*
X208476190Y-126571428D01*
X208452381Y-126619047D01*
X208404762Y-126642857D01*
X208357143Y-126642857D01*
X208309524Y-126619047D01*
X208285714Y-126571428D01*
X208285714Y-126452381D01*
X208261905Y-126404762D01*
X208142857Y-126214285D02*
X208476190Y-126095238D01*
X208142857Y-125976190D02*
X208476190Y-126095238D01*
X208595238Y-126142857D01*
X208619048Y-126166666D01*
X208642857Y-126214285D01*
D12*
X214870238Y-119826190D02*
X214870238Y-120302381D01*
X214536905Y-119302381D02*
X214870238Y-119826190D01*
X215203572Y-119302381D01*
X215489286Y-120254762D02*
X215632143Y-120302381D01*
X215870239Y-120302381D01*
X215965477Y-120254762D01*
X216013096Y-120207143D01*
X216060715Y-120111905D01*
X216060715Y-120016667D01*
X216013096Y-119921429D01*
X215965477Y-119873810D01*
X215870239Y-119826190D01*
X215679762Y-119778571D01*
X215584524Y-119730952D01*
X215536905Y-119683333D01*
X215489286Y-119588095D01*
X215489286Y-119492857D01*
X215536905Y-119397619D01*
X215584524Y-119350000D01*
X215679762Y-119302381D01*
X215917858Y-119302381D01*
X216060715Y-119350000D01*
X216822620Y-119778571D02*
X216489286Y-119778571D01*
X216489286Y-120302381D02*
X216489286Y-119302381D01*
X216965477Y-119302381D01*
X217185714Y-121452381D02*
X217185714Y-120452381D01*
X217566667Y-120452381D01*
X217661905Y-120500000D01*
X217709524Y-120547619D01*
X217757143Y-120642857D01*
X217757143Y-120785714D01*
X217709524Y-120880952D01*
X217661905Y-120928571D01*
X217566667Y-120976190D01*
X217185714Y-120976190D01*
X218138095Y-120547619D02*
X218185714Y-120500000D01*
X218280952Y-120452381D01*
X218519048Y-120452381D01*
X218614286Y-120500000D01*
X218661905Y-120547619D01*
X218709524Y-120642857D01*
X218709524Y-120738095D01*
X218661905Y-120880952D01*
X218090476Y-121452381D01*
X218709524Y-121452381D01*
X219614286Y-120452381D02*
X219138095Y-120452381D01*
X219090476Y-120928571D01*
X219138095Y-120880952D01*
X219233333Y-120833333D01*
X219471429Y-120833333D01*
X219566667Y-120880952D01*
X219614286Y-120928571D01*
X219661905Y-121023810D01*
X219661905Y-121261905D01*
X219614286Y-121357143D01*
X219566667Y-121404762D01*
X219471429Y-121452381D01*
X219233333Y-121452381D01*
X219138095Y-121404762D01*
X219090476Y-121357143D01*
X217357143Y-119152381D02*
X217357143Y-118152381D01*
X217595238Y-118152381D01*
X217738096Y-118200000D01*
X217833334Y-118295238D01*
X217880953Y-118390476D01*
X217928572Y-118580952D01*
X217928572Y-118723810D01*
X217880953Y-118914286D01*
X217833334Y-119009524D01*
X217738096Y-119104762D01*
X217595238Y-119152381D01*
X217357143Y-119152381D01*
X218500000Y-118152381D02*
X218500000Y-118390476D01*
X218261905Y-118295238D02*
X218500000Y-118390476D01*
X218738096Y-118295238D01*
X218357143Y-118580952D02*
X218500000Y-118390476D01*
X218642858Y-118580952D01*
X214566667Y-117902381D02*
X214566667Y-116902381D01*
X214804762Y-116902381D01*
X214947620Y-116950000D01*
X215042858Y-117045238D01*
X215090477Y-117140476D01*
X215138096Y-117330952D01*
X215138096Y-117473810D01*
X215090477Y-117664286D01*
X215042858Y-117759524D01*
X214947620Y-117854762D01*
X214804762Y-117902381D01*
X214566667Y-117902381D01*
X215566667Y-117902381D02*
X215566667Y-116902381D01*
X215900001Y-117616667D01*
X216233334Y-116902381D01*
X216233334Y-117902381D01*
X217280953Y-117902381D02*
X216947619Y-117426190D01*
X216709524Y-117902381D02*
X216709524Y-116902381D01*
X217090477Y-116902381D01*
X217185715Y-116950000D01*
X217233334Y-116997619D01*
X217280953Y-117092857D01*
X217280953Y-117235714D01*
X217233334Y-117330952D01*
X217185715Y-117378571D01*
X217090477Y-117426190D01*
X216709524Y-117426190D01*
X217376190Y-116652381D02*
X217376190Y-115652381D01*
X217757143Y-115652381D01*
X217852381Y-115700000D01*
X217900000Y-115747619D01*
X217947619Y-115842857D01*
X217947619Y-115985714D01*
X217900000Y-116080952D01*
X217852381Y-116128571D01*
X217757143Y-116176190D01*
X217376190Y-116176190D01*
X218233333Y-115652381D02*
X218804762Y-115652381D01*
X218519047Y-116652381D02*
X218519047Y-115652381D01*
X218995238Y-115652381D02*
X219566667Y-115652381D01*
X219280952Y-116652381D02*
X219280952Y-115652381D01*
X215084524Y-115382143D02*
X215036905Y-115429762D01*
X214894048Y-115477381D01*
X214798810Y-115477381D01*
X214655952Y-115429762D01*
X214560714Y-115334524D01*
X214513095Y-115239286D01*
X214465476Y-115048810D01*
X214465476Y-114905952D01*
X214513095Y-114715476D01*
X214560714Y-114620238D01*
X214655952Y-114525000D01*
X214798810Y-114477381D01*
X214894048Y-114477381D01*
X215036905Y-114525000D01*
X215084524Y-114572619D01*
X215703571Y-114477381D02*
X215894048Y-114477381D01*
X215989286Y-114525000D01*
X216084524Y-114620238D01*
X216132143Y-114810714D01*
X216132143Y-115144048D01*
X216084524Y-115334524D01*
X215989286Y-115429762D01*
X215894048Y-115477381D01*
X215703571Y-115477381D01*
X215608333Y-115429762D01*
X215513095Y-115334524D01*
X215465476Y-115144048D01*
X215465476Y-114810714D01*
X215513095Y-114620238D01*
X215608333Y-114525000D01*
X215703571Y-114477381D01*
X216513095Y-115429762D02*
X216655952Y-115477381D01*
X216894048Y-115477381D01*
X216989286Y-115429762D01*
X217036905Y-115382143D01*
X217084524Y-115286905D01*
X217084524Y-115191667D01*
X217036905Y-115096429D01*
X216989286Y-115048810D01*
X216894048Y-115001190D01*
X216703571Y-114953571D01*
X216608333Y-114905952D01*
X216560714Y-114858333D01*
X216513095Y-114763095D01*
X216513095Y-114667857D01*
X216560714Y-114572619D01*
X216608333Y-114525000D01*
X216703571Y-114477381D01*
X216941667Y-114477381D01*
X217084524Y-114525000D01*
X214666667Y-113152381D02*
X214666667Y-112152381D01*
X215047620Y-112152381D01*
X215142858Y-112200000D01*
X215190477Y-112247619D01*
X215238096Y-112342857D01*
X215238096Y-112485714D01*
X215190477Y-112580952D01*
X215142858Y-112628571D01*
X215047620Y-112676190D01*
X214666667Y-112676190D01*
X215571429Y-112152381D02*
X215809524Y-113152381D01*
X216000001Y-112438095D01*
X216190477Y-113152381D01*
X216428572Y-112152381D01*
X217380953Y-113152381D02*
X217047619Y-112676190D01*
X216809524Y-113152381D02*
X216809524Y-112152381D01*
X217190477Y-112152381D01*
X217285715Y-112200000D01*
X217333334Y-112247619D01*
X217380953Y-112342857D01*
X217380953Y-112485714D01*
X217333334Y-112580952D01*
X217285715Y-112628571D01*
X217190477Y-112676190D01*
X216809524Y-112676190D01*
D13*
X170929400Y-123922600D02*
X170929400Y-123422600D01*
X169989400Y-123422600D02*
X169989400Y-123922600D01*
X169176800Y-123897200D02*
X169176800Y-123397200D01*
X168236800Y-123397200D02*
X168236800Y-123897200D01*
X172850000Y-120530000D02*
X172350000Y-120530000D01*
X172350000Y-121470000D02*
X172850000Y-121470000D01*
X172850000Y-119280000D02*
X172350000Y-119280000D01*
X172350000Y-120220000D02*
X172850000Y-120220000D01*
X172350000Y-124120000D02*
X172850000Y-124120000D01*
X172850000Y-123180000D02*
X172350000Y-123180000D01*
X172350000Y-125320000D02*
X172850000Y-125320000D01*
X172850000Y-124380000D02*
X172350000Y-124380000D01*
X172350000Y-127870000D02*
X172850000Y-127870000D01*
X172850000Y-126930000D02*
X172350000Y-126930000D01*
X172350000Y-130470000D02*
X172850000Y-130470000D01*
X172850000Y-129530000D02*
X172350000Y-129530000D01*
X172350000Y-118970000D02*
X172850000Y-118970000D01*
X172850000Y-118030000D02*
X172350000Y-118030000D01*
X174750000Y-121520000D02*
X175250000Y-121520000D01*
X175250000Y-120580000D02*
X174750000Y-120580000D01*
X177450000Y-129530000D02*
X176950000Y-129530000D01*
X176950000Y-130470000D02*
X177450000Y-130470000D01*
X174750000Y-118970000D02*
X175250000Y-118970000D01*
X175250000Y-118030000D02*
X174750000Y-118030000D01*
X178230000Y-116200000D02*
X178230000Y-116700000D01*
X179170000Y-116700000D02*
X179170000Y-116200000D01*
X179580000Y-116200000D02*
X179580000Y-116700000D01*
X180520000Y-116700000D02*
X180520000Y-116200000D01*
X180987600Y-117834600D02*
X180987600Y-118334600D01*
X181927600Y-118334600D02*
X181927600Y-117834600D01*
X183120000Y-116650000D02*
X183120000Y-116150000D01*
X182180000Y-116150000D02*
X182180000Y-116650000D01*
X205970000Y-133750000D02*
X205970000Y-133250000D01*
X205030000Y-133250000D02*
X205030000Y-133750000D01*
X183380000Y-116150000D02*
X183380000Y-116650000D01*
X184320000Y-116650000D02*
X184320000Y-116150000D01*
X186350000Y-119520000D02*
X186850000Y-119520000D01*
X186850000Y-118580000D02*
X186350000Y-118580000D01*
X191320000Y-116950000D02*
X191320000Y-116450000D01*
X190380000Y-116450000D02*
X190380000Y-116950000D01*
X186350000Y-126020000D02*
X186850000Y-126020000D01*
X186850000Y-125080000D02*
X186350000Y-125080000D01*
X194530000Y-133250000D02*
X194530000Y-133750000D01*
X195470000Y-133750000D02*
X195470000Y-133250000D01*
X186350000Y-124620000D02*
X186850000Y-124620000D01*
X186850000Y-123680000D02*
X186350000Y-123680000D01*
X203530000Y-133250000D02*
X203530000Y-133750000D01*
X204470000Y-133750000D02*
X204470000Y-133250000D01*
X192790000Y-128520000D02*
X193290000Y-128520000D01*
X193290000Y-127580000D02*
X192790000Y-127580000D01*
X205530000Y-120750000D02*
X205530000Y-121250000D01*
X206470000Y-121250000D02*
X206470000Y-120750000D01*
X196230000Y-118000000D02*
X196230000Y-118500000D01*
X197170000Y-118500000D02*
X197170000Y-118000000D01*
X214850000Y-113350000D02*
X214850000Y-114250000D01*
X214850000Y-114250000D02*
X216300000Y-114250000D01*
X214850000Y-113350000D02*
X216300000Y-113350000D01*
X214250000Y-113050000D02*
X214250000Y-112150000D01*
X214250000Y-112150000D02*
X212800000Y-112150000D01*
X214250000Y-113050000D02*
X212800000Y-113050000D01*
X214250000Y-115450000D02*
X214250000Y-114550000D01*
X214250000Y-114550000D02*
X212800000Y-114550000D01*
X214250000Y-115450000D02*
X212800000Y-115450000D01*
X216750000Y-116650000D02*
X216750000Y-115750000D01*
X216750000Y-115750000D02*
X215300000Y-115750000D01*
X216750000Y-116650000D02*
X215300000Y-116650000D01*
X214250000Y-117850000D02*
X214250000Y-116950000D01*
X214250000Y-116950000D02*
X212800000Y-116950000D01*
X214250000Y-117850000D02*
X212800000Y-117850000D01*
X216750000Y-119050000D02*
X216750000Y-118150000D01*
X216750000Y-118150000D02*
X215300000Y-118150000D01*
X216750000Y-119050000D02*
X215300000Y-119050000D01*
X214250000Y-120250000D02*
X214250000Y-119350000D01*
X214250000Y-119350000D02*
X212800000Y-119350000D01*
X214250000Y-120250000D02*
X212800000Y-120250000D01*
X167763000Y-121186800D02*
X167263000Y-121186800D01*
X167263000Y-122246800D02*
X167763000Y-122246800D01*
X170226800Y-121186800D02*
X169726800Y-121186800D01*
X169726800Y-122246800D02*
X170226800Y-122246800D01*
X172350000Y-122880000D02*
X172850000Y-122880000D01*
X172850000Y-121820000D02*
X172350000Y-121820000D01*
X172850000Y-125570000D02*
X172350000Y-125570000D01*
X172350000Y-126630000D02*
X172850000Y-126630000D01*
X200406000Y-116138000D02*
X205546000Y-116138000D01*
X205546000Y-116138000D02*
X205546000Y-113478000D01*
X205546000Y-113478000D02*
X200406000Y-113478000D01*
X200406000Y-113478000D02*
X200406000Y-116138000D01*
X199136000Y-116138000D02*
X197806000Y-116138000D01*
X197806000Y-116138000D02*
X197806000Y-114808000D01*
X211690000Y-128330000D02*
X219370000Y-128330000D01*
X219370000Y-128330000D02*
X219370000Y-125670000D01*
X219370000Y-125670000D02*
X211690000Y-125670000D01*
X211690000Y-125670000D02*
X211690000Y-128330000D01*
X210420000Y-128330000D02*
X209090000Y-128330000D01*
X209090000Y-128330000D02*
X209090000Y-127000000D01*
X159600000Y-118350000D02*
X161600000Y-118350000D01*
X159600000Y-124950000D02*
X161600000Y-124950000D01*
X163900000Y-120650000D02*
X163900000Y-122650000D01*
X157300000Y-120650000D02*
X157300000Y-122650000D01*
X211770000Y-124830000D02*
X219450000Y-124830000D01*
X219450000Y-124830000D02*
X219450000Y-122170000D01*
X219450000Y-122170000D02*
X211770000Y-122170000D01*
X211770000Y-122170000D02*
X211770000Y-124830000D01*
X210500000Y-124830000D02*
X209170000Y-124830000D01*
X209170000Y-124830000D02*
X209170000Y-123500000D01*
X192790000Y-126580000D02*
X193290000Y-126580000D01*
X193290000Y-125520000D02*
X192790000Y-125520000D01*
X172350000Y-129230000D02*
X172850000Y-129230000D01*
X172850000Y-128170000D02*
X172350000Y-128170000D01*
X178184400Y-118342600D02*
X178184400Y-118842600D01*
X179244400Y-118842600D02*
X179244400Y-118342600D01*
X179505200Y-118342600D02*
X179505200Y-118842600D01*
X180565200Y-118842600D02*
X180565200Y-118342600D01*
X206670000Y-133250000D02*
X206670000Y-133750000D01*
X207730000Y-133750000D02*
X207730000Y-133250000D01*
X186350000Y-120830000D02*
X186850000Y-120830000D01*
X186850000Y-119770000D02*
X186350000Y-119770000D01*
X186350000Y-122130000D02*
X186850000Y-122130000D01*
X186850000Y-121070000D02*
X186350000Y-121070000D01*
X186350000Y-123430000D02*
X186850000Y-123430000D01*
X186850000Y-122370000D02*
X186350000Y-122370000D01*
X210050000Y-113130000D02*
X210550000Y-113130000D01*
X210550000Y-112070000D02*
X210050000Y-112070000D01*
X210050000Y-115530000D02*
X210550000Y-115530000D01*
X210550000Y-114470000D02*
X210050000Y-114470000D01*
X210050000Y-116730000D02*
X210550000Y-116730000D01*
X210550000Y-115670000D02*
X210050000Y-115670000D01*
X210050000Y-117930000D02*
X210550000Y-117930000D01*
X210550000Y-116870000D02*
X210050000Y-116870000D01*
X210050000Y-119130000D02*
X210550000Y-119130000D01*
X210550000Y-118070000D02*
X210050000Y-118070000D01*
X210050000Y-120330000D02*
X210550000Y-120330000D01*
X210550000Y-119270000D02*
X210050000Y-119270000D01*
X210050000Y-121530000D02*
X210550000Y-121530000D01*
X210550000Y-120470000D02*
X210050000Y-120470000D01*
X210550000Y-113270000D02*
X210050000Y-113270000D01*
X210050000Y-114330000D02*
X210550000Y-114330000D01*
X209050000Y-134500000D02*
X209050000Y-134800000D01*
X209050000Y-134800000D02*
X212350000Y-134800000D01*
X212350000Y-134800000D02*
X212350000Y-134500000D01*
X209050000Y-132300000D02*
X209050000Y-132000000D01*
X209050000Y-132000000D02*
X212350000Y-132000000D01*
X212350000Y-132000000D02*
X212350000Y-132300000D01*
D14*
X184418750Y-121268750D02*
X184418750Y-121793750D01*
X177168750Y-128518750D02*
X177168750Y-127993750D01*
X184418750Y-128518750D02*
X184418750Y-127993750D01*
X177168750Y-121268750D02*
X177693750Y-121268750D01*
X177168750Y-128518750D02*
X177693750Y-128518750D01*
X184418750Y-128518750D02*
X183893750Y-128518750D01*
X184418750Y-121268750D02*
X183893750Y-121268750D01*
X196375000Y-128625000D02*
X196825000Y-128625000D01*
X196375000Y-121375000D02*
X196900000Y-121375000D01*
X203625000Y-121375000D02*
X203100000Y-121375000D01*
X203625000Y-128625000D02*
X203100000Y-128625000D01*
X196375000Y-128625000D02*
X196375000Y-128100000D01*
X203625000Y-128625000D02*
X203625000Y-128100000D01*
X203625000Y-121375000D02*
X203625000Y-121900000D01*
X196375000Y-121375000D02*
X196375000Y-121900000D01*
X196825000Y-128625000D02*
X196825000Y-130000000D01*
D13*
X188750000Y-117650000D02*
X188750000Y-114350000D01*
X188750000Y-114350000D02*
X184750000Y-114350000D01*
X202150000Y-131200000D02*
X196250000Y-131200000D01*
X196250000Y-131200000D02*
X196250000Y-134800000D01*
X196250000Y-134800000D02*
X202150000Y-134800000D01*
X216750000Y-121450000D02*
X216750000Y-120550000D01*
X216750000Y-120550000D02*
X215300000Y-120550000D01*
X216750000Y-121450000D02*
X215300000Y-121450000D01*
D14*
X175150000Y-129475000D02*
X174650000Y-129475000D01*
X174650000Y-130525000D02*
X175150000Y-130525000D01*
X174750000Y-120325000D02*
X175250000Y-120325000D01*
X175250000Y-119275000D02*
X174750000Y-119275000D01*
D13*
X179574000Y-119612000D02*
X179074000Y-119612000D01*
X179074000Y-120672000D02*
X179574000Y-120672000D01*
X167221000Y-123897200D02*
X167221000Y-123397200D01*
X166281000Y-123397200D02*
X166281000Y-123897200D01*
D15*
X162560000Y-106710480D02*
X162560000Y-109250480D01*
X162560000Y-109250480D02*
X162560000Y-111790480D01*
X162560000Y-111790480D02*
X163512500Y-111790480D01*
X163512500Y-111790480D02*
X164147500Y-111790480D01*
X164147500Y-111790480D02*
X165100000Y-111790480D01*
X165100000Y-111790480D02*
X213360000Y-111790480D01*
X213360000Y-111790480D02*
X213360000Y-106710480D01*
X213360000Y-106710480D02*
X162560000Y-106710480D01*
X162560000Y-109250480D02*
X165100000Y-109250480D01*
X165100000Y-109250480D02*
X165100000Y-111790480D01*
X163512500Y-111790480D02*
X163512500Y-112107980D01*
X163512500Y-112107980D02*
X164147500Y-112107980D01*
X164147500Y-112107980D02*
X164147500Y-111790480D01*
D16*
G36*
X164350744Y-133872918D02*
X164406201Y-133900568D01*
X164455148Y-133951480D01*
X164468629Y-133970338D01*
X164483314Y-133995015D01*
X164492842Y-134021816D01*
X164498293Y-134057587D01*
X164500747Y-134109169D01*
X164501286Y-134177267D01*
X164498852Y-134270588D01*
X164490394Y-134340657D01*
X164474174Y-134392931D01*
X164448454Y-134432869D01*
X164411497Y-134465929D01*
X164408782Y-134467886D01*
X164372360Y-134487908D01*
X164328502Y-134497815D01*
X164272724Y-134500257D01*
X164182048Y-134500257D01*
X164182010Y-134588283D01*
X164181166Y-134637308D01*
X164176024Y-134666065D01*
X164162587Y-134683311D01*
X164136858Y-134697808D01*
X164130679Y-134700769D01*
X164101764Y-134714648D01*
X164079376Y-134723414D01*
X164062729Y-134724171D01*
X164051036Y-134714023D01*
X164043510Y-134690073D01*
X164039366Y-134649426D01*
X164037815Y-134589186D01*
X164038071Y-134506455D01*
X164039349Y-134398339D01*
X164039748Y-134366000D01*
X164041185Y-134254524D01*
X164042472Y-134181603D01*
X164181971Y-134181603D01*
X164182755Y-134243499D01*
X164186240Y-134283997D01*
X164194124Y-134310708D01*
X164208105Y-134331244D01*
X164217597Y-134341260D01*
X164256404Y-134370567D01*
X164290763Y-134372952D01*
X164326216Y-134348750D01*
X164327114Y-134347857D01*
X164341539Y-134329153D01*
X164350313Y-134303732D01*
X164354739Y-134264584D01*
X164356118Y-134204697D01*
X164356143Y-134191430D01*
X164352812Y-134108901D01*
X164341969Y-134051691D01*
X164322340Y-134016766D01*
X164292650Y-134001094D01*
X164275491Y-133999514D01*
X164234766Y-134006926D01*
X164206832Y-134031330D01*
X164190017Y-134075980D01*
X164182650Y-134144130D01*
X164181971Y-134181603D01*
X164042472Y-134181603D01*
X164042708Y-134168245D01*
X164044677Y-134103333D01*
X164047450Y-134055958D01*
X164051388Y-134022290D01*
X164056849Y-133998498D01*
X164064192Y-133980753D01*
X164073777Y-133965224D01*
X164077887Y-133959381D01*
X164132405Y-133904185D01*
X164201336Y-133872890D01*
X164281072Y-133864165D01*
X164350744Y-133872918D01*
X164350744Y-133872918D01*
G37*
X164350744Y-133872918D02*
X164406201Y-133900568D01*
X164455148Y-133951480D01*
X164468629Y-133970338D01*
X164483314Y-133995015D01*
X164492842Y-134021816D01*
X164498293Y-134057587D01*
X164500747Y-134109169D01*
X164501286Y-134177267D01*
X164498852Y-134270588D01*
X164490394Y-134340657D01*
X164474174Y-134392931D01*
X164448454Y-134432869D01*
X164411497Y-134465929D01*
X164408782Y-134467886D01*
X164372360Y-134487908D01*
X164328502Y-134497815D01*
X164272724Y-134500257D01*
X164182048Y-134500257D01*
X164182010Y-134588283D01*
X164181166Y-134637308D01*
X164176024Y-134666065D01*
X164162587Y-134683311D01*
X164136858Y-134697808D01*
X164130679Y-134700769D01*
X164101764Y-134714648D01*
X164079376Y-134723414D01*
X164062729Y-134724171D01*
X164051036Y-134714023D01*
X164043510Y-134690073D01*
X164039366Y-134649426D01*
X164037815Y-134589186D01*
X164038071Y-134506455D01*
X164039349Y-134398339D01*
X164039748Y-134366000D01*
X164041185Y-134254524D01*
X164042472Y-134181603D01*
X164181971Y-134181603D01*
X164182755Y-134243499D01*
X164186240Y-134283997D01*
X164194124Y-134310708D01*
X164208105Y-134331244D01*
X164217597Y-134341260D01*
X164256404Y-134370567D01*
X164290763Y-134372952D01*
X164326216Y-134348750D01*
X164327114Y-134347857D01*
X164341539Y-134329153D01*
X164350313Y-134303732D01*
X164354739Y-134264584D01*
X164356118Y-134204697D01*
X164356143Y-134191430D01*
X164352812Y-134108901D01*
X164341969Y-134051691D01*
X164322340Y-134016766D01*
X164292650Y-134001094D01*
X164275491Y-133999514D01*
X164234766Y-134006926D01*
X164206832Y-134031330D01*
X164190017Y-134075980D01*
X164182650Y-134144130D01*
X164181971Y-134181603D01*
X164042472Y-134181603D01*
X164042708Y-134168245D01*
X164044677Y-134103333D01*
X164047450Y-134055958D01*
X164051388Y-134022290D01*
X164056849Y-133998498D01*
X164064192Y-133980753D01*
X164073777Y-133965224D01*
X164077887Y-133959381D01*
X164132405Y-133904185D01*
X164201336Y-133872890D01*
X164281072Y-133864165D01*
X164350744Y-133872918D01*
G36*
X165467093Y-133880780D02*
X165513672Y-133907723D01*
X165546057Y-133934466D01*
X165569742Y-133962484D01*
X165586059Y-133996748D01*
X165596339Y-134042227D01*
X165601914Y-134103892D01*
X165604116Y-134186711D01*
X165604371Y-134246246D01*
X165604371Y-134465391D01*
X165542686Y-134493044D01*
X165481000Y-134520697D01*
X165473743Y-134280670D01*
X165470744Y-134191028D01*
X165467598Y-134125962D01*
X165463701Y-134081026D01*
X165458447Y-134051770D01*
X165451231Y-134033748D01*
X165441450Y-134022511D01*
X165438312Y-134020079D01*
X165390761Y-134001083D01*
X165342697Y-134008600D01*
X165314086Y-134028543D01*
X165302447Y-134042675D01*
X165294391Y-134061220D01*
X165289271Y-134089334D01*
X165286441Y-134132173D01*
X165285256Y-134194895D01*
X165285057Y-134260261D01*
X165285018Y-134342268D01*
X165283614Y-134400316D01*
X165278914Y-134439465D01*
X165268987Y-134464780D01*
X165251903Y-134481323D01*
X165225732Y-134494156D01*
X165190775Y-134507491D01*
X165152596Y-134522007D01*
X165157141Y-134264389D01*
X165158971Y-134171519D01*
X165161112Y-134102889D01*
X165164181Y-134053711D01*
X165168794Y-134019198D01*
X165175568Y-133994562D01*
X165185119Y-133975016D01*
X165196634Y-133957770D01*
X165252190Y-133902680D01*
X165319980Y-133870822D01*
X165393713Y-133863191D01*
X165467093Y-133880780D01*
X165467093Y-133880780D01*
G37*
X165467093Y-133880780D02*
X165513672Y-133907723D01*
X165546057Y-133934466D01*
X165569742Y-133962484D01*
X165586059Y-133996748D01*
X165596339Y-134042227D01*
X165601914Y-134103892D01*
X165604116Y-134186711D01*
X165604371Y-134246246D01*
X165604371Y-134465391D01*
X165542686Y-134493044D01*
X165481000Y-134520697D01*
X165473743Y-134280670D01*
X165470744Y-134191028D01*
X165467598Y-134125962D01*
X165463701Y-134081026D01*
X165458447Y-134051770D01*
X165451231Y-134033748D01*
X165441450Y-134022511D01*
X165438312Y-134020079D01*
X165390761Y-134001083D01*
X165342697Y-134008600D01*
X165314086Y-134028543D01*
X165302447Y-134042675D01*
X165294391Y-134061220D01*
X165289271Y-134089334D01*
X165286441Y-134132173D01*
X165285256Y-134194895D01*
X165285057Y-134260261D01*
X165285018Y-134342268D01*
X165283614Y-134400316D01*
X165278914Y-134439465D01*
X165268987Y-134464780D01*
X165251903Y-134481323D01*
X165225732Y-134494156D01*
X165190775Y-134507491D01*
X165152596Y-134522007D01*
X165157141Y-134264389D01*
X165158971Y-134171519D01*
X165161112Y-134102889D01*
X165164181Y-134053711D01*
X165168794Y-134019198D01*
X165175568Y-133994562D01*
X165185119Y-133975016D01*
X165196634Y-133957770D01*
X165252190Y-133902680D01*
X165319980Y-133870822D01*
X165393713Y-133863191D01*
X165467093Y-133880780D01*
G36*
X163792115Y-133874962D02*
X163860145Y-133910733D01*
X163910351Y-133968301D01*
X163928185Y-134005312D01*
X163942063Y-134060882D01*
X163949167Y-134131096D01*
X163949840Y-134207727D01*
X163944427Y-134282552D01*
X163933270Y-134347342D01*
X163916714Y-134393873D01*
X163911626Y-134401887D01*
X163851355Y-134461707D01*
X163779769Y-134497535D01*
X163702092Y-134508020D01*
X163623548Y-134491810D01*
X163601689Y-134482092D01*
X163559122Y-134452143D01*
X163521763Y-134412433D01*
X163518232Y-134407397D01*
X163503881Y-134383124D01*
X163494394Y-134357178D01*
X163488790Y-134323022D01*
X163486086Y-134274119D01*
X163485299Y-134203935D01*
X163485286Y-134188200D01*
X163485322Y-134183192D01*
X163630429Y-134183192D01*
X163631273Y-134249430D01*
X163634596Y-134293386D01*
X163641583Y-134321779D01*
X163653416Y-134341325D01*
X163659457Y-134347857D01*
X163694186Y-134372680D01*
X163727903Y-134371548D01*
X163761995Y-134350016D01*
X163782329Y-134327029D01*
X163794371Y-134293478D01*
X163801134Y-134240569D01*
X163801598Y-134234399D01*
X163802752Y-134138513D01*
X163790688Y-134067299D01*
X163765570Y-134021194D01*
X163727560Y-134000635D01*
X163713992Y-133999514D01*
X163678364Y-134005152D01*
X163653994Y-134024686D01*
X163639093Y-134062042D01*
X163631875Y-134121150D01*
X163630429Y-134183192D01*
X163485322Y-134183192D01*
X163485826Y-134113413D01*
X163488096Y-134061159D01*
X163493068Y-134024949D01*
X163501713Y-133998299D01*
X163515005Y-133974722D01*
X163517943Y-133970338D01*
X163567313Y-133911249D01*
X163621109Y-133876947D01*
X163686602Y-133863331D01*
X163708842Y-133862665D01*
X163792115Y-133874962D01*
X163792115Y-133874962D01*
G37*
X163792115Y-133874962D02*
X163860145Y-133910733D01*
X163910351Y-133968301D01*
X163928185Y-134005312D01*
X163942063Y-134060882D01*
X163949167Y-134131096D01*
X163949840Y-134207727D01*
X163944427Y-134282552D01*
X163933270Y-134347342D01*
X163916714Y-134393873D01*
X163911626Y-134401887D01*
X163851355Y-134461707D01*
X163779769Y-134497535D01*
X163702092Y-134508020D01*
X163623548Y-134491810D01*
X163601689Y-134482092D01*
X163559122Y-134452143D01*
X163521763Y-134412433D01*
X163518232Y-134407397D01*
X163503881Y-134383124D01*
X163494394Y-134357178D01*
X163488790Y-134323022D01*
X163486086Y-134274119D01*
X163485299Y-134203935D01*
X163485286Y-134188200D01*
X163485322Y-134183192D01*
X163630429Y-134183192D01*
X163631273Y-134249430D01*
X163634596Y-134293386D01*
X163641583Y-134321779D01*
X163653416Y-134341325D01*
X163659457Y-134347857D01*
X163694186Y-134372680D01*
X163727903Y-134371548D01*
X163761995Y-134350016D01*
X163782329Y-134327029D01*
X163794371Y-134293478D01*
X163801134Y-134240569D01*
X163801598Y-134234399D01*
X163802752Y-134138513D01*
X163790688Y-134067299D01*
X163765570Y-134021194D01*
X163727560Y-134000635D01*
X163713992Y-133999514D01*
X163678364Y-134005152D01*
X163653994Y-134024686D01*
X163639093Y-134062042D01*
X163631875Y-134121150D01*
X163630429Y-134183192D01*
X163485322Y-134183192D01*
X163485826Y-134113413D01*
X163488096Y-134061159D01*
X163493068Y-134024949D01*
X163501713Y-133998299D01*
X163515005Y-133974722D01*
X163517943Y-133970338D01*
X163567313Y-133911249D01*
X163621109Y-133876947D01*
X163686602Y-133863331D01*
X163708842Y-133862665D01*
X163792115Y-133874962D01*
G36*
X164919303Y-133884239D02*
X164976527Y-133922735D01*
X165020749Y-133978335D01*
X165047167Y-134049086D01*
X165052510Y-134101162D01*
X165051903Y-134122893D01*
X165046822Y-134139531D01*
X165032855Y-134154437D01*
X165005589Y-134170973D01*
X164960612Y-134192498D01*
X164893511Y-134222374D01*
X164893171Y-134222524D01*
X164831407Y-134250813D01*
X164780759Y-134275933D01*
X164746404Y-134295179D01*
X164733518Y-134305848D01*
X164733514Y-134305934D01*
X164744872Y-134329166D01*
X164771431Y-134354774D01*
X164801923Y-134373221D01*
X164817370Y-134376886D01*
X164859515Y-134364212D01*
X164895808Y-134332471D01*
X164913517Y-134297572D01*
X164930552Y-134271845D01*
X164963922Y-134242546D01*
X165003149Y-134217235D01*
X165037756Y-134203471D01*
X165044993Y-134202714D01*
X165053139Y-134215160D01*
X165053630Y-134246972D01*
X165047643Y-134289866D01*
X165036357Y-134335558D01*
X165020950Y-134375761D01*
X165020171Y-134377322D01*
X164973804Y-134442062D01*
X164913711Y-134486097D01*
X164845465Y-134507711D01*
X164774638Y-134505185D01*
X164706804Y-134476804D01*
X164703788Y-134474808D01*
X164650427Y-134426448D01*
X164615340Y-134363352D01*
X164595922Y-134280387D01*
X164593316Y-134257078D01*
X164588701Y-134147055D01*
X164594233Y-134095748D01*
X164733514Y-134095748D01*
X164735324Y-134127753D01*
X164745222Y-134137093D01*
X164769898Y-134130105D01*
X164808795Y-134113587D01*
X164852275Y-134092881D01*
X164853356Y-134092333D01*
X164890209Y-134072949D01*
X164905000Y-134060013D01*
X164901353Y-134046451D01*
X164885995Y-134028632D01*
X164846923Y-134002845D01*
X164804846Y-134000950D01*
X164767103Y-134019717D01*
X164741034Y-134055915D01*
X164733514Y-134095748D01*
X164594233Y-134095748D01*
X164598194Y-134059027D01*
X164622550Y-133989212D01*
X164656456Y-133940302D01*
X164717653Y-133890878D01*
X164785063Y-133866359D01*
X164853880Y-133864797D01*
X164919303Y-133884239D01*
X164919303Y-133884239D01*
G37*
X164919303Y-133884239D02*
X164976527Y-133922735D01*
X165020749Y-133978335D01*
X165047167Y-134049086D01*
X165052510Y-134101162D01*
X165051903Y-134122893D01*
X165046822Y-134139531D01*
X165032855Y-134154437D01*
X165005589Y-134170973D01*
X164960612Y-134192498D01*
X164893511Y-134222374D01*
X164893171Y-134222524D01*
X164831407Y-134250813D01*
X164780759Y-134275933D01*
X164746404Y-134295179D01*
X164733518Y-134305848D01*
X164733514Y-134305934D01*
X164744872Y-134329166D01*
X164771431Y-134354774D01*
X164801923Y-134373221D01*
X164817370Y-134376886D01*
X164859515Y-134364212D01*
X164895808Y-134332471D01*
X164913517Y-134297572D01*
X164930552Y-134271845D01*
X164963922Y-134242546D01*
X165003149Y-134217235D01*
X165037756Y-134203471D01*
X165044993Y-134202714D01*
X165053139Y-134215160D01*
X165053630Y-134246972D01*
X165047643Y-134289866D01*
X165036357Y-134335558D01*
X165020950Y-134375761D01*
X165020171Y-134377322D01*
X164973804Y-134442062D01*
X164913711Y-134486097D01*
X164845465Y-134507711D01*
X164774638Y-134505185D01*
X164706804Y-134476804D01*
X164703788Y-134474808D01*
X164650427Y-134426448D01*
X164615340Y-134363352D01*
X164595922Y-134280387D01*
X164593316Y-134257078D01*
X164588701Y-134147055D01*
X164594233Y-134095748D01*
X164733514Y-134095748D01*
X164735324Y-134127753D01*
X164745222Y-134137093D01*
X164769898Y-134130105D01*
X164808795Y-134113587D01*
X164852275Y-134092881D01*
X164853356Y-134092333D01*
X164890209Y-134072949D01*
X164905000Y-134060013D01*
X164901353Y-134046451D01*
X164885995Y-134028632D01*
X164846923Y-134002845D01*
X164804846Y-134000950D01*
X164767103Y-134019717D01*
X164741034Y-134055915D01*
X164733514Y-134095748D01*
X164594233Y-134095748D01*
X164598194Y-134059027D01*
X164622550Y-133989212D01*
X164656456Y-133940302D01*
X164717653Y-133890878D01*
X164785063Y-133866359D01*
X164853880Y-133864797D01*
X164919303Y-133884239D01*
G36*
X166126886Y-133804289D02*
X166131139Y-133863613D01*
X166136025Y-133898572D01*
X166142795Y-133913820D01*
X166152702Y-133914015D01*
X166155914Y-133912195D01*
X166198644Y-133899015D01*
X166254227Y-133899785D01*
X166310737Y-133913333D01*
X166346082Y-133930861D01*
X166382321Y-133958861D01*
X166408813Y-133990549D01*
X166426999Y-134030813D01*
X166438322Y-134084543D01*
X166444222Y-134156626D01*
X166446143Y-134251951D01*
X166446177Y-134270237D01*
X166446200Y-134475646D01*
X166400491Y-134491580D01*
X166368027Y-134502420D01*
X166350215Y-134507468D01*
X166349691Y-134507514D01*
X166347937Y-134493828D01*
X166346444Y-134456076D01*
X166345326Y-134399224D01*
X166344697Y-134328234D01*
X166344600Y-134285073D01*
X166344398Y-134199973D01*
X166343358Y-134138981D01*
X166340831Y-134097177D01*
X166336164Y-134069642D01*
X166328707Y-134051456D01*
X166317811Y-134037698D01*
X166311007Y-134031073D01*
X166264272Y-134004375D01*
X166213272Y-134002375D01*
X166167001Y-134024955D01*
X166158444Y-134033107D01*
X166145893Y-134048436D01*
X166137188Y-134066618D01*
X166131631Y-134092909D01*
X166128526Y-134132562D01*
X166127176Y-134190832D01*
X166126886Y-134271173D01*
X166126886Y-134475646D01*
X166081177Y-134491580D01*
X166048713Y-134502420D01*
X166030901Y-134507468D01*
X166030377Y-134507514D01*
X166029037Y-134493623D01*
X166027828Y-134454439D01*
X166026801Y-134393700D01*
X166026002Y-134315141D01*
X166025481Y-134222498D01*
X166025286Y-134119509D01*
X166025286Y-133722342D01*
X166072457Y-133702444D01*
X166119629Y-133682547D01*
X166126886Y-133804289D01*
X166126886Y-133804289D01*
G37*
X166126886Y-133804289D02*
X166131139Y-133863613D01*
X166136025Y-133898572D01*
X166142795Y-133913820D01*
X166152702Y-133914015D01*
X166155914Y-133912195D01*
X166198644Y-133899015D01*
X166254227Y-133899785D01*
X166310737Y-133913333D01*
X166346082Y-133930861D01*
X166382321Y-133958861D01*
X166408813Y-133990549D01*
X166426999Y-134030813D01*
X166438322Y-134084543D01*
X166444222Y-134156626D01*
X166446143Y-134251951D01*
X166446177Y-134270237D01*
X166446200Y-134475646D01*
X166400491Y-134491580D01*
X166368027Y-134502420D01*
X166350215Y-134507468D01*
X166349691Y-134507514D01*
X166347937Y-134493828D01*
X166346444Y-134456076D01*
X166345326Y-134399224D01*
X166344697Y-134328234D01*
X166344600Y-134285073D01*
X166344398Y-134199973D01*
X166343358Y-134138981D01*
X166340831Y-134097177D01*
X166336164Y-134069642D01*
X166328707Y-134051456D01*
X166317811Y-134037698D01*
X166311007Y-134031073D01*
X166264272Y-134004375D01*
X166213272Y-134002375D01*
X166167001Y-134024955D01*
X166158444Y-134033107D01*
X166145893Y-134048436D01*
X166137188Y-134066618D01*
X166131631Y-134092909D01*
X166128526Y-134132562D01*
X166127176Y-134190832D01*
X166126886Y-134271173D01*
X166126886Y-134475646D01*
X166081177Y-134491580D01*
X166048713Y-134502420D01*
X166030901Y-134507468D01*
X166030377Y-134507514D01*
X166029037Y-134493623D01*
X166027828Y-134454439D01*
X166026801Y-134393700D01*
X166026002Y-134315141D01*
X166025481Y-134222498D01*
X166025286Y-134119509D01*
X166025286Y-133722342D01*
X166072457Y-133702444D01*
X166119629Y-133682547D01*
X166126886Y-133804289D01*
G36*
X166790744Y-133903968D02*
X166847616Y-133925087D01*
X166848267Y-133925493D01*
X166883440Y-133951380D01*
X166909407Y-133981633D01*
X166927670Y-134021058D01*
X166939732Y-134074462D01*
X166947096Y-134146651D01*
X166951264Y-134242432D01*
X166951629Y-134256078D01*
X166956876Y-134461842D01*
X166912716Y-134484678D01*
X166880763Y-134500110D01*
X166861470Y-134507423D01*
X166860578Y-134507514D01*
X166857239Y-134494022D01*
X166854587Y-134457626D01*
X166852956Y-134404452D01*
X166852600Y-134361393D01*
X166852592Y-134291641D01*
X166849403Y-134247837D01*
X166838288Y-134226944D01*
X166814501Y-134225925D01*
X166773296Y-134241741D01*
X166711086Y-134270815D01*
X166665341Y-134294963D01*
X166641813Y-134315913D01*
X166634896Y-134338747D01*
X166634886Y-134339877D01*
X166646299Y-134379212D01*
X166680092Y-134400462D01*
X166731809Y-134403539D01*
X166769061Y-134403006D01*
X166788703Y-134413735D01*
X166800952Y-134439505D01*
X166808002Y-134472337D01*
X166797842Y-134490966D01*
X166794017Y-134493632D01*
X166758001Y-134504340D01*
X166707566Y-134505856D01*
X166655626Y-134498759D01*
X166618822Y-134485788D01*
X166567938Y-134442585D01*
X166539014Y-134382446D01*
X166533286Y-134335462D01*
X166537657Y-134293082D01*
X166553475Y-134258488D01*
X166584797Y-134227763D01*
X166635678Y-134196990D01*
X166710176Y-134162252D01*
X166714714Y-134160288D01*
X166781821Y-134129287D01*
X166823232Y-134103862D01*
X166840981Y-134081014D01*
X166837107Y-134057745D01*
X166813643Y-134031056D01*
X166806627Y-134024914D01*
X166759630Y-134001100D01*
X166710933Y-134002103D01*
X166668522Y-134025451D01*
X166640384Y-134068675D01*
X166637769Y-134077160D01*
X166612308Y-134118308D01*
X166580001Y-134138128D01*
X166533286Y-134157770D01*
X166533286Y-134106950D01*
X166547496Y-134033082D01*
X166589675Y-133965327D01*
X166611624Y-133942661D01*
X166661517Y-133913569D01*
X166724967Y-133900400D01*
X166790744Y-133903968D01*
X166790744Y-133903968D01*
G37*
X166790744Y-133903968D02*
X166847616Y-133925087D01*
X166848267Y-133925493D01*
X166883440Y-133951380D01*
X166909407Y-133981633D01*
X166927670Y-134021058D01*
X166939732Y-134074462D01*
X166947096Y-134146651D01*
X166951264Y-134242432D01*
X166951629Y-134256078D01*
X166956876Y-134461842D01*
X166912716Y-134484678D01*
X166880763Y-134500110D01*
X166861470Y-134507423D01*
X166860578Y-134507514D01*
X166857239Y-134494022D01*
X166854587Y-134457626D01*
X166852956Y-134404452D01*
X166852600Y-134361393D01*
X166852592Y-134291641D01*
X166849403Y-134247837D01*
X166838288Y-134226944D01*
X166814501Y-134225925D01*
X166773296Y-134241741D01*
X166711086Y-134270815D01*
X166665341Y-134294963D01*
X166641813Y-134315913D01*
X166634896Y-134338747D01*
X166634886Y-134339877D01*
X166646299Y-134379212D01*
X166680092Y-134400462D01*
X166731809Y-134403539D01*
X166769061Y-134403006D01*
X166788703Y-134413735D01*
X166800952Y-134439505D01*
X166808002Y-134472337D01*
X166797842Y-134490966D01*
X166794017Y-134493632D01*
X166758001Y-134504340D01*
X166707566Y-134505856D01*
X166655626Y-134498759D01*
X166618822Y-134485788D01*
X166567938Y-134442585D01*
X166539014Y-134382446D01*
X166533286Y-134335462D01*
X166537657Y-134293082D01*
X166553475Y-134258488D01*
X166584797Y-134227763D01*
X166635678Y-134196990D01*
X166710176Y-134162252D01*
X166714714Y-134160288D01*
X166781821Y-134129287D01*
X166823232Y-134103862D01*
X166840981Y-134081014D01*
X166837107Y-134057745D01*
X166813643Y-134031056D01*
X166806627Y-134024914D01*
X166759630Y-134001100D01*
X166710933Y-134002103D01*
X166668522Y-134025451D01*
X166640384Y-134068675D01*
X166637769Y-134077160D01*
X166612308Y-134118308D01*
X166580001Y-134138128D01*
X166533286Y-134157770D01*
X166533286Y-134106950D01*
X166547496Y-134033082D01*
X166589675Y-133965327D01*
X166611624Y-133942661D01*
X166661517Y-133913569D01*
X166724967Y-133900400D01*
X166790744Y-133903968D01*
G36*
X167280926Y-133902755D02*
X167346858Y-133927084D01*
X167400273Y-133970117D01*
X167421164Y-134000409D01*
X167443939Y-134055994D01*
X167443466Y-134096186D01*
X167419562Y-134123217D01*
X167410717Y-134127813D01*
X167372530Y-134142144D01*
X167353028Y-134138472D01*
X167346422Y-134114407D01*
X167346086Y-134101114D01*
X167333992Y-134052210D01*
X167302471Y-134017999D01*
X167258659Y-134001476D01*
X167209695Y-134005634D01*
X167169894Y-134027227D01*
X167156450Y-134039544D01*
X167146921Y-134054487D01*
X167140485Y-134077075D01*
X167136317Y-134112328D01*
X167133597Y-134165266D01*
X167131502Y-134240907D01*
X167130960Y-134264857D01*
X167128981Y-134346790D01*
X167126731Y-134404455D01*
X167123357Y-134442608D01*
X167118006Y-134466004D01*
X167109824Y-134479398D01*
X167097959Y-134487545D01*
X167090362Y-134491144D01*
X167058102Y-134503452D01*
X167039111Y-134507514D01*
X167032836Y-134493948D01*
X167029006Y-134452934D01*
X167027600Y-134383999D01*
X167028598Y-134286669D01*
X167028908Y-134271657D01*
X167031101Y-134182859D01*
X167033693Y-134118019D01*
X167037382Y-134072067D01*
X167042864Y-134039935D01*
X167050835Y-134016553D01*
X167061993Y-133996852D01*
X167067830Y-133988410D01*
X167101296Y-133951057D01*
X167138727Y-133922003D01*
X167143309Y-133919467D01*
X167210426Y-133899443D01*
X167280926Y-133902755D01*
X167280926Y-133902755D01*
G37*
X167280926Y-133902755D02*
X167346858Y-133927084D01*
X167400273Y-133970117D01*
X167421164Y-134000409D01*
X167443939Y-134055994D01*
X167443466Y-134096186D01*
X167419562Y-134123217D01*
X167410717Y-134127813D01*
X167372530Y-134142144D01*
X167353028Y-134138472D01*
X167346422Y-134114407D01*
X167346086Y-134101114D01*
X167333992Y-134052210D01*
X167302471Y-134017999D01*
X167258659Y-134001476D01*
X167209695Y-134005634D01*
X167169894Y-134027227D01*
X167156450Y-134039544D01*
X167146921Y-134054487D01*
X167140485Y-134077075D01*
X167136317Y-134112328D01*
X167133597Y-134165266D01*
X167131502Y-134240907D01*
X167130960Y-134264857D01*
X167128981Y-134346790D01*
X167126731Y-134404455D01*
X167123357Y-134442608D01*
X167118006Y-134466004D01*
X167109824Y-134479398D01*
X167097959Y-134487545D01*
X167090362Y-134491144D01*
X167058102Y-134503452D01*
X167039111Y-134507514D01*
X167032836Y-134493948D01*
X167029006Y-134452934D01*
X167027600Y-134383999D01*
X167028598Y-134286669D01*
X167028908Y-134271657D01*
X167031101Y-134182859D01*
X167033693Y-134118019D01*
X167037382Y-134072067D01*
X167042864Y-134039935D01*
X167050835Y-134016553D01*
X167061993Y-133996852D01*
X167067830Y-133988410D01*
X167101296Y-133951057D01*
X167138727Y-133922003D01*
X167143309Y-133919467D01*
X167210426Y-133899443D01*
X167280926Y-133902755D01*
G36*
X167941117Y-134018358D02*
X167940933Y-134126837D01*
X167940219Y-134210287D01*
X167938675Y-134272704D01*
X167936001Y-134318085D01*
X167931894Y-134350429D01*
X167926055Y-134373733D01*
X167918182Y-134391995D01*
X167912221Y-134402418D01*
X167862855Y-134458945D01*
X167800264Y-134494377D01*
X167731013Y-134507090D01*
X167661668Y-134495463D01*
X167620375Y-134474568D01*
X167577025Y-134438422D01*
X167547481Y-134394276D01*
X167529655Y-134336462D01*
X167521463Y-134259313D01*
X167520302Y-134202714D01*
X167520458Y-134198647D01*
X167621857Y-134198647D01*
X167622476Y-134263550D01*
X167625314Y-134306514D01*
X167631840Y-134334622D01*
X167643523Y-134354953D01*
X167657483Y-134370288D01*
X167704365Y-134399890D01*
X167754701Y-134402419D01*
X167802276Y-134377705D01*
X167805979Y-134374356D01*
X167821783Y-134356935D01*
X167831693Y-134336209D01*
X167837058Y-134305362D01*
X167839228Y-134257577D01*
X167839571Y-134204748D01*
X167838827Y-134138381D01*
X167835748Y-134094106D01*
X167829061Y-134065009D01*
X167817496Y-134044173D01*
X167808013Y-134033107D01*
X167763960Y-134005198D01*
X167713224Y-134001843D01*
X167664796Y-134023159D01*
X167655450Y-134031073D01*
X167639540Y-134048647D01*
X167629610Y-134069587D01*
X167624278Y-134100782D01*
X167622163Y-134149122D01*
X167621857Y-134198647D01*
X167520458Y-134198647D01*
X167523810Y-134111568D01*
X167535726Y-134043086D01*
X167558135Y-133991600D01*
X167593124Y-133951443D01*
X167620375Y-133930861D01*
X167669907Y-133908625D01*
X167727316Y-133898304D01*
X167780682Y-133901067D01*
X167810543Y-133912212D01*
X167822261Y-133915383D01*
X167830037Y-133903557D01*
X167835465Y-133871866D01*
X167839571Y-133823593D01*
X167844067Y-133769829D01*
X167850313Y-133737482D01*
X167861676Y-133718985D01*
X167881528Y-133706770D01*
X167894000Y-133701362D01*
X167941171Y-133681601D01*
X167941117Y-134018358D01*
X167941117Y-134018358D01*
G37*
X167941117Y-134018358D02*
X167940933Y-134126837D01*
X167940219Y-134210287D01*
X167938675Y-134272704D01*
X167936001Y-134318085D01*
X167931894Y-134350429D01*
X167926055Y-134373733D01*
X167918182Y-134391995D01*
X167912221Y-134402418D01*
X167862855Y-134458945D01*
X167800264Y-134494377D01*
X167731013Y-134507090D01*
X167661668Y-134495463D01*
X167620375Y-134474568D01*
X167577025Y-134438422D01*
X167547481Y-134394276D01*
X167529655Y-134336462D01*
X167521463Y-134259313D01*
X167520302Y-134202714D01*
X167520458Y-134198647D01*
X167621857Y-134198647D01*
X167622476Y-134263550D01*
X167625314Y-134306514D01*
X167631840Y-134334622D01*
X167643523Y-134354953D01*
X167657483Y-134370288D01*
X167704365Y-134399890D01*
X167754701Y-134402419D01*
X167802276Y-134377705D01*
X167805979Y-134374356D01*
X167821783Y-134356935D01*
X167831693Y-134336209D01*
X167837058Y-134305362D01*
X167839228Y-134257577D01*
X167839571Y-134204748D01*
X167838827Y-134138381D01*
X167835748Y-134094106D01*
X167829061Y-134065009D01*
X167817496Y-134044173D01*
X167808013Y-134033107D01*
X167763960Y-134005198D01*
X167713224Y-134001843D01*
X167664796Y-134023159D01*
X167655450Y-134031073D01*
X167639540Y-134048647D01*
X167629610Y-134069587D01*
X167624278Y-134100782D01*
X167622163Y-134149122D01*
X167621857Y-134198647D01*
X167520458Y-134198647D01*
X167523810Y-134111568D01*
X167535726Y-134043086D01*
X167558135Y-133991600D01*
X167593124Y-133951443D01*
X167620375Y-133930861D01*
X167669907Y-133908625D01*
X167727316Y-133898304D01*
X167780682Y-133901067D01*
X167810543Y-133912212D01*
X167822261Y-133915383D01*
X167830037Y-133903557D01*
X167835465Y-133871866D01*
X167839571Y-133823593D01*
X167844067Y-133769829D01*
X167850313Y-133737482D01*
X167861676Y-133718985D01*
X167881528Y-133706770D01*
X167894000Y-133701362D01*
X167941171Y-133681601D01*
X167941117Y-134018358D01*
G36*
X168530833Y-133911663D02*
X168533048Y-133949850D01*
X168534784Y-134007886D01*
X168535899Y-134081180D01*
X168536257Y-134158055D01*
X168536257Y-134418196D01*
X168490326Y-134464127D01*
X168458675Y-134492429D01*
X168430890Y-134503893D01*
X168392915Y-134503168D01*
X168377840Y-134501321D01*
X168330726Y-134495948D01*
X168291756Y-134492869D01*
X168282257Y-134492585D01*
X168250233Y-134494445D01*
X168204432Y-134499114D01*
X168186674Y-134501321D01*
X168143057Y-134504735D01*
X168113745Y-134497320D01*
X168084680Y-134474427D01*
X168074188Y-134464127D01*
X168028257Y-134418196D01*
X168028257Y-133931602D01*
X168065226Y-133914758D01*
X168097059Y-133902282D01*
X168115683Y-133897914D01*
X168120458Y-133911718D01*
X168124921Y-133950286D01*
X168128775Y-134009356D01*
X168131722Y-134084663D01*
X168133143Y-134148286D01*
X168137114Y-134398657D01*
X168171759Y-134403556D01*
X168203268Y-134400131D01*
X168218708Y-134389041D01*
X168223023Y-134368308D01*
X168226708Y-134324145D01*
X168229469Y-134262146D01*
X168231012Y-134187909D01*
X168231235Y-134149706D01*
X168231457Y-133929783D01*
X168277166Y-133913849D01*
X168309518Y-133903015D01*
X168327115Y-133897962D01*
X168327623Y-133897914D01*
X168329388Y-133911648D01*
X168331329Y-133949730D01*
X168333282Y-134007482D01*
X168335084Y-134080227D01*
X168336343Y-134148286D01*
X168340314Y-134398657D01*
X168427400Y-134398657D01*
X168431396Y-134170240D01*
X168435392Y-133941822D01*
X168477847Y-133919868D01*
X168509192Y-133904793D01*
X168527744Y-133897951D01*
X168528279Y-133897914D01*
X168530833Y-133911663D01*
X168530833Y-133911663D01*
G37*
X168530833Y-133911663D02*
X168533048Y-133949850D01*
X168534784Y-134007886D01*
X168535899Y-134081180D01*
X168536257Y-134158055D01*
X168536257Y-134418196D01*
X168490326Y-134464127D01*
X168458675Y-134492429D01*
X168430890Y-134503893D01*
X168392915Y-134503168D01*
X168377840Y-134501321D01*
X168330726Y-134495948D01*
X168291756Y-134492869D01*
X168282257Y-134492585D01*
X168250233Y-134494445D01*
X168204432Y-134499114D01*
X168186674Y-134501321D01*
X168143057Y-134504735D01*
X168113745Y-134497320D01*
X168084680Y-134474427D01*
X168074188Y-134464127D01*
X168028257Y-134418196D01*
X168028257Y-133931602D01*
X168065226Y-133914758D01*
X168097059Y-133902282D01*
X168115683Y-133897914D01*
X168120458Y-133911718D01*
X168124921Y-133950286D01*
X168128775Y-134009356D01*
X168131722Y-134084663D01*
X168133143Y-134148286D01*
X168137114Y-134398657D01*
X168171759Y-134403556D01*
X168203268Y-134400131D01*
X168218708Y-134389041D01*
X168223023Y-134368308D01*
X168226708Y-134324145D01*
X168229469Y-134262146D01*
X168231012Y-134187909D01*
X168231235Y-134149706D01*
X168231457Y-133929783D01*
X168277166Y-133913849D01*
X168309518Y-133903015D01*
X168327115Y-133897962D01*
X168327623Y-133897914D01*
X168329388Y-133911648D01*
X168331329Y-133949730D01*
X168333282Y-134007482D01*
X168335084Y-134080227D01*
X168336343Y-134148286D01*
X168340314Y-134398657D01*
X168427400Y-134398657D01*
X168431396Y-134170240D01*
X168435392Y-133941822D01*
X168477847Y-133919868D01*
X168509192Y-133904793D01*
X168527744Y-133897951D01*
X168528279Y-133897914D01*
X168530833Y-133911663D01*
G36*
X168895876Y-133909335D02*
X168937667Y-133928344D01*
X168970469Y-133951378D01*
X168994503Y-133977133D01*
X169011097Y-134010358D01*
X169021577Y-134055800D01*
X169027271Y-134118207D01*
X169029507Y-134202327D01*
X169029743Y-134257721D01*
X169029743Y-134473826D01*
X168992774Y-134490670D01*
X168963656Y-134502981D01*
X168949231Y-134507514D01*
X168946472Y-134494025D01*
X168944282Y-134457653D01*
X168942942Y-134404542D01*
X168942657Y-134362372D01*
X168941434Y-134301447D01*
X168938136Y-134253115D01*
X168933321Y-134223518D01*
X168929496Y-134217229D01*
X168903783Y-134223652D01*
X168863418Y-134240125D01*
X168816679Y-134262458D01*
X168771845Y-134286457D01*
X168737193Y-134307930D01*
X168721002Y-134322685D01*
X168720938Y-134322845D01*
X168722330Y-134350152D01*
X168734818Y-134376219D01*
X168756743Y-134397392D01*
X168788743Y-134404474D01*
X168816092Y-134403649D01*
X168854826Y-134403042D01*
X168875158Y-134412116D01*
X168887369Y-134436092D01*
X168888909Y-134440613D01*
X168894203Y-134474806D01*
X168880047Y-134495568D01*
X168843148Y-134505462D01*
X168803289Y-134507292D01*
X168731562Y-134493727D01*
X168694432Y-134474355D01*
X168648576Y-134428845D01*
X168624256Y-134372983D01*
X168622073Y-134313957D01*
X168642629Y-134258953D01*
X168673549Y-134224486D01*
X168704420Y-134205189D01*
X168752942Y-134180759D01*
X168809485Y-134155985D01*
X168818910Y-134152199D01*
X168881019Y-134124791D01*
X168916822Y-134100634D01*
X168928337Y-134076619D01*
X168917580Y-134049635D01*
X168899114Y-134028543D01*
X168855469Y-134002572D01*
X168807446Y-134000624D01*
X168763406Y-134020637D01*
X168731709Y-134060551D01*
X168727549Y-134070848D01*
X168703327Y-134108724D01*
X168667965Y-134136842D01*
X168623343Y-134159917D01*
X168623343Y-134094485D01*
X168625969Y-134054506D01*
X168637230Y-134022997D01*
X168662199Y-133989378D01*
X168686169Y-133963484D01*
X168723441Y-133926817D01*
X168752401Y-133907121D01*
X168783505Y-133899220D01*
X168818713Y-133897914D01*
X168895876Y-133909335D01*
X168895876Y-133909335D01*
G37*
X168895876Y-133909335D02*
X168937667Y-133928344D01*
X168970469Y-133951378D01*
X168994503Y-133977133D01*
X169011097Y-134010358D01*
X169021577Y-134055800D01*
X169027271Y-134118207D01*
X169029507Y-134202327D01*
X169029743Y-134257721D01*
X169029743Y-134473826D01*
X168992774Y-134490670D01*
X168963656Y-134502981D01*
X168949231Y-134507514D01*
X168946472Y-134494025D01*
X168944282Y-134457653D01*
X168942942Y-134404542D01*
X168942657Y-134362372D01*
X168941434Y-134301447D01*
X168938136Y-134253115D01*
X168933321Y-134223518D01*
X168929496Y-134217229D01*
X168903783Y-134223652D01*
X168863418Y-134240125D01*
X168816679Y-134262458D01*
X168771845Y-134286457D01*
X168737193Y-134307930D01*
X168721002Y-134322685D01*
X168720938Y-134322845D01*
X168722330Y-134350152D01*
X168734818Y-134376219D01*
X168756743Y-134397392D01*
X168788743Y-134404474D01*
X168816092Y-134403649D01*
X168854826Y-134403042D01*
X168875158Y-134412116D01*
X168887369Y-134436092D01*
X168888909Y-134440613D01*
X168894203Y-134474806D01*
X168880047Y-134495568D01*
X168843148Y-134505462D01*
X168803289Y-134507292D01*
X168731562Y-134493727D01*
X168694432Y-134474355D01*
X168648576Y-134428845D01*
X168624256Y-134372983D01*
X168622073Y-134313957D01*
X168642629Y-134258953D01*
X168673549Y-134224486D01*
X168704420Y-134205189D01*
X168752942Y-134180759D01*
X168809485Y-134155985D01*
X168818910Y-134152199D01*
X168881019Y-134124791D01*
X168916822Y-134100634D01*
X168928337Y-134076619D01*
X168917580Y-134049635D01*
X168899114Y-134028543D01*
X168855469Y-134002572D01*
X168807446Y-134000624D01*
X168763406Y-134020637D01*
X168731709Y-134060551D01*
X168727549Y-134070848D01*
X168703327Y-134108724D01*
X168667965Y-134136842D01*
X168623343Y-134159917D01*
X168623343Y-134094485D01*
X168625969Y-134054506D01*
X168637230Y-134022997D01*
X168662199Y-133989378D01*
X168686169Y-133963484D01*
X168723441Y-133926817D01*
X168752401Y-133907121D01*
X168783505Y-133899220D01*
X168818713Y-133897914D01*
X168895876Y-133909335D01*
G36*
X169403600Y-133911752D02*
X169420948Y-133919334D01*
X169462356Y-133952128D01*
X169497765Y-133999547D01*
X169519664Y-134050151D01*
X169523229Y-134075098D01*
X169511279Y-134109927D01*
X169485067Y-134128357D01*
X169456964Y-134139516D01*
X169444095Y-134141572D01*
X169437829Y-134126649D01*
X169425456Y-134094175D01*
X169420028Y-134079502D01*
X169389590Y-134028744D01*
X169345520Y-134003427D01*
X169289010Y-134004206D01*
X169284825Y-134005203D01*
X169254655Y-134019507D01*
X169232476Y-134047393D01*
X169217327Y-134092287D01*
X169208250Y-134157615D01*
X169204286Y-134246804D01*
X169203914Y-134294261D01*
X169203730Y-134369071D01*
X169202522Y-134420069D01*
X169199309Y-134452471D01*
X169193109Y-134471495D01*
X169182940Y-134482356D01*
X169167819Y-134490272D01*
X169166946Y-134490670D01*
X169137828Y-134502981D01*
X169123403Y-134507514D01*
X169121186Y-134493809D01*
X169119289Y-134455925D01*
X169117847Y-134398715D01*
X169116998Y-134327027D01*
X169116829Y-134274565D01*
X169117692Y-134173047D01*
X169121070Y-134096032D01*
X169128142Y-134039023D01*
X169140088Y-133997526D01*
X169158090Y-133967043D01*
X169183327Y-133943080D01*
X169208247Y-133926355D01*
X169268171Y-133904097D01*
X169337911Y-133899076D01*
X169403600Y-133911752D01*
X169403600Y-133911752D01*
G37*
X169403600Y-133911752D02*
X169420948Y-133919334D01*
X169462356Y-133952128D01*
X169497765Y-133999547D01*
X169519664Y-134050151D01*
X169523229Y-134075098D01*
X169511279Y-134109927D01*
X169485067Y-134128357D01*
X169456964Y-134139516D01*
X169444095Y-134141572D01*
X169437829Y-134126649D01*
X169425456Y-134094175D01*
X169420028Y-134079502D01*
X169389590Y-134028744D01*
X169345520Y-134003427D01*
X169289010Y-134004206D01*
X169284825Y-134005203D01*
X169254655Y-134019507D01*
X169232476Y-134047393D01*
X169217327Y-134092287D01*
X169208250Y-134157615D01*
X169204286Y-134246804D01*
X169203914Y-134294261D01*
X169203730Y-134369071D01*
X169202522Y-134420069D01*
X169199309Y-134452471D01*
X169193109Y-134471495D01*
X169182940Y-134482356D01*
X169167819Y-134490272D01*
X169166946Y-134490670D01*
X169137828Y-134502981D01*
X169123403Y-134507514D01*
X169121186Y-134493809D01*
X169119289Y-134455925D01*
X169117847Y-134398715D01*
X169116998Y-134327027D01*
X169116829Y-134274565D01*
X169117692Y-134173047D01*
X169121070Y-134096032D01*
X169128142Y-134039023D01*
X169140088Y-133997526D01*
X169158090Y-133967043D01*
X169183327Y-133943080D01*
X169208247Y-133926355D01*
X169268171Y-133904097D01*
X169337911Y-133899076D01*
X169403600Y-133911752D01*
G36*
X169904595Y-133919966D02*
X169962021Y-133957497D01*
X169989719Y-133991096D01*
X170011662Y-134052064D01*
X170013405Y-134100308D01*
X170009457Y-134164816D01*
X169860686Y-134229934D01*
X169788349Y-134263202D01*
X169741084Y-134289964D01*
X169716507Y-134313144D01*
X169712237Y-134335667D01*
X169725889Y-134360455D01*
X169740943Y-134376886D01*
X169784746Y-134403235D01*
X169832389Y-134405081D01*
X169876145Y-134384546D01*
X169908289Y-134343752D01*
X169914038Y-134329347D01*
X169941576Y-134284356D01*
X169973258Y-134265182D01*
X170016714Y-134248779D01*
X170016714Y-134310966D01*
X170012872Y-134353283D01*
X169997823Y-134388969D01*
X169966280Y-134429943D01*
X169961592Y-134435267D01*
X169926506Y-134471720D01*
X169896347Y-134491283D01*
X169858615Y-134500283D01*
X169827335Y-134503230D01*
X169771385Y-134503965D01*
X169731555Y-134494660D01*
X169706708Y-134480846D01*
X169667656Y-134450467D01*
X169640625Y-134417613D01*
X169623517Y-134376294D01*
X169614238Y-134320521D01*
X169610693Y-134244305D01*
X169610410Y-134205622D01*
X169611372Y-134159247D01*
X169699007Y-134159247D01*
X169700023Y-134184126D01*
X169702556Y-134188200D01*
X169719274Y-134182665D01*
X169755249Y-134168017D01*
X169803331Y-134147190D01*
X169813386Y-134142714D01*
X169874152Y-134111814D01*
X169907632Y-134084657D01*
X169914990Y-134059220D01*
X169897391Y-134033481D01*
X169882856Y-134022109D01*
X169830410Y-133999364D01*
X169781322Y-134003122D01*
X169740227Y-134030884D01*
X169711758Y-134080152D01*
X169702631Y-134119257D01*
X169699007Y-134159247D01*
X169611372Y-134159247D01*
X169612285Y-134115249D01*
X169619196Y-134048384D01*
X169632884Y-133999695D01*
X169655096Y-133963849D01*
X169687574Y-133935513D01*
X169701733Y-133926355D01*
X169766053Y-133902507D01*
X169836473Y-133901006D01*
X169904595Y-133919966D01*
X169904595Y-133919966D01*
G37*
X169904595Y-133919966D02*
X169962021Y-133957497D01*
X169989719Y-133991096D01*
X170011662Y-134052064D01*
X170013405Y-134100308D01*
X170009457Y-134164816D01*
X169860686Y-134229934D01*
X169788349Y-134263202D01*
X169741084Y-134289964D01*
X169716507Y-134313144D01*
X169712237Y-134335667D01*
X169725889Y-134360455D01*
X169740943Y-134376886D01*
X169784746Y-134403235D01*
X169832389Y-134405081D01*
X169876145Y-134384546D01*
X169908289Y-134343752D01*
X169914038Y-134329347D01*
X169941576Y-134284356D01*
X169973258Y-134265182D01*
X170016714Y-134248779D01*
X170016714Y-134310966D01*
X170012872Y-134353283D01*
X169997823Y-134388969D01*
X169966280Y-134429943D01*
X169961592Y-134435267D01*
X169926506Y-134471720D01*
X169896347Y-134491283D01*
X169858615Y-134500283D01*
X169827335Y-134503230D01*
X169771385Y-134503965D01*
X169731555Y-134494660D01*
X169706708Y-134480846D01*
X169667656Y-134450467D01*
X169640625Y-134417613D01*
X169623517Y-134376294D01*
X169614238Y-134320521D01*
X169610693Y-134244305D01*
X169610410Y-134205622D01*
X169611372Y-134159247D01*
X169699007Y-134159247D01*
X169700023Y-134184126D01*
X169702556Y-134188200D01*
X169719274Y-134182665D01*
X169755249Y-134168017D01*
X169803331Y-134147190D01*
X169813386Y-134142714D01*
X169874152Y-134111814D01*
X169907632Y-134084657D01*
X169914990Y-134059220D01*
X169897391Y-134033481D01*
X169882856Y-134022109D01*
X169830410Y-133999364D01*
X169781322Y-134003122D01*
X169740227Y-134030884D01*
X169711758Y-134080152D01*
X169702631Y-134119257D01*
X169699007Y-134159247D01*
X169611372Y-134159247D01*
X169612285Y-134115249D01*
X169619196Y-134048384D01*
X169632884Y-133999695D01*
X169655096Y-133963849D01*
X169687574Y-133935513D01*
X169701733Y-133926355D01*
X169766053Y-133902507D01*
X169836473Y-133901006D01*
X169904595Y-133919966D01*
G36*
X166854910Y-129195348D02*
X166933454Y-129195778D01*
X166990298Y-129196942D01*
X167029105Y-129199207D01*
X167053538Y-129202940D01*
X167067262Y-129208506D01*
X167073940Y-129216273D01*
X167077236Y-129226605D01*
X167077556Y-129227943D01*
X167082562Y-129252079D01*
X167091829Y-129299701D01*
X167104392Y-129365741D01*
X167119287Y-129445128D01*
X167135551Y-129532796D01*
X167136119Y-129535875D01*
X167152410Y-129621789D01*
X167167652Y-129697696D01*
X167180861Y-129759045D01*
X167191054Y-129801282D01*
X167197248Y-129819855D01*
X167197543Y-129820184D01*
X167215788Y-129829253D01*
X167253405Y-129844367D01*
X167302271Y-129862262D01*
X167302543Y-129862358D01*
X167364093Y-129885493D01*
X167436657Y-129914965D01*
X167505057Y-129944597D01*
X167508294Y-129946062D01*
X167619702Y-129996626D01*
X167866399Y-129828160D01*
X167942077Y-129776803D01*
X168010631Y-129730889D01*
X168068088Y-129693030D01*
X168110476Y-129665837D01*
X168133825Y-129651921D01*
X168136042Y-129650889D01*
X168153010Y-129655484D01*
X168184701Y-129677655D01*
X168232352Y-129718447D01*
X168297198Y-129778905D01*
X168363397Y-129843227D01*
X168427214Y-129906612D01*
X168484329Y-129964451D01*
X168531305Y-130013175D01*
X168564703Y-130049210D01*
X168581085Y-130068984D01*
X168581694Y-130070002D01*
X168583505Y-130083572D01*
X168576683Y-130105733D01*
X168559540Y-130139478D01*
X168530393Y-130187800D01*
X168487555Y-130253692D01*
X168430448Y-130338517D01*
X168379766Y-130413177D01*
X168334461Y-130480140D01*
X168297150Y-130535516D01*
X168270452Y-130575420D01*
X168256985Y-130595962D01*
X168256137Y-130597356D01*
X168257781Y-130617038D01*
X168270245Y-130655293D01*
X168291048Y-130704889D01*
X168298462Y-130720728D01*
X168330814Y-130791290D01*
X168365328Y-130871353D01*
X168393365Y-130940629D01*
X168413568Y-130992045D01*
X168429615Y-131031119D01*
X168438888Y-131051541D01*
X168440041Y-131053114D01*
X168457096Y-131055721D01*
X168497298Y-131062863D01*
X168555302Y-131073523D01*
X168625763Y-131086685D01*
X168703335Y-131101333D01*
X168782672Y-131116449D01*
X168858431Y-131131018D01*
X168925264Y-131144022D01*
X168977828Y-131154445D01*
X169010776Y-131161270D01*
X169018857Y-131163199D01*
X169027205Y-131167962D01*
X169033506Y-131178718D01*
X169038045Y-131199098D01*
X169041104Y-131232734D01*
X169042967Y-131283255D01*
X169043918Y-131354292D01*
X169044240Y-131449476D01*
X169044257Y-131488492D01*
X169044257Y-131805799D01*
X168968057Y-131820839D01*
X168925663Y-131828995D01*
X168862400Y-131840899D01*
X168785962Y-131855116D01*
X168704043Y-131870210D01*
X168681400Y-131874355D01*
X168605806Y-131889053D01*
X168539953Y-131903505D01*
X168489366Y-131916375D01*
X168459574Y-131926322D01*
X168454612Y-131929287D01*
X168442426Y-131950283D01*
X168424953Y-131990967D01*
X168405577Y-132043322D01*
X168401734Y-132054600D01*
X168376339Y-132124523D01*
X168344817Y-132203418D01*
X168313969Y-132274266D01*
X168313817Y-132274595D01*
X168262447Y-132385733D01*
X168431399Y-132634253D01*
X168600352Y-132882772D01*
X168383429Y-133100058D01*
X168317819Y-133164726D01*
X168257979Y-133221733D01*
X168207267Y-133268033D01*
X168169046Y-133300584D01*
X168146675Y-133316343D01*
X168143466Y-133317343D01*
X168124626Y-133309469D01*
X168086180Y-133287578D01*
X168032330Y-133254267D01*
X167967276Y-133212131D01*
X167896940Y-133164943D01*
X167825555Y-133116810D01*
X167761908Y-133074928D01*
X167710041Y-133041871D01*
X167673995Y-133020218D01*
X167657867Y-133012543D01*
X167638189Y-133019037D01*
X167600875Y-133036150D01*
X167553621Y-133060326D01*
X167548612Y-133063013D01*
X167484977Y-133094927D01*
X167441341Y-133110579D01*
X167414202Y-133110745D01*
X167400057Y-133096204D01*
X167399975Y-133096000D01*
X167392905Y-133078779D01*
X167376042Y-133037899D01*
X167350695Y-132976525D01*
X167318171Y-132897819D01*
X167279778Y-132804947D01*
X167236822Y-132701072D01*
X167195222Y-132600502D01*
X167149504Y-132489516D01*
X167107526Y-132386703D01*
X167070548Y-132295215D01*
X167039827Y-132218201D01*
X167016622Y-132158815D01*
X167002190Y-132120209D01*
X166997743Y-132105800D01*
X167008896Y-132089272D01*
X167038069Y-132062930D01*
X167076971Y-132033887D01*
X167187757Y-131942039D01*
X167274351Y-131836759D01*
X167335716Y-131720266D01*
X167370815Y-131594776D01*
X167378608Y-131462507D01*
X167372943Y-131401457D01*
X167342078Y-131274795D01*
X167288920Y-131162941D01*
X167216767Y-131067001D01*
X167128917Y-130988076D01*
X167028665Y-130927270D01*
X166919310Y-130885687D01*
X166804147Y-130864428D01*
X166686475Y-130864599D01*
X166569590Y-130887301D01*
X166456789Y-130933638D01*
X166351369Y-131004713D01*
X166307368Y-131044911D01*
X166222979Y-131148129D01*
X166164222Y-131260925D01*
X166130704Y-131380010D01*
X166122035Y-131502095D01*
X166137823Y-131623893D01*
X166177678Y-131742116D01*
X166241207Y-131853475D01*
X166328021Y-131954684D01*
X166425029Y-132033887D01*
X166465437Y-132064162D01*
X166493982Y-132090219D01*
X166504257Y-132105825D01*
X166498877Y-132122843D01*
X166483575Y-132163500D01*
X166459612Y-132224642D01*
X166428244Y-132303119D01*
X166390732Y-132395780D01*
X166348333Y-132499472D01*
X166306663Y-132600526D01*
X166260690Y-132711607D01*
X166218107Y-132814541D01*
X166180221Y-132906165D01*
X166148340Y-132983316D01*
X166123771Y-133042831D01*
X166107820Y-133081544D01*
X166101910Y-133096000D01*
X166087948Y-133110685D01*
X166060940Y-133110642D01*
X166017413Y-133095099D01*
X165953890Y-133063284D01*
X165953388Y-133063013D01*
X165905560Y-133038323D01*
X165866897Y-133020338D01*
X165845095Y-133012614D01*
X165844133Y-133012543D01*
X165827721Y-133020378D01*
X165791487Y-133042165D01*
X165739474Y-133075328D01*
X165675725Y-133117291D01*
X165605060Y-133164943D01*
X165533116Y-133213191D01*
X165468274Y-133255151D01*
X165414735Y-133288227D01*
X165376697Y-133309821D01*
X165358533Y-133317343D01*
X165341808Y-133307457D01*
X165308180Y-133279826D01*
X165261010Y-133237495D01*
X165203658Y-133183505D01*
X165139484Y-133120899D01*
X165118497Y-133099983D01*
X164901499Y-132882623D01*
X165066668Y-132640220D01*
X165116864Y-132565781D01*
X165160919Y-132498972D01*
X165196362Y-132443665D01*
X165220719Y-132403729D01*
X165231522Y-132383036D01*
X165231838Y-132381563D01*
X165226143Y-132362058D01*
X165210826Y-132322822D01*
X165188537Y-132270430D01*
X165172893Y-132235355D01*
X165143641Y-132168201D01*
X165116094Y-132100358D01*
X165094737Y-132043034D01*
X165088935Y-132025572D01*
X165072452Y-131978938D01*
X165056340Y-131942905D01*
X165047490Y-131929287D01*
X165027960Y-131920952D01*
X164985334Y-131909137D01*
X164925145Y-131895181D01*
X164852922Y-131880422D01*
X164820600Y-131874355D01*
X164738522Y-131859273D01*
X164659795Y-131844669D01*
X164592109Y-131831980D01*
X164543160Y-131822642D01*
X164533943Y-131820839D01*
X164457743Y-131805799D01*
X164457743Y-131488492D01*
X164457914Y-131384154D01*
X164458616Y-131305213D01*
X164460134Y-131248038D01*
X164462749Y-131208999D01*
X164466746Y-131184465D01*
X164472409Y-131170805D01*
X164480020Y-131164389D01*
X164483143Y-131163199D01*
X164501978Y-131158980D01*
X164543588Y-131150562D01*
X164602630Y-131138961D01*
X164673757Y-131125195D01*
X164751625Y-131110280D01*
X164830887Y-131095232D01*
X164906198Y-131081069D01*
X164972213Y-131068806D01*
X165023587Y-131059461D01*
X165054975Y-131054050D01*
X165061959Y-131053114D01*
X165068285Y-131040596D01*
X165082290Y-131007246D01*
X165101355Y-130959377D01*
X165108634Y-130940629D01*
X165137996Y-130868195D01*
X165172571Y-130788170D01*
X165203537Y-130720728D01*
X165226323Y-130669159D01*
X165241482Y-130626785D01*
X165246542Y-130600834D01*
X165245736Y-130597356D01*
X165235041Y-130580936D01*
X165210620Y-130544417D01*
X165175095Y-130491687D01*
X165131087Y-130426635D01*
X165081217Y-130353151D01*
X165071356Y-130338645D01*
X165013492Y-130252704D01*
X164970956Y-130187261D01*
X164942054Y-130139304D01*
X164925090Y-130105820D01*
X164918367Y-130083795D01*
X164920190Y-130070217D01*
X164920236Y-130070131D01*
X164934586Y-130052297D01*
X164966323Y-130017817D01*
X165012010Y-129970268D01*
X165068204Y-129913222D01*
X165131468Y-129850255D01*
X165138602Y-129843227D01*
X165218330Y-129766020D01*
X165279857Y-129709330D01*
X165324421Y-129672110D01*
X165353257Y-129653315D01*
X165365958Y-129650889D01*
X165384494Y-129661471D01*
X165422961Y-129685916D01*
X165477386Y-129721612D01*
X165543798Y-129765947D01*
X165618225Y-129816311D01*
X165635601Y-129828160D01*
X165882297Y-129996626D01*
X165993706Y-129946062D01*
X166061457Y-129916595D01*
X166134183Y-129886959D01*
X166196703Y-129863330D01*
X166199457Y-129862358D01*
X166248360Y-129844457D01*
X166286057Y-129829320D01*
X166304425Y-129820210D01*
X166304456Y-129820184D01*
X166310285Y-129803717D01*
X166320192Y-129763219D01*
X166333195Y-129703242D01*
X166348309Y-129628340D01*
X166364552Y-129543064D01*
X166365881Y-129535875D01*
X166382175Y-129448014D01*
X166397133Y-129368260D01*
X166409791Y-129301681D01*
X166419186Y-129253347D01*
X166424354Y-129228325D01*
X166424444Y-129227943D01*
X166427589Y-129217299D01*
X166433704Y-129209262D01*
X166446453Y-129203467D01*
X166469500Y-129199547D01*
X166506509Y-129197135D01*
X166561144Y-129195865D01*
X166637067Y-129195371D01*
X166737944Y-129195286D01*
X166751000Y-129195286D01*
X166854910Y-129195348D01*
X166854910Y-129195348D01*
G37*
X166854910Y-129195348D02*
X166933454Y-129195778D01*
X166990298Y-129196942D01*
X167029105Y-129199207D01*
X167053538Y-129202940D01*
X167067262Y-129208506D01*
X167073940Y-129216273D01*
X167077236Y-129226605D01*
X167077556Y-129227943D01*
X167082562Y-129252079D01*
X167091829Y-129299701D01*
X167104392Y-129365741D01*
X167119287Y-129445128D01*
X167135551Y-129532796D01*
X167136119Y-129535875D01*
X167152410Y-129621789D01*
X167167652Y-129697696D01*
X167180861Y-129759045D01*
X167191054Y-129801282D01*
X167197248Y-129819855D01*
X167197543Y-129820184D01*
X167215788Y-129829253D01*
X167253405Y-129844367D01*
X167302271Y-129862262D01*
X167302543Y-129862358D01*
X167364093Y-129885493D01*
X167436657Y-129914965D01*
X167505057Y-129944597D01*
X167508294Y-129946062D01*
X167619702Y-129996626D01*
X167866399Y-129828160D01*
X167942077Y-129776803D01*
X168010631Y-129730889D01*
X168068088Y-129693030D01*
X168110476Y-129665837D01*
X168133825Y-129651921D01*
X168136042Y-129650889D01*
X168153010Y-129655484D01*
X168184701Y-129677655D01*
X168232352Y-129718447D01*
X168297198Y-129778905D01*
X168363397Y-129843227D01*
X168427214Y-129906612D01*
X168484329Y-129964451D01*
X168531305Y-130013175D01*
X168564703Y-130049210D01*
X168581085Y-130068984D01*
X168581694Y-130070002D01*
X168583505Y-130083572D01*
X168576683Y-130105733D01*
X168559540Y-130139478D01*
X168530393Y-130187800D01*
X168487555Y-130253692D01*
X168430448Y-130338517D01*
X168379766Y-130413177D01*
X168334461Y-130480140D01*
X168297150Y-130535516D01*
X168270452Y-130575420D01*
X168256985Y-130595962D01*
X168256137Y-130597356D01*
X168257781Y-130617038D01*
X168270245Y-130655293D01*
X168291048Y-130704889D01*
X168298462Y-130720728D01*
X168330814Y-130791290D01*
X168365328Y-130871353D01*
X168393365Y-130940629D01*
X168413568Y-130992045D01*
X168429615Y-131031119D01*
X168438888Y-131051541D01*
X168440041Y-131053114D01*
X168457096Y-131055721D01*
X168497298Y-131062863D01*
X168555302Y-131073523D01*
X168625763Y-131086685D01*
X168703335Y-131101333D01*
X168782672Y-131116449D01*
X168858431Y-131131018D01*
X168925264Y-131144022D01*
X168977828Y-131154445D01*
X169010776Y-131161270D01*
X169018857Y-131163199D01*
X169027205Y-131167962D01*
X169033506Y-131178718D01*
X169038045Y-131199098D01*
X169041104Y-131232734D01*
X169042967Y-131283255D01*
X169043918Y-131354292D01*
X169044240Y-131449476D01*
X169044257Y-131488492D01*
X169044257Y-131805799D01*
X168968057Y-131820839D01*
X168925663Y-131828995D01*
X168862400Y-131840899D01*
X168785962Y-131855116D01*
X168704043Y-131870210D01*
X168681400Y-131874355D01*
X168605806Y-131889053D01*
X168539953Y-131903505D01*
X168489366Y-131916375D01*
X168459574Y-131926322D01*
X168454612Y-131929287D01*
X168442426Y-131950283D01*
X168424953Y-131990967D01*
X168405577Y-132043322D01*
X168401734Y-132054600D01*
X168376339Y-132124523D01*
X168344817Y-132203418D01*
X168313969Y-132274266D01*
X168313817Y-132274595D01*
X168262447Y-132385733D01*
X168431399Y-132634253D01*
X168600352Y-132882772D01*
X168383429Y-133100058D01*
X168317819Y-133164726D01*
X168257979Y-133221733D01*
X168207267Y-133268033D01*
X168169046Y-133300584D01*
X168146675Y-133316343D01*
X168143466Y-133317343D01*
X168124626Y-133309469D01*
X168086180Y-133287578D01*
X168032330Y-133254267D01*
X167967276Y-133212131D01*
X167896940Y-133164943D01*
X167825555Y-133116810D01*
X167761908Y-133074928D01*
X167710041Y-133041871D01*
X167673995Y-133020218D01*
X167657867Y-133012543D01*
X167638189Y-133019037D01*
X167600875Y-133036150D01*
X167553621Y-133060326D01*
X167548612Y-133063013D01*
X167484977Y-133094927D01*
X167441341Y-133110579D01*
X167414202Y-133110745D01*
X167400057Y-133096204D01*
X167399975Y-133096000D01*
X167392905Y-133078779D01*
X167376042Y-133037899D01*
X167350695Y-132976525D01*
X167318171Y-132897819D01*
X167279778Y-132804947D01*
X167236822Y-132701072D01*
X167195222Y-132600502D01*
X167149504Y-132489516D01*
X167107526Y-132386703D01*
X167070548Y-132295215D01*
X167039827Y-132218201D01*
X167016622Y-132158815D01*
X167002190Y-132120209D01*
X166997743Y-132105800D01*
X167008896Y-132089272D01*
X167038069Y-132062930D01*
X167076971Y-132033887D01*
X167187757Y-131942039D01*
X167274351Y-131836759D01*
X167335716Y-131720266D01*
X167370815Y-131594776D01*
X167378608Y-131462507D01*
X167372943Y-131401457D01*
X167342078Y-131274795D01*
X167288920Y-131162941D01*
X167216767Y-131067001D01*
X167128917Y-130988076D01*
X167028665Y-130927270D01*
X166919310Y-130885687D01*
X166804147Y-130864428D01*
X166686475Y-130864599D01*
X166569590Y-130887301D01*
X166456789Y-130933638D01*
X166351369Y-131004713D01*
X166307368Y-131044911D01*
X166222979Y-131148129D01*
X166164222Y-131260925D01*
X166130704Y-131380010D01*
X166122035Y-131502095D01*
X166137823Y-131623893D01*
X166177678Y-131742116D01*
X166241207Y-131853475D01*
X166328021Y-131954684D01*
X166425029Y-132033887D01*
X166465437Y-132064162D01*
X166493982Y-132090219D01*
X166504257Y-132105825D01*
X166498877Y-132122843D01*
X166483575Y-132163500D01*
X166459612Y-132224642D01*
X166428244Y-132303119D01*
X166390732Y-132395780D01*
X166348333Y-132499472D01*
X166306663Y-132600526D01*
X166260690Y-132711607D01*
X166218107Y-132814541D01*
X166180221Y-132906165D01*
X166148340Y-132983316D01*
X166123771Y-133042831D01*
X166107820Y-133081544D01*
X166101910Y-133096000D01*
X166087948Y-133110685D01*
X166060940Y-133110642D01*
X166017413Y-133095099D01*
X165953890Y-133063284D01*
X165953388Y-133063013D01*
X165905560Y-133038323D01*
X165866897Y-133020338D01*
X165845095Y-133012614D01*
X165844133Y-133012543D01*
X165827721Y-133020378D01*
X165791487Y-133042165D01*
X165739474Y-133075328D01*
X165675725Y-133117291D01*
X165605060Y-133164943D01*
X165533116Y-133213191D01*
X165468274Y-133255151D01*
X165414735Y-133288227D01*
X165376697Y-133309821D01*
X165358533Y-133317343D01*
X165341808Y-133307457D01*
X165308180Y-133279826D01*
X165261010Y-133237495D01*
X165203658Y-133183505D01*
X165139484Y-133120899D01*
X165118497Y-133099983D01*
X164901499Y-132882623D01*
X165066668Y-132640220D01*
X165116864Y-132565781D01*
X165160919Y-132498972D01*
X165196362Y-132443665D01*
X165220719Y-132403729D01*
X165231522Y-132383036D01*
X165231838Y-132381563D01*
X165226143Y-132362058D01*
X165210826Y-132322822D01*
X165188537Y-132270430D01*
X165172893Y-132235355D01*
X165143641Y-132168201D01*
X165116094Y-132100358D01*
X165094737Y-132043034D01*
X165088935Y-132025572D01*
X165072452Y-131978938D01*
X165056340Y-131942905D01*
X165047490Y-131929287D01*
X165027960Y-131920952D01*
X164985334Y-131909137D01*
X164925145Y-131895181D01*
X164852922Y-131880422D01*
X164820600Y-131874355D01*
X164738522Y-131859273D01*
X164659795Y-131844669D01*
X164592109Y-131831980D01*
X164543160Y-131822642D01*
X164533943Y-131820839D01*
X164457743Y-131805799D01*
X164457743Y-131488492D01*
X164457914Y-131384154D01*
X164458616Y-131305213D01*
X164460134Y-131248038D01*
X164462749Y-131208999D01*
X164466746Y-131184465D01*
X164472409Y-131170805D01*
X164480020Y-131164389D01*
X164483143Y-131163199D01*
X164501978Y-131158980D01*
X164543588Y-131150562D01*
X164602630Y-131138961D01*
X164673757Y-131125195D01*
X164751625Y-131110280D01*
X164830887Y-131095232D01*
X164906198Y-131081069D01*
X164972213Y-131068806D01*
X165023587Y-131059461D01*
X165054975Y-131054050D01*
X165061959Y-131053114D01*
X165068285Y-131040596D01*
X165082290Y-131007246D01*
X165101355Y-130959377D01*
X165108634Y-130940629D01*
X165137996Y-130868195D01*
X165172571Y-130788170D01*
X165203537Y-130720728D01*
X165226323Y-130669159D01*
X165241482Y-130626785D01*
X165246542Y-130600834D01*
X165245736Y-130597356D01*
X165235041Y-130580936D01*
X165210620Y-130544417D01*
X165175095Y-130491687D01*
X165131087Y-130426635D01*
X165081217Y-130353151D01*
X165071356Y-130338645D01*
X165013492Y-130252704D01*
X164970956Y-130187261D01*
X164942054Y-130139304D01*
X164925090Y-130105820D01*
X164918367Y-130083795D01*
X164920190Y-130070217D01*
X164920236Y-130070131D01*
X164934586Y-130052297D01*
X164966323Y-130017817D01*
X165012010Y-129970268D01*
X165068204Y-129913222D01*
X165131468Y-129850255D01*
X165138602Y-129843227D01*
X165218330Y-129766020D01*
X165279857Y-129709330D01*
X165324421Y-129672110D01*
X165353257Y-129653315D01*
X165365958Y-129650889D01*
X165384494Y-129661471D01*
X165422961Y-129685916D01*
X165477386Y-129721612D01*
X165543798Y-129765947D01*
X165618225Y-129816311D01*
X165635601Y-129828160D01*
X165882297Y-129996626D01*
X165993706Y-129946062D01*
X166061457Y-129916595D01*
X166134183Y-129886959D01*
X166196703Y-129863330D01*
X166199457Y-129862358D01*
X166248360Y-129844457D01*
X166286057Y-129829320D01*
X166304425Y-129820210D01*
X166304456Y-129820184D01*
X166310285Y-129803717D01*
X166320192Y-129763219D01*
X166333195Y-129703242D01*
X166348309Y-129628340D01*
X166364552Y-129543064D01*
X166365881Y-129535875D01*
X166382175Y-129448014D01*
X166397133Y-129368260D01*
X166409791Y-129301681D01*
X166419186Y-129253347D01*
X166424354Y-129228325D01*
X166424444Y-129227943D01*
X166427589Y-129217299D01*
X166433704Y-129209262D01*
X166446453Y-129203467D01*
X166469500Y-129199547D01*
X166506509Y-129197135D01*
X166561144Y-129195865D01*
X166637067Y-129195371D01*
X166737944Y-129195286D01*
X166751000Y-129195286D01*
X166854910Y-129195348D01*
D11*
X170137972Y-125273571D02*
X170114162Y-125297381D01*
X170042734Y-125321190D01*
X169995115Y-125321190D01*
X169923686Y-125297381D01*
X169876067Y-125249762D01*
X169852258Y-125202143D01*
X169828448Y-125106905D01*
X169828448Y-125035476D01*
X169852258Y-124940238D01*
X169876067Y-124892619D01*
X169923686Y-124845000D01*
X169995115Y-124821190D01*
X170042734Y-124821190D01*
X170114162Y-124845000D01*
X170137972Y-124868810D01*
X170328448Y-124868810D02*
X170352258Y-124845000D01*
X170399877Y-124821190D01*
X170518924Y-124821190D01*
X170566543Y-124845000D01*
X170590353Y-124868810D01*
X170614162Y-124916429D01*
X170614162Y-124964048D01*
X170590353Y-125035476D01*
X170304639Y-125321190D01*
X170614162Y-125321190D01*
X170780829Y-124821190D02*
X171114162Y-124821190D01*
X170899876Y-125321190D01*
X168598067Y-125298971D02*
X168574257Y-125322781D01*
X168502829Y-125346590D01*
X168455210Y-125346590D01*
X168383781Y-125322781D01*
X168336162Y-125275162D01*
X168312353Y-125227543D01*
X168288543Y-125132305D01*
X168288543Y-125060876D01*
X168312353Y-124965638D01*
X168336162Y-124918019D01*
X168383781Y-124870400D01*
X168455210Y-124846590D01*
X168502829Y-124846590D01*
X168574257Y-124870400D01*
X168598067Y-124894210D01*
X169074257Y-125346590D02*
X168788543Y-125346590D01*
X168931400Y-125346590D02*
X168931400Y-124846590D01*
X168883781Y-124918019D01*
X168836162Y-124965638D01*
X168788543Y-124989448D01*
X170960267Y-121057171D02*
X170936457Y-121080981D01*
X170865029Y-121104790D01*
X170817410Y-121104790D01*
X170745981Y-121080981D01*
X170698362Y-121033362D01*
X170674553Y-120985743D01*
X170650743Y-120890505D01*
X170650743Y-120819076D01*
X170674553Y-120723838D01*
X170698362Y-120676219D01*
X170745981Y-120628600D01*
X170817410Y-120604790D01*
X170865029Y-120604790D01*
X170936457Y-120628600D01*
X170960267Y-120652410D01*
X171150743Y-120652410D02*
X171174553Y-120628600D01*
X171222172Y-120604790D01*
X171341219Y-120604790D01*
X171388838Y-120628600D01*
X171412648Y-120652410D01*
X171436457Y-120700029D01*
X171436457Y-120747648D01*
X171412648Y-120819076D01*
X171126934Y-121104790D01*
X171436457Y-121104790D01*
X170916667Y-119928571D02*
X170892857Y-119952381D01*
X170821429Y-119976190D01*
X170773810Y-119976190D01*
X170702381Y-119952381D01*
X170654762Y-119904762D01*
X170630953Y-119857143D01*
X170607143Y-119761905D01*
X170607143Y-119690476D01*
X170630953Y-119595238D01*
X170654762Y-119547619D01*
X170702381Y-119500000D01*
X170773810Y-119476190D01*
X170821429Y-119476190D01*
X170892857Y-119500000D01*
X170916667Y-119523810D01*
X171083334Y-119476190D02*
X171392857Y-119476190D01*
X171226191Y-119666667D01*
X171297619Y-119666667D01*
X171345238Y-119690476D01*
X171369048Y-119714286D01*
X171392857Y-119761905D01*
X171392857Y-119880952D01*
X171369048Y-119928571D01*
X171345238Y-119952381D01*
X171297619Y-119976190D01*
X171154762Y-119976190D01*
X171107143Y-119952381D01*
X171083334Y-119928571D01*
X174166667Y-123878571D02*
X174142857Y-123902381D01*
X174071429Y-123926190D01*
X174023810Y-123926190D01*
X173952381Y-123902381D01*
X173904762Y-123854762D01*
X173880953Y-123807143D01*
X173857143Y-123711905D01*
X173857143Y-123640476D01*
X173880953Y-123545238D01*
X173904762Y-123497619D01*
X173952381Y-123450000D01*
X174023810Y-123426190D01*
X174071429Y-123426190D01*
X174142857Y-123450000D01*
X174166667Y-123473810D01*
X174595238Y-123592857D02*
X174595238Y-123926190D01*
X174476191Y-123402381D02*
X174357143Y-123759524D01*
X174666667Y-123759524D01*
X174166667Y-125028571D02*
X174142857Y-125052381D01*
X174071429Y-125076190D01*
X174023810Y-125076190D01*
X173952381Y-125052381D01*
X173904762Y-125004762D01*
X173880953Y-124957143D01*
X173857143Y-124861905D01*
X173857143Y-124790476D01*
X173880953Y-124695238D01*
X173904762Y-124647619D01*
X173952381Y-124600000D01*
X174023810Y-124576190D01*
X174071429Y-124576190D01*
X174142857Y-124600000D01*
X174166667Y-124623810D01*
X174619048Y-124576190D02*
X174380953Y-124576190D01*
X174357143Y-124814286D01*
X174380953Y-124790476D01*
X174428572Y-124766667D01*
X174547619Y-124766667D01*
X174595238Y-124790476D01*
X174619048Y-124814286D01*
X174642857Y-124861905D01*
X174642857Y-124980952D01*
X174619048Y-125028571D01*
X174595238Y-125052381D01*
X174547619Y-125076190D01*
X174428572Y-125076190D01*
X174380953Y-125052381D01*
X174357143Y-125028571D01*
X174097167Y-127572271D02*
X174073357Y-127596081D01*
X174001929Y-127619890D01*
X173954310Y-127619890D01*
X173882881Y-127596081D01*
X173835262Y-127548462D01*
X173811453Y-127500843D01*
X173787643Y-127405605D01*
X173787643Y-127334176D01*
X173811453Y-127238938D01*
X173835262Y-127191319D01*
X173882881Y-127143700D01*
X173954310Y-127119890D01*
X174001929Y-127119890D01*
X174073357Y-127143700D01*
X174097167Y-127167510D01*
X174525738Y-127119890D02*
X174430500Y-127119890D01*
X174382881Y-127143700D01*
X174359072Y-127167510D01*
X174311453Y-127238938D01*
X174287643Y-127334176D01*
X174287643Y-127524652D01*
X174311453Y-127572271D01*
X174335262Y-127596081D01*
X174382881Y-127619890D01*
X174478119Y-127619890D01*
X174525738Y-127596081D01*
X174549548Y-127572271D01*
X174573357Y-127524652D01*
X174573357Y-127405605D01*
X174549548Y-127357986D01*
X174525738Y-127334176D01*
X174478119Y-127310367D01*
X174382881Y-127310367D01*
X174335262Y-127334176D01*
X174311453Y-127357986D01*
X174287643Y-127405605D01*
X172496967Y-131128271D02*
X172473157Y-131152081D01*
X172401729Y-131175890D01*
X172354110Y-131175890D01*
X172282681Y-131152081D01*
X172235062Y-131104462D01*
X172211253Y-131056843D01*
X172187443Y-130961605D01*
X172187443Y-130890176D01*
X172211253Y-130794938D01*
X172235062Y-130747319D01*
X172282681Y-130699700D01*
X172354110Y-130675890D01*
X172401729Y-130675890D01*
X172473157Y-130699700D01*
X172496967Y-130723510D01*
X172663634Y-130675890D02*
X172996967Y-130675890D01*
X172782681Y-131175890D01*
X170966667Y-118678571D02*
X170942857Y-118702381D01*
X170871429Y-118726190D01*
X170823810Y-118726190D01*
X170752381Y-118702381D01*
X170704762Y-118654762D01*
X170680953Y-118607143D01*
X170657143Y-118511905D01*
X170657143Y-118440476D01*
X170680953Y-118345238D01*
X170704762Y-118297619D01*
X170752381Y-118250000D01*
X170823810Y-118226190D01*
X170871429Y-118226190D01*
X170942857Y-118250000D01*
X170966667Y-118273810D01*
X171252381Y-118440476D02*
X171204762Y-118416667D01*
X171180953Y-118392857D01*
X171157143Y-118345238D01*
X171157143Y-118321429D01*
X171180953Y-118273810D01*
X171204762Y-118250000D01*
X171252381Y-118226190D01*
X171347619Y-118226190D01*
X171395238Y-118250000D01*
X171419048Y-118273810D01*
X171442857Y-118321429D01*
X171442857Y-118345238D01*
X171419048Y-118392857D01*
X171395238Y-118416667D01*
X171347619Y-118440476D01*
X171252381Y-118440476D01*
X171204762Y-118464286D01*
X171180953Y-118488095D01*
X171157143Y-118535714D01*
X171157143Y-118630952D01*
X171180953Y-118678571D01*
X171204762Y-118702381D01*
X171252381Y-118726190D01*
X171347619Y-118726190D01*
X171395238Y-118702381D01*
X171419048Y-118678571D01*
X171442857Y-118630952D01*
X171442857Y-118535714D01*
X171419048Y-118488095D01*
X171395238Y-118464286D01*
X171347619Y-118440476D01*
X175016667Y-122128571D02*
X174992857Y-122152381D01*
X174921429Y-122176190D01*
X174873810Y-122176190D01*
X174802381Y-122152381D01*
X174754762Y-122104762D01*
X174730953Y-122057143D01*
X174707143Y-121961905D01*
X174707143Y-121890476D01*
X174730953Y-121795238D01*
X174754762Y-121747619D01*
X174802381Y-121700000D01*
X174873810Y-121676190D01*
X174921429Y-121676190D01*
X174992857Y-121700000D01*
X175016667Y-121723810D01*
X175254762Y-122176190D02*
X175350000Y-122176190D01*
X175397619Y-122152381D01*
X175421429Y-122128571D01*
X175469048Y-122057143D01*
X175492857Y-121961905D01*
X175492857Y-121771429D01*
X175469048Y-121723810D01*
X175445238Y-121700000D01*
X175397619Y-121676190D01*
X175302381Y-121676190D01*
X175254762Y-121700000D01*
X175230953Y-121723810D01*
X175207143Y-121771429D01*
X175207143Y-121890476D01*
X175230953Y-121938095D01*
X175254762Y-121961905D01*
X175302381Y-121985714D01*
X175397619Y-121985714D01*
X175445238Y-121961905D01*
X175469048Y-121938095D01*
X175492857Y-121890476D01*
X176919772Y-131102871D02*
X176895962Y-131126681D01*
X176824534Y-131150490D01*
X176776915Y-131150490D01*
X176705486Y-131126681D01*
X176657867Y-131079062D01*
X176634058Y-131031443D01*
X176610248Y-130936205D01*
X176610248Y-130864776D01*
X176634058Y-130769538D01*
X176657867Y-130721919D01*
X176705486Y-130674300D01*
X176776915Y-130650490D01*
X176824534Y-130650490D01*
X176895962Y-130674300D01*
X176919772Y-130698110D01*
X177395962Y-131150490D02*
X177110248Y-131150490D01*
X177253105Y-131150490D02*
X177253105Y-130650490D01*
X177205486Y-130721919D01*
X177157867Y-130769538D01*
X177110248Y-130793348D01*
X177705486Y-130650490D02*
X177753105Y-130650490D01*
X177800724Y-130674300D01*
X177824533Y-130698110D01*
X177848343Y-130745729D01*
X177872152Y-130840967D01*
X177872152Y-130960014D01*
X177848343Y-131055252D01*
X177824533Y-131102871D01*
X177800724Y-131126681D01*
X177753105Y-131150490D01*
X177705486Y-131150490D01*
X177657867Y-131126681D01*
X177634057Y-131102871D01*
X177610248Y-131055252D01*
X177586438Y-130960014D01*
X177586438Y-130840967D01*
X177610248Y-130745729D01*
X177634057Y-130698110D01*
X177657867Y-130674300D01*
X177705486Y-130650490D01*
X174633772Y-117755171D02*
X174609962Y-117778981D01*
X174538534Y-117802790D01*
X174490915Y-117802790D01*
X174419486Y-117778981D01*
X174371867Y-117731362D01*
X174348058Y-117683743D01*
X174324248Y-117588505D01*
X174324248Y-117517076D01*
X174348058Y-117421838D01*
X174371867Y-117374219D01*
X174419486Y-117326600D01*
X174490915Y-117302790D01*
X174538534Y-117302790D01*
X174609962Y-117326600D01*
X174633772Y-117350410D01*
X175109962Y-117802790D02*
X174824248Y-117802790D01*
X174967105Y-117802790D02*
X174967105Y-117302790D01*
X174919486Y-117374219D01*
X174871867Y-117421838D01*
X174824248Y-117445648D01*
X175586152Y-117802790D02*
X175300438Y-117802790D01*
X175443295Y-117802790D02*
X175443295Y-117302790D01*
X175395676Y-117374219D01*
X175348057Y-117421838D01*
X175300438Y-117445648D01*
X178878571Y-114771428D02*
X178902381Y-114795238D01*
X178926190Y-114866666D01*
X178926190Y-114914285D01*
X178902381Y-114985714D01*
X178854762Y-115033333D01*
X178807143Y-115057142D01*
X178711905Y-115080952D01*
X178640476Y-115080952D01*
X178545238Y-115057142D01*
X178497619Y-115033333D01*
X178450000Y-114985714D01*
X178426190Y-114914285D01*
X178426190Y-114866666D01*
X178450000Y-114795238D01*
X178473810Y-114771428D01*
X178926190Y-114295238D02*
X178926190Y-114580952D01*
X178926190Y-114438095D02*
X178426190Y-114438095D01*
X178497619Y-114485714D01*
X178545238Y-114533333D01*
X178569048Y-114580952D01*
X178473810Y-114104762D02*
X178450000Y-114080952D01*
X178426190Y-114033333D01*
X178426190Y-113914286D01*
X178450000Y-113866667D01*
X178473810Y-113842857D01*
X178521429Y-113819048D01*
X178569048Y-113819048D01*
X178640476Y-113842857D01*
X178926190Y-114128571D01*
X178926190Y-113819048D01*
X180228571Y-114821428D02*
X180252381Y-114845238D01*
X180276190Y-114916666D01*
X180276190Y-114964285D01*
X180252381Y-115035714D01*
X180204762Y-115083333D01*
X180157143Y-115107142D01*
X180061905Y-115130952D01*
X179990476Y-115130952D01*
X179895238Y-115107142D01*
X179847619Y-115083333D01*
X179800000Y-115035714D01*
X179776190Y-114964285D01*
X179776190Y-114916666D01*
X179800000Y-114845238D01*
X179823810Y-114821428D01*
X180276190Y-114345238D02*
X180276190Y-114630952D01*
X180276190Y-114488095D02*
X179776190Y-114488095D01*
X179847619Y-114535714D01*
X179895238Y-114583333D01*
X179919048Y-114630952D01*
X179776190Y-114178571D02*
X179776190Y-113869048D01*
X179966667Y-114035714D01*
X179966667Y-113964286D01*
X179990476Y-113916667D01*
X180014286Y-113892857D01*
X180061905Y-113869048D01*
X180180952Y-113869048D01*
X180228571Y-113892857D01*
X180252381Y-113916667D01*
X180276190Y-113964286D01*
X180276190Y-114107143D01*
X180252381Y-114154762D01*
X180228571Y-114178571D01*
X181636171Y-116506028D02*
X181659981Y-116529838D01*
X181683790Y-116601266D01*
X181683790Y-116648885D01*
X181659981Y-116720314D01*
X181612362Y-116767933D01*
X181564743Y-116791742D01*
X181469505Y-116815552D01*
X181398076Y-116815552D01*
X181302838Y-116791742D01*
X181255219Y-116767933D01*
X181207600Y-116720314D01*
X181183790Y-116648885D01*
X181183790Y-116601266D01*
X181207600Y-116529838D01*
X181231410Y-116506028D01*
X181683790Y-116029838D02*
X181683790Y-116315552D01*
X181683790Y-116172695D02*
X181183790Y-116172695D01*
X181255219Y-116220314D01*
X181302838Y-116267933D01*
X181326648Y-116315552D01*
X181350457Y-115601267D02*
X181683790Y-115601267D01*
X181159981Y-115720314D02*
X181517124Y-115839362D01*
X181517124Y-115529838D01*
X182828571Y-114671428D02*
X182852381Y-114695238D01*
X182876190Y-114766666D01*
X182876190Y-114814285D01*
X182852381Y-114885714D01*
X182804762Y-114933333D01*
X182757143Y-114957142D01*
X182661905Y-114980952D01*
X182590476Y-114980952D01*
X182495238Y-114957142D01*
X182447619Y-114933333D01*
X182400000Y-114885714D01*
X182376190Y-114814285D01*
X182376190Y-114766666D01*
X182400000Y-114695238D01*
X182423810Y-114671428D01*
X182876190Y-114195238D02*
X182876190Y-114480952D01*
X182876190Y-114338095D02*
X182376190Y-114338095D01*
X182447619Y-114385714D01*
X182495238Y-114433333D01*
X182519048Y-114480952D01*
X182376190Y-113742857D02*
X182376190Y-113980952D01*
X182614286Y-114004762D01*
X182590476Y-113980952D01*
X182566667Y-113933333D01*
X182566667Y-113814286D01*
X182590476Y-113766667D01*
X182614286Y-113742857D01*
X182661905Y-113719048D01*
X182780952Y-113719048D01*
X182828571Y-113742857D01*
X182852381Y-113766667D01*
X182876190Y-113814286D01*
X182876190Y-113933333D01*
X182852381Y-113980952D01*
X182828571Y-114004762D01*
X205678571Y-132021428D02*
X205702381Y-132045238D01*
X205726190Y-132116666D01*
X205726190Y-132164285D01*
X205702381Y-132235714D01*
X205654762Y-132283333D01*
X205607143Y-132307142D01*
X205511905Y-132330952D01*
X205440476Y-132330952D01*
X205345238Y-132307142D01*
X205297619Y-132283333D01*
X205250000Y-132235714D01*
X205226190Y-132164285D01*
X205226190Y-132116666D01*
X205250000Y-132045238D01*
X205273810Y-132021428D01*
X205726190Y-131545238D02*
X205726190Y-131830952D01*
X205726190Y-131688095D02*
X205226190Y-131688095D01*
X205297619Y-131735714D01*
X205345238Y-131783333D01*
X205369048Y-131830952D01*
X205226190Y-131116667D02*
X205226190Y-131211905D01*
X205250000Y-131259524D01*
X205273810Y-131283333D01*
X205345238Y-131330952D01*
X205440476Y-131354762D01*
X205630952Y-131354762D01*
X205678571Y-131330952D01*
X205702381Y-131307143D01*
X205726190Y-131259524D01*
X205726190Y-131164286D01*
X205702381Y-131116667D01*
X205678571Y-131092857D01*
X205630952Y-131069048D01*
X205511905Y-131069048D01*
X205464286Y-131092857D01*
X205440476Y-131116667D01*
X205416667Y-131164286D01*
X205416667Y-131259524D01*
X205440476Y-131307143D01*
X205464286Y-131330952D01*
X205511905Y-131354762D01*
X184078571Y-114671428D02*
X184102381Y-114695238D01*
X184126190Y-114766666D01*
X184126190Y-114814285D01*
X184102381Y-114885714D01*
X184054762Y-114933333D01*
X184007143Y-114957142D01*
X183911905Y-114980952D01*
X183840476Y-114980952D01*
X183745238Y-114957142D01*
X183697619Y-114933333D01*
X183650000Y-114885714D01*
X183626190Y-114814285D01*
X183626190Y-114766666D01*
X183650000Y-114695238D01*
X183673810Y-114671428D01*
X184126190Y-114195238D02*
X184126190Y-114480952D01*
X184126190Y-114338095D02*
X183626190Y-114338095D01*
X183697619Y-114385714D01*
X183745238Y-114433333D01*
X183769048Y-114480952D01*
X183626190Y-114028571D02*
X183626190Y-113695238D01*
X184126190Y-113909524D01*
X188328572Y-119228571D02*
X188304762Y-119252381D01*
X188233334Y-119276190D01*
X188185715Y-119276190D01*
X188114286Y-119252381D01*
X188066667Y-119204762D01*
X188042858Y-119157143D01*
X188019048Y-119061905D01*
X188019048Y-118990476D01*
X188042858Y-118895238D01*
X188066667Y-118847619D01*
X188114286Y-118800000D01*
X188185715Y-118776190D01*
X188233334Y-118776190D01*
X188304762Y-118800000D01*
X188328572Y-118823810D01*
X188804762Y-119276190D02*
X188519048Y-119276190D01*
X188661905Y-119276190D02*
X188661905Y-118776190D01*
X188614286Y-118847619D01*
X188566667Y-118895238D01*
X188519048Y-118919048D01*
X189090476Y-118990476D02*
X189042857Y-118966667D01*
X189019048Y-118942857D01*
X188995238Y-118895238D01*
X188995238Y-118871429D01*
X189019048Y-118823810D01*
X189042857Y-118800000D01*
X189090476Y-118776190D01*
X189185714Y-118776190D01*
X189233333Y-118800000D01*
X189257143Y-118823810D01*
X189280952Y-118871429D01*
X189280952Y-118895238D01*
X189257143Y-118942857D01*
X189233333Y-118966667D01*
X189185714Y-118990476D01*
X189090476Y-118990476D01*
X189042857Y-119014286D01*
X189019048Y-119038095D01*
X188995238Y-119085714D01*
X188995238Y-119180952D01*
X189019048Y-119228571D01*
X189042857Y-119252381D01*
X189090476Y-119276190D01*
X189185714Y-119276190D01*
X189233333Y-119252381D01*
X189257143Y-119228571D01*
X189280952Y-119180952D01*
X189280952Y-119085714D01*
X189257143Y-119038095D01*
X189233333Y-119014286D01*
X189185714Y-118990476D01*
X192028571Y-116971428D02*
X192052381Y-116995238D01*
X192076190Y-117066666D01*
X192076190Y-117114285D01*
X192052381Y-117185714D01*
X192004762Y-117233333D01*
X191957143Y-117257142D01*
X191861905Y-117280952D01*
X191790476Y-117280952D01*
X191695238Y-117257142D01*
X191647619Y-117233333D01*
X191600000Y-117185714D01*
X191576190Y-117114285D01*
X191576190Y-117066666D01*
X191600000Y-116995238D01*
X191623810Y-116971428D01*
X192076190Y-116495238D02*
X192076190Y-116780952D01*
X192076190Y-116638095D02*
X191576190Y-116638095D01*
X191647619Y-116685714D01*
X191695238Y-116733333D01*
X191719048Y-116780952D01*
X192076190Y-116257143D02*
X192076190Y-116161905D01*
X192052381Y-116114286D01*
X192028571Y-116090476D01*
X191957143Y-116042857D01*
X191861905Y-116019048D01*
X191671429Y-116019048D01*
X191623810Y-116042857D01*
X191600000Y-116066667D01*
X191576190Y-116114286D01*
X191576190Y-116209524D01*
X191600000Y-116257143D01*
X191623810Y-116280952D01*
X191671429Y-116304762D01*
X191790476Y-116304762D01*
X191838095Y-116280952D01*
X191861905Y-116257143D01*
X191885714Y-116209524D01*
X191885714Y-116114286D01*
X191861905Y-116066667D01*
X191838095Y-116042857D01*
X191790476Y-116019048D01*
X186178572Y-126678571D02*
X186154762Y-126702381D01*
X186083334Y-126726190D01*
X186035715Y-126726190D01*
X185964286Y-126702381D01*
X185916667Y-126654762D01*
X185892858Y-126607143D01*
X185869048Y-126511905D01*
X185869048Y-126440476D01*
X185892858Y-126345238D01*
X185916667Y-126297619D01*
X185964286Y-126250000D01*
X186035715Y-126226190D01*
X186083334Y-126226190D01*
X186154762Y-126250000D01*
X186178572Y-126273810D01*
X186369048Y-126273810D02*
X186392858Y-126250000D01*
X186440477Y-126226190D01*
X186559524Y-126226190D01*
X186607143Y-126250000D01*
X186630953Y-126273810D01*
X186654762Y-126321429D01*
X186654762Y-126369048D01*
X186630953Y-126440476D01*
X186345239Y-126726190D01*
X186654762Y-126726190D01*
X186964286Y-126226190D02*
X187011905Y-126226190D01*
X187059524Y-126250000D01*
X187083333Y-126273810D01*
X187107143Y-126321429D01*
X187130952Y-126416667D01*
X187130952Y-126535714D01*
X187107143Y-126630952D01*
X187083333Y-126678571D01*
X187059524Y-126702381D01*
X187011905Y-126726190D01*
X186964286Y-126726190D01*
X186916667Y-126702381D01*
X186892857Y-126678571D01*
X186869048Y-126630952D01*
X186845238Y-126535714D01*
X186845238Y-126416667D01*
X186869048Y-126321429D01*
X186892857Y-126273810D01*
X186916667Y-126250000D01*
X186964286Y-126226190D01*
X194178571Y-133921428D02*
X194202381Y-133945238D01*
X194226190Y-134016666D01*
X194226190Y-134064285D01*
X194202381Y-134135714D01*
X194154762Y-134183333D01*
X194107143Y-134207142D01*
X194011905Y-134230952D01*
X193940476Y-134230952D01*
X193845238Y-134207142D01*
X193797619Y-134183333D01*
X193750000Y-134135714D01*
X193726190Y-134064285D01*
X193726190Y-134016666D01*
X193750000Y-133945238D01*
X193773810Y-133921428D01*
X193773810Y-133730952D02*
X193750000Y-133707142D01*
X193726190Y-133659523D01*
X193726190Y-133540476D01*
X193750000Y-133492857D01*
X193773810Y-133469047D01*
X193821429Y-133445238D01*
X193869048Y-133445238D01*
X193940476Y-133469047D01*
X194226190Y-133754761D01*
X194226190Y-133445238D01*
X194226190Y-132969048D02*
X194226190Y-133254762D01*
X194226190Y-133111905D02*
X193726190Y-133111905D01*
X193797619Y-133159524D01*
X193845238Y-133207143D01*
X193869048Y-133254762D01*
X188128572Y-124678571D02*
X188104762Y-124702381D01*
X188033334Y-124726190D01*
X187985715Y-124726190D01*
X187914286Y-124702381D01*
X187866667Y-124654762D01*
X187842858Y-124607143D01*
X187819048Y-124511905D01*
X187819048Y-124440476D01*
X187842858Y-124345238D01*
X187866667Y-124297619D01*
X187914286Y-124250000D01*
X187985715Y-124226190D01*
X188033334Y-124226190D01*
X188104762Y-124250000D01*
X188128572Y-124273810D01*
X188319048Y-124273810D02*
X188342858Y-124250000D01*
X188390477Y-124226190D01*
X188509524Y-124226190D01*
X188557143Y-124250000D01*
X188580953Y-124273810D01*
X188604762Y-124321429D01*
X188604762Y-124369048D01*
X188580953Y-124440476D01*
X188295239Y-124726190D01*
X188604762Y-124726190D01*
X188795238Y-124273810D02*
X188819048Y-124250000D01*
X188866667Y-124226190D01*
X188985714Y-124226190D01*
X189033333Y-124250000D01*
X189057143Y-124273810D01*
X189080952Y-124321429D01*
X189080952Y-124369048D01*
X189057143Y-124440476D01*
X188771429Y-124726190D01*
X189080952Y-124726190D01*
X204178571Y-132021428D02*
X204202381Y-132045238D01*
X204226190Y-132116666D01*
X204226190Y-132164285D01*
X204202381Y-132235714D01*
X204154762Y-132283333D01*
X204107143Y-132307142D01*
X204011905Y-132330952D01*
X203940476Y-132330952D01*
X203845238Y-132307142D01*
X203797619Y-132283333D01*
X203750000Y-132235714D01*
X203726190Y-132164285D01*
X203726190Y-132116666D01*
X203750000Y-132045238D01*
X203773810Y-132021428D01*
X203773810Y-131830952D02*
X203750000Y-131807142D01*
X203726190Y-131759523D01*
X203726190Y-131640476D01*
X203750000Y-131592857D01*
X203773810Y-131569047D01*
X203821429Y-131545238D01*
X203869048Y-131545238D01*
X203940476Y-131569047D01*
X204226190Y-131854761D01*
X204226190Y-131545238D01*
X203726190Y-131378571D02*
X203726190Y-131069048D01*
X203916667Y-131235714D01*
X203916667Y-131164286D01*
X203940476Y-131116667D01*
X203964286Y-131092857D01*
X204011905Y-131069048D01*
X204130952Y-131069048D01*
X204178571Y-131092857D01*
X204202381Y-131116667D01*
X204226190Y-131164286D01*
X204226190Y-131307143D01*
X204202381Y-131354762D01*
X204178571Y-131378571D01*
X192718572Y-129266571D02*
X192694762Y-129290381D01*
X192623334Y-129314190D01*
X192575715Y-129314190D01*
X192504286Y-129290381D01*
X192456667Y-129242762D01*
X192432858Y-129195143D01*
X192409048Y-129099905D01*
X192409048Y-129028476D01*
X192432858Y-128933238D01*
X192456667Y-128885619D01*
X192504286Y-128838000D01*
X192575715Y-128814190D01*
X192623334Y-128814190D01*
X192694762Y-128838000D01*
X192718572Y-128861810D01*
X192909048Y-128861810D02*
X192932858Y-128838000D01*
X192980477Y-128814190D01*
X193099524Y-128814190D01*
X193147143Y-128838000D01*
X193170953Y-128861810D01*
X193194762Y-128909429D01*
X193194762Y-128957048D01*
X193170953Y-129028476D01*
X192885239Y-129314190D01*
X193194762Y-129314190D01*
X193623333Y-128980857D02*
X193623333Y-129314190D01*
X193504286Y-128790381D02*
X193385238Y-129147524D01*
X193694762Y-129147524D01*
X206178571Y-119371428D02*
X206202381Y-119395238D01*
X206226190Y-119466666D01*
X206226190Y-119514285D01*
X206202381Y-119585714D01*
X206154762Y-119633333D01*
X206107143Y-119657142D01*
X206011905Y-119680952D01*
X205940476Y-119680952D01*
X205845238Y-119657142D01*
X205797619Y-119633333D01*
X205750000Y-119585714D01*
X205726190Y-119514285D01*
X205726190Y-119466666D01*
X205750000Y-119395238D01*
X205773810Y-119371428D01*
X205773810Y-119180952D02*
X205750000Y-119157142D01*
X205726190Y-119109523D01*
X205726190Y-118990476D01*
X205750000Y-118942857D01*
X205773810Y-118919047D01*
X205821429Y-118895238D01*
X205869048Y-118895238D01*
X205940476Y-118919047D01*
X206226190Y-119204761D01*
X206226190Y-118895238D01*
X205726190Y-118442857D02*
X205726190Y-118680952D01*
X205964286Y-118704762D01*
X205940476Y-118680952D01*
X205916667Y-118633333D01*
X205916667Y-118514286D01*
X205940476Y-118466667D01*
X205964286Y-118442857D01*
X206011905Y-118419048D01*
X206130952Y-118419048D01*
X206178571Y-118442857D01*
X206202381Y-118466667D01*
X206226190Y-118514286D01*
X206226190Y-118633333D01*
X206202381Y-118680952D01*
X206178571Y-118704762D01*
X195678571Y-118621428D02*
X195702381Y-118645238D01*
X195726190Y-118716666D01*
X195726190Y-118764285D01*
X195702381Y-118835714D01*
X195654762Y-118883333D01*
X195607143Y-118907142D01*
X195511905Y-118930952D01*
X195440476Y-118930952D01*
X195345238Y-118907142D01*
X195297619Y-118883333D01*
X195250000Y-118835714D01*
X195226190Y-118764285D01*
X195226190Y-118716666D01*
X195250000Y-118645238D01*
X195273810Y-118621428D01*
X195273810Y-118430952D02*
X195250000Y-118407142D01*
X195226190Y-118359523D01*
X195226190Y-118240476D01*
X195250000Y-118192857D01*
X195273810Y-118169047D01*
X195321429Y-118145238D01*
X195369048Y-118145238D01*
X195440476Y-118169047D01*
X195726190Y-118454761D01*
X195726190Y-118145238D01*
X195226190Y-117716667D02*
X195226190Y-117811905D01*
X195250000Y-117859524D01*
X195273810Y-117883333D01*
X195345238Y-117930952D01*
X195440476Y-117954762D01*
X195630952Y-117954762D01*
X195678571Y-117930952D01*
X195702381Y-117907143D01*
X195726190Y-117859524D01*
X195726190Y-117764286D01*
X195702381Y-117716667D01*
X195678571Y-117692857D01*
X195630952Y-117669048D01*
X195511905Y-117669048D01*
X195464286Y-117692857D01*
X195440476Y-117716667D01*
X195416667Y-117764286D01*
X195416667Y-117859524D01*
X195440476Y-117907143D01*
X195464286Y-117930952D01*
X195511905Y-117954762D01*
X213830953Y-114026190D02*
X213830953Y-113526190D01*
X213950000Y-113526190D01*
X214021429Y-113550000D01*
X214069048Y-113597619D01*
X214092857Y-113645238D01*
X214116667Y-113740476D01*
X214116667Y-113811905D01*
X214092857Y-113907143D01*
X214069048Y-113954762D01*
X214021429Y-114002381D01*
X213950000Y-114026190D01*
X213830953Y-114026190D01*
X214592857Y-114026190D02*
X214307143Y-114026190D01*
X214450000Y-114026190D02*
X214450000Y-113526190D01*
X214402381Y-113597619D01*
X214354762Y-113645238D01*
X214307143Y-113669048D01*
X211330953Y-112826190D02*
X211330953Y-112326190D01*
X211450000Y-112326190D01*
X211521429Y-112350000D01*
X211569048Y-112397619D01*
X211592857Y-112445238D01*
X211616667Y-112540476D01*
X211616667Y-112611905D01*
X211592857Y-112707143D01*
X211569048Y-112754762D01*
X211521429Y-112802381D01*
X211450000Y-112826190D01*
X211330953Y-112826190D01*
X211807143Y-112373810D02*
X211830953Y-112350000D01*
X211878572Y-112326190D01*
X211997619Y-112326190D01*
X212045238Y-112350000D01*
X212069048Y-112373810D01*
X212092857Y-112421429D01*
X212092857Y-112469048D01*
X212069048Y-112540476D01*
X211783334Y-112826190D01*
X212092857Y-112826190D01*
X211330953Y-115226190D02*
X211330953Y-114726190D01*
X211450000Y-114726190D01*
X211521429Y-114750000D01*
X211569048Y-114797619D01*
X211592857Y-114845238D01*
X211616667Y-114940476D01*
X211616667Y-115011905D01*
X211592857Y-115107143D01*
X211569048Y-115154762D01*
X211521429Y-115202381D01*
X211450000Y-115226190D01*
X211330953Y-115226190D01*
X211783334Y-114726190D02*
X212092857Y-114726190D01*
X211926191Y-114916667D01*
X211997619Y-114916667D01*
X212045238Y-114940476D01*
X212069048Y-114964286D01*
X212092857Y-115011905D01*
X212092857Y-115130952D01*
X212069048Y-115178571D01*
X212045238Y-115202381D01*
X211997619Y-115226190D01*
X211854762Y-115226190D01*
X211807143Y-115202381D01*
X211783334Y-115178571D01*
X213830953Y-116426190D02*
X213830953Y-115926190D01*
X213950000Y-115926190D01*
X214021429Y-115950000D01*
X214069048Y-115997619D01*
X214092857Y-116045238D01*
X214116667Y-116140476D01*
X214116667Y-116211905D01*
X214092857Y-116307143D01*
X214069048Y-116354762D01*
X214021429Y-116402381D01*
X213950000Y-116426190D01*
X213830953Y-116426190D01*
X214545238Y-116092857D02*
X214545238Y-116426190D01*
X214426191Y-115902381D02*
X214307143Y-116259524D01*
X214616667Y-116259524D01*
X211330953Y-117626190D02*
X211330953Y-117126190D01*
X211450000Y-117126190D01*
X211521429Y-117150000D01*
X211569048Y-117197619D01*
X211592857Y-117245238D01*
X211616667Y-117340476D01*
X211616667Y-117411905D01*
X211592857Y-117507143D01*
X211569048Y-117554762D01*
X211521429Y-117602381D01*
X211450000Y-117626190D01*
X211330953Y-117626190D01*
X212069048Y-117126190D02*
X211830953Y-117126190D01*
X211807143Y-117364286D01*
X211830953Y-117340476D01*
X211878572Y-117316667D01*
X211997619Y-117316667D01*
X212045238Y-117340476D01*
X212069048Y-117364286D01*
X212092857Y-117411905D01*
X212092857Y-117530952D01*
X212069048Y-117578571D01*
X212045238Y-117602381D01*
X211997619Y-117626190D01*
X211878572Y-117626190D01*
X211830953Y-117602381D01*
X211807143Y-117578571D01*
X213830953Y-118826190D02*
X213830953Y-118326190D01*
X213950000Y-118326190D01*
X214021429Y-118350000D01*
X214069048Y-118397619D01*
X214092857Y-118445238D01*
X214116667Y-118540476D01*
X214116667Y-118611905D01*
X214092857Y-118707143D01*
X214069048Y-118754762D01*
X214021429Y-118802381D01*
X213950000Y-118826190D01*
X213830953Y-118826190D01*
X214545238Y-118326190D02*
X214450000Y-118326190D01*
X214402381Y-118350000D01*
X214378572Y-118373810D01*
X214330953Y-118445238D01*
X214307143Y-118540476D01*
X214307143Y-118730952D01*
X214330953Y-118778571D01*
X214354762Y-118802381D01*
X214402381Y-118826190D01*
X214497619Y-118826190D01*
X214545238Y-118802381D01*
X214569048Y-118778571D01*
X214592857Y-118730952D01*
X214592857Y-118611905D01*
X214569048Y-118564286D01*
X214545238Y-118540476D01*
X214497619Y-118516667D01*
X214402381Y-118516667D01*
X214354762Y-118540476D01*
X214330953Y-118564286D01*
X214307143Y-118611905D01*
X211330953Y-120026190D02*
X211330953Y-119526190D01*
X211450000Y-119526190D01*
X211521429Y-119550000D01*
X211569048Y-119597619D01*
X211592857Y-119645238D01*
X211616667Y-119740476D01*
X211616667Y-119811905D01*
X211592857Y-119907143D01*
X211569048Y-119954762D01*
X211521429Y-120002381D01*
X211450000Y-120026190D01*
X211330953Y-120026190D01*
X211783334Y-119526190D02*
X212116667Y-119526190D01*
X211902381Y-120026190D01*
X167620167Y-122984390D02*
X167382072Y-122984390D01*
X167382072Y-122484390D01*
X168048738Y-122984390D02*
X167763024Y-122984390D01*
X167905881Y-122984390D02*
X167905881Y-122484390D01*
X167858262Y-122555819D01*
X167810643Y-122603438D01*
X167763024Y-122627248D01*
X169343467Y-123092990D02*
X169105372Y-123092990D01*
X169105372Y-122592990D01*
X169486324Y-122640610D02*
X169510134Y-122616800D01*
X169557753Y-122592990D01*
X169676800Y-122592990D01*
X169724419Y-122616800D01*
X169748229Y-122640610D01*
X169772038Y-122688229D01*
X169772038Y-122735848D01*
X169748229Y-122807276D01*
X169462515Y-123092990D01*
X169772038Y-123092990D01*
X171166667Y-122576190D02*
X170928572Y-122576190D01*
X170928572Y-122076190D01*
X171285715Y-122076190D02*
X171595238Y-122076190D01*
X171428572Y-122266667D01*
X171500000Y-122266667D01*
X171547619Y-122290476D01*
X171571429Y-122314286D01*
X171595238Y-122361905D01*
X171595238Y-122480952D01*
X171571429Y-122528571D01*
X171547619Y-122552381D01*
X171500000Y-122576190D01*
X171357143Y-122576190D01*
X171309524Y-122552381D01*
X171285715Y-122528571D01*
X173866667Y-126326190D02*
X173628572Y-126326190D01*
X173628572Y-125826190D01*
X174247619Y-125992857D02*
X174247619Y-126326190D01*
X174128572Y-125802381D02*
X174009524Y-126159524D01*
X174319048Y-126159524D01*
X160230953Y-119426190D02*
X160230953Y-118926190D01*
X160421429Y-118926190D01*
X160469048Y-118950000D01*
X160492857Y-118973810D01*
X160516667Y-119021429D01*
X160516667Y-119092857D01*
X160492857Y-119140476D01*
X160469048Y-119164286D01*
X160421429Y-119188095D01*
X160230953Y-119188095D01*
X160683334Y-118926190D02*
X160992857Y-118926190D01*
X160826191Y-119116667D01*
X160897619Y-119116667D01*
X160945238Y-119140476D01*
X160969048Y-119164286D01*
X160992857Y-119211905D01*
X160992857Y-119330952D01*
X160969048Y-119378571D01*
X160945238Y-119402381D01*
X160897619Y-119426190D01*
X160754762Y-119426190D01*
X160707143Y-119402381D01*
X160683334Y-119378571D01*
X192966667Y-125276190D02*
X192800000Y-125038095D01*
X192680953Y-125276190D02*
X192680953Y-124776190D01*
X192871429Y-124776190D01*
X192919048Y-124800000D01*
X192942857Y-124823810D01*
X192966667Y-124871429D01*
X192966667Y-124942857D01*
X192942857Y-124990476D01*
X192919048Y-125014286D01*
X192871429Y-125038095D01*
X192680953Y-125038095D01*
X193442857Y-125276190D02*
X193157143Y-125276190D01*
X193300000Y-125276190D02*
X193300000Y-124776190D01*
X193252381Y-124847619D01*
X193204762Y-124895238D01*
X193157143Y-124919048D01*
X173893967Y-129359790D02*
X173727300Y-129121695D01*
X173608253Y-129359790D02*
X173608253Y-128859790D01*
X173798729Y-128859790D01*
X173846348Y-128883600D01*
X173870157Y-128907410D01*
X173893967Y-128955029D01*
X173893967Y-129026457D01*
X173870157Y-129074076D01*
X173846348Y-129097886D01*
X173798729Y-129121695D01*
X173608253Y-129121695D01*
X174084443Y-128907410D02*
X174108253Y-128883600D01*
X174155872Y-128859790D01*
X174274919Y-128859790D01*
X174322538Y-128883600D01*
X174346348Y-128907410D01*
X174370157Y-128955029D01*
X174370157Y-129002648D01*
X174346348Y-129074076D01*
X174060634Y-129359790D01*
X174370157Y-129359790D01*
X177226090Y-118206033D02*
X176987995Y-118372700D01*
X177226090Y-118491747D02*
X176726090Y-118491747D01*
X176726090Y-118301271D01*
X176749900Y-118253652D01*
X176773710Y-118229843D01*
X176821329Y-118206033D01*
X176892757Y-118206033D01*
X176940376Y-118229843D01*
X176964186Y-118253652D01*
X176987995Y-118301271D01*
X176987995Y-118491747D01*
X176726090Y-117753652D02*
X176726090Y-117991747D01*
X176964186Y-118015557D01*
X176940376Y-117991747D01*
X176916567Y-117944128D01*
X176916567Y-117825081D01*
X176940376Y-117777462D01*
X176964186Y-117753652D01*
X177011805Y-117729843D01*
X177130852Y-117729843D01*
X177178471Y-117753652D01*
X177202281Y-117777462D01*
X177226090Y-117825081D01*
X177226090Y-117944128D01*
X177202281Y-117991747D01*
X177178471Y-118015557D01*
X178013490Y-118206033D02*
X177775395Y-118372700D01*
X178013490Y-118491747D02*
X177513490Y-118491747D01*
X177513490Y-118301271D01*
X177537300Y-118253652D01*
X177561110Y-118229843D01*
X177608729Y-118206033D01*
X177680157Y-118206033D01*
X177727776Y-118229843D01*
X177751586Y-118253652D01*
X177775395Y-118301271D01*
X177775395Y-118491747D01*
X177513490Y-117777462D02*
X177513490Y-117872700D01*
X177537300Y-117920319D01*
X177561110Y-117944128D01*
X177632538Y-117991747D01*
X177727776Y-118015557D01*
X177918252Y-118015557D01*
X177965871Y-117991747D01*
X177989681Y-117967938D01*
X178013490Y-117920319D01*
X178013490Y-117825081D01*
X177989681Y-117777462D01*
X177965871Y-117753652D01*
X177918252Y-117729843D01*
X177799205Y-117729843D01*
X177751586Y-117753652D01*
X177727776Y-117777462D01*
X177703967Y-117825081D01*
X177703967Y-117920319D01*
X177727776Y-117967938D01*
X177751586Y-117991747D01*
X177799205Y-118015557D01*
X207426190Y-131983333D02*
X207188095Y-132150000D01*
X207426190Y-132269047D02*
X206926190Y-132269047D01*
X206926190Y-132078571D01*
X206950000Y-132030952D01*
X206973810Y-132007143D01*
X207021429Y-131983333D01*
X207092857Y-131983333D01*
X207140476Y-132007143D01*
X207164286Y-132030952D01*
X207188095Y-132078571D01*
X207188095Y-132269047D01*
X206926190Y-131816666D02*
X206926190Y-131483333D01*
X207426190Y-131697619D01*
X188316667Y-120576190D02*
X188150000Y-120338095D01*
X188030953Y-120576190D02*
X188030953Y-120076190D01*
X188221429Y-120076190D01*
X188269048Y-120100000D01*
X188292857Y-120123810D01*
X188316667Y-120171429D01*
X188316667Y-120242857D01*
X188292857Y-120290476D01*
X188269048Y-120314286D01*
X188221429Y-120338095D01*
X188030953Y-120338095D01*
X188602381Y-120290476D02*
X188554762Y-120266667D01*
X188530953Y-120242857D01*
X188507143Y-120195238D01*
X188507143Y-120171429D01*
X188530953Y-120123810D01*
X188554762Y-120100000D01*
X188602381Y-120076190D01*
X188697619Y-120076190D01*
X188745238Y-120100000D01*
X188769048Y-120123810D01*
X188792857Y-120171429D01*
X188792857Y-120195238D01*
X188769048Y-120242857D01*
X188745238Y-120266667D01*
X188697619Y-120290476D01*
X188602381Y-120290476D01*
X188554762Y-120314286D01*
X188530953Y-120338095D01*
X188507143Y-120385714D01*
X188507143Y-120480952D01*
X188530953Y-120528571D01*
X188554762Y-120552381D01*
X188602381Y-120576190D01*
X188697619Y-120576190D01*
X188745238Y-120552381D01*
X188769048Y-120528571D01*
X188792857Y-120480952D01*
X188792857Y-120385714D01*
X188769048Y-120338095D01*
X188745238Y-120314286D01*
X188697619Y-120290476D01*
X188416667Y-121826190D02*
X188250000Y-121588095D01*
X188130953Y-121826190D02*
X188130953Y-121326190D01*
X188321429Y-121326190D01*
X188369048Y-121350000D01*
X188392857Y-121373810D01*
X188416667Y-121421429D01*
X188416667Y-121492857D01*
X188392857Y-121540476D01*
X188369048Y-121564286D01*
X188321429Y-121588095D01*
X188130953Y-121588095D01*
X188654762Y-121826190D02*
X188750000Y-121826190D01*
X188797619Y-121802381D01*
X188821429Y-121778571D01*
X188869048Y-121707143D01*
X188892857Y-121611905D01*
X188892857Y-121421429D01*
X188869048Y-121373810D01*
X188845238Y-121350000D01*
X188797619Y-121326190D01*
X188702381Y-121326190D01*
X188654762Y-121350000D01*
X188630953Y-121373810D01*
X188607143Y-121421429D01*
X188607143Y-121540476D01*
X188630953Y-121588095D01*
X188654762Y-121611905D01*
X188702381Y-121635714D01*
X188797619Y-121635714D01*
X188845238Y-121611905D01*
X188869048Y-121588095D01*
X188892857Y-121540476D01*
X188328572Y-123126190D02*
X188161905Y-122888095D01*
X188042858Y-123126190D02*
X188042858Y-122626190D01*
X188233334Y-122626190D01*
X188280953Y-122650000D01*
X188304762Y-122673810D01*
X188328572Y-122721429D01*
X188328572Y-122792857D01*
X188304762Y-122840476D01*
X188280953Y-122864286D01*
X188233334Y-122888095D01*
X188042858Y-122888095D01*
X188804762Y-123126190D02*
X188519048Y-123126190D01*
X188661905Y-123126190D02*
X188661905Y-122626190D01*
X188614286Y-122697619D01*
X188566667Y-122745238D01*
X188519048Y-122769048D01*
X189114286Y-122626190D02*
X189161905Y-122626190D01*
X189209524Y-122650000D01*
X189233333Y-122673810D01*
X189257143Y-122721429D01*
X189280952Y-122816667D01*
X189280952Y-122935714D01*
X189257143Y-123030952D01*
X189233333Y-123078571D01*
X189209524Y-123102381D01*
X189161905Y-123126190D01*
X189114286Y-123126190D01*
X189066667Y-123102381D01*
X189042857Y-123078571D01*
X189019048Y-123030952D01*
X188995238Y-122935714D01*
X188995238Y-122816667D01*
X189019048Y-122721429D01*
X189042857Y-122673810D01*
X189066667Y-122650000D01*
X189114286Y-122626190D01*
X208328572Y-112876190D02*
X208161905Y-112638095D01*
X208042858Y-112876190D02*
X208042858Y-112376190D01*
X208233334Y-112376190D01*
X208280953Y-112400000D01*
X208304762Y-112423810D01*
X208328572Y-112471429D01*
X208328572Y-112542857D01*
X208304762Y-112590476D01*
X208280953Y-112614286D01*
X208233334Y-112638095D01*
X208042858Y-112638095D01*
X208804762Y-112876190D02*
X208519048Y-112876190D01*
X208661905Y-112876190D02*
X208661905Y-112376190D01*
X208614286Y-112447619D01*
X208566667Y-112495238D01*
X208519048Y-112519048D01*
X209280952Y-112876190D02*
X208995238Y-112876190D01*
X209138095Y-112876190D02*
X209138095Y-112376190D01*
X209090476Y-112447619D01*
X209042857Y-112495238D01*
X208995238Y-112519048D01*
X208328572Y-115226190D02*
X208161905Y-114988095D01*
X208042858Y-115226190D02*
X208042858Y-114726190D01*
X208233334Y-114726190D01*
X208280953Y-114750000D01*
X208304762Y-114773810D01*
X208328572Y-114821429D01*
X208328572Y-114892857D01*
X208304762Y-114940476D01*
X208280953Y-114964286D01*
X208233334Y-114988095D01*
X208042858Y-114988095D01*
X208804762Y-115226190D02*
X208519048Y-115226190D01*
X208661905Y-115226190D02*
X208661905Y-114726190D01*
X208614286Y-114797619D01*
X208566667Y-114845238D01*
X208519048Y-114869048D01*
X208995238Y-114773810D02*
X209019048Y-114750000D01*
X209066667Y-114726190D01*
X209185714Y-114726190D01*
X209233333Y-114750000D01*
X209257143Y-114773810D01*
X209280952Y-114821429D01*
X209280952Y-114869048D01*
X209257143Y-114940476D01*
X208971429Y-115226190D01*
X209280952Y-115226190D01*
X208378572Y-116376190D02*
X208211905Y-116138095D01*
X208092858Y-116376190D02*
X208092858Y-115876190D01*
X208283334Y-115876190D01*
X208330953Y-115900000D01*
X208354762Y-115923810D01*
X208378572Y-115971429D01*
X208378572Y-116042857D01*
X208354762Y-116090476D01*
X208330953Y-116114286D01*
X208283334Y-116138095D01*
X208092858Y-116138095D01*
X208854762Y-116376190D02*
X208569048Y-116376190D01*
X208711905Y-116376190D02*
X208711905Y-115876190D01*
X208664286Y-115947619D01*
X208616667Y-115995238D01*
X208569048Y-116019048D01*
X209021429Y-115876190D02*
X209330952Y-115876190D01*
X209164286Y-116066667D01*
X209235714Y-116066667D01*
X209283333Y-116090476D01*
X209307143Y-116114286D01*
X209330952Y-116161905D01*
X209330952Y-116280952D01*
X209307143Y-116328571D01*
X209283333Y-116352381D01*
X209235714Y-116376190D01*
X209092857Y-116376190D01*
X209045238Y-116352381D01*
X209021429Y-116328571D01*
X208328572Y-117626190D02*
X208161905Y-117388095D01*
X208042858Y-117626190D02*
X208042858Y-117126190D01*
X208233334Y-117126190D01*
X208280953Y-117150000D01*
X208304762Y-117173810D01*
X208328572Y-117221429D01*
X208328572Y-117292857D01*
X208304762Y-117340476D01*
X208280953Y-117364286D01*
X208233334Y-117388095D01*
X208042858Y-117388095D01*
X208804762Y-117626190D02*
X208519048Y-117626190D01*
X208661905Y-117626190D02*
X208661905Y-117126190D01*
X208614286Y-117197619D01*
X208566667Y-117245238D01*
X208519048Y-117269048D01*
X209233333Y-117292857D02*
X209233333Y-117626190D01*
X209114286Y-117102381D02*
X208995238Y-117459524D01*
X209304762Y-117459524D01*
X208278572Y-118826190D02*
X208111905Y-118588095D01*
X207992858Y-118826190D02*
X207992858Y-118326190D01*
X208183334Y-118326190D01*
X208230953Y-118350000D01*
X208254762Y-118373810D01*
X208278572Y-118421429D01*
X208278572Y-118492857D01*
X208254762Y-118540476D01*
X208230953Y-118564286D01*
X208183334Y-118588095D01*
X207992858Y-118588095D01*
X208754762Y-118826190D02*
X208469048Y-118826190D01*
X208611905Y-118826190D02*
X208611905Y-118326190D01*
X208564286Y-118397619D01*
X208516667Y-118445238D01*
X208469048Y-118469048D01*
X209207143Y-118326190D02*
X208969048Y-118326190D01*
X208945238Y-118564286D01*
X208969048Y-118540476D01*
X209016667Y-118516667D01*
X209135714Y-118516667D01*
X209183333Y-118540476D01*
X209207143Y-118564286D01*
X209230952Y-118611905D01*
X209230952Y-118730952D01*
X209207143Y-118778571D01*
X209183333Y-118802381D01*
X209135714Y-118826190D01*
X209016667Y-118826190D01*
X208969048Y-118802381D01*
X208945238Y-118778571D01*
X208278572Y-120026190D02*
X208111905Y-119788095D01*
X207992858Y-120026190D02*
X207992858Y-119526190D01*
X208183334Y-119526190D01*
X208230953Y-119550000D01*
X208254762Y-119573810D01*
X208278572Y-119621429D01*
X208278572Y-119692857D01*
X208254762Y-119740476D01*
X208230953Y-119764286D01*
X208183334Y-119788095D01*
X207992858Y-119788095D01*
X208754762Y-120026190D02*
X208469048Y-120026190D01*
X208611905Y-120026190D02*
X208611905Y-119526190D01*
X208564286Y-119597619D01*
X208516667Y-119645238D01*
X208469048Y-119669048D01*
X209183333Y-119526190D02*
X209088095Y-119526190D01*
X209040476Y-119550000D01*
X209016667Y-119573810D01*
X208969048Y-119645238D01*
X208945238Y-119740476D01*
X208945238Y-119930952D01*
X208969048Y-119978571D01*
X208992857Y-120002381D01*
X209040476Y-120026190D01*
X209135714Y-120026190D01*
X209183333Y-120002381D01*
X209207143Y-119978571D01*
X209230952Y-119930952D01*
X209230952Y-119811905D01*
X209207143Y-119764286D01*
X209183333Y-119740476D01*
X209135714Y-119716667D01*
X209040476Y-119716667D01*
X208992857Y-119740476D01*
X208969048Y-119764286D01*
X208945238Y-119811905D01*
X208278572Y-121226190D02*
X208111905Y-120988095D01*
X207992858Y-121226190D02*
X207992858Y-120726190D01*
X208183334Y-120726190D01*
X208230953Y-120750000D01*
X208254762Y-120773810D01*
X208278572Y-120821429D01*
X208278572Y-120892857D01*
X208254762Y-120940476D01*
X208230953Y-120964286D01*
X208183334Y-120988095D01*
X207992858Y-120988095D01*
X208754762Y-121226190D02*
X208469048Y-121226190D01*
X208611905Y-121226190D02*
X208611905Y-120726190D01*
X208564286Y-120797619D01*
X208516667Y-120845238D01*
X208469048Y-120869048D01*
X208921429Y-120726190D02*
X209254762Y-120726190D01*
X209040476Y-121226190D01*
X208328572Y-114026190D02*
X208161905Y-113788095D01*
X208042858Y-114026190D02*
X208042858Y-113526190D01*
X208233334Y-113526190D01*
X208280953Y-113550000D01*
X208304762Y-113573810D01*
X208328572Y-113621429D01*
X208328572Y-113692857D01*
X208304762Y-113740476D01*
X208280953Y-113764286D01*
X208233334Y-113788095D01*
X208042858Y-113788095D01*
X208804762Y-114026190D02*
X208519048Y-114026190D01*
X208661905Y-114026190D02*
X208661905Y-113526190D01*
X208614286Y-113597619D01*
X208566667Y-113645238D01*
X208519048Y-113669048D01*
X209090476Y-113740476D02*
X209042857Y-113716667D01*
X209019048Y-113692857D01*
X208995238Y-113645238D01*
X208995238Y-113621429D01*
X209019048Y-113573810D01*
X209042857Y-113550000D01*
X209090476Y-113526190D01*
X209185714Y-113526190D01*
X209233333Y-113550000D01*
X209257143Y-113573810D01*
X209280952Y-113621429D01*
X209280952Y-113645238D01*
X209257143Y-113692857D01*
X209233333Y-113716667D01*
X209185714Y-113740476D01*
X209090476Y-113740476D01*
X209042857Y-113764286D01*
X209019048Y-113788095D01*
X208995238Y-113835714D01*
X208995238Y-113930952D01*
X209019048Y-113978571D01*
X209042857Y-114002381D01*
X209090476Y-114026190D01*
X209185714Y-114026190D01*
X209233333Y-114002381D01*
X209257143Y-113978571D01*
X209280952Y-113930952D01*
X209280952Y-113835714D01*
X209257143Y-113788095D01*
X209233333Y-113764286D01*
X209185714Y-113740476D01*
X210033334Y-133602381D02*
X210104763Y-133626190D01*
X210223810Y-133626190D01*
X210271429Y-133602381D01*
X210295239Y-133578571D01*
X210319048Y-133530952D01*
X210319048Y-133483333D01*
X210295239Y-133435714D01*
X210271429Y-133411905D01*
X210223810Y-133388095D01*
X210128572Y-133364286D01*
X210080953Y-133340476D01*
X210057144Y-133316667D01*
X210033334Y-133269048D01*
X210033334Y-133221429D01*
X210057144Y-133173810D01*
X210080953Y-133150000D01*
X210128572Y-133126190D01*
X210247620Y-133126190D01*
X210319048Y-133150000D01*
X210485715Y-133126190D02*
X210604762Y-133626190D01*
X210700000Y-133269048D01*
X210795238Y-133626190D01*
X210914286Y-133126190D01*
X211366667Y-133626190D02*
X211080953Y-133626190D01*
X211223810Y-133626190D02*
X211223810Y-133126190D01*
X211176191Y-133197619D01*
X211128572Y-133245238D01*
X211080953Y-133269048D01*
X182019048Y-129326190D02*
X182019048Y-129730952D01*
X182042857Y-129778571D01*
X182066667Y-129802381D01*
X182114286Y-129826190D01*
X182209524Y-129826190D01*
X182257143Y-129802381D01*
X182280952Y-129778571D01*
X182304762Y-129730952D01*
X182304762Y-129326190D01*
X182804762Y-129826190D02*
X182519048Y-129826190D01*
X182661905Y-129826190D02*
X182661905Y-129326190D01*
X182614286Y-129397619D01*
X182566667Y-129445238D01*
X182519048Y-129469048D01*
D14*
X199136095Y-124452381D02*
X199136095Y-125261905D01*
X199183714Y-125357143D01*
X199231333Y-125404762D01*
X199326571Y-125452381D01*
X199517048Y-125452381D01*
X199612286Y-125404762D01*
X199659905Y-125357143D01*
X199707524Y-125261905D01*
X199707524Y-124452381D01*
X200136095Y-124547619D02*
X200183714Y-124500000D01*
X200278952Y-124452381D01*
X200517048Y-124452381D01*
X200612286Y-124500000D01*
X200659905Y-124547619D01*
X200707524Y-124642857D01*
X200707524Y-124738095D01*
X200659905Y-124880952D01*
X200088476Y-125452381D01*
X200707524Y-125452381D01*
D11*
X186345239Y-113576190D02*
X186678572Y-114076190D01*
X186678572Y-113576190D02*
X186345239Y-114076190D01*
X187130952Y-114076190D02*
X186845238Y-114076190D01*
X186988095Y-114076190D02*
X186988095Y-113576190D01*
X186940476Y-113647619D01*
X186892857Y-113695238D01*
X186845238Y-113719048D01*
X199261906Y-132988095D02*
X199261906Y-133226190D01*
X199095239Y-132726190D02*
X199261906Y-132988095D01*
X199428572Y-132726190D01*
X199857143Y-133226190D02*
X199571429Y-133226190D01*
X199714286Y-133226190D02*
X199714286Y-132726190D01*
X199666667Y-132797619D01*
X199619048Y-132845238D01*
X199571429Y-132869048D01*
X213830953Y-121226190D02*
X213830953Y-120726190D01*
X213950000Y-120726190D01*
X214021429Y-120750000D01*
X214069048Y-120797619D01*
X214092857Y-120845238D01*
X214116667Y-120940476D01*
X214116667Y-121011905D01*
X214092857Y-121107143D01*
X214069048Y-121154762D01*
X214021429Y-121202381D01*
X213950000Y-121226190D01*
X213830953Y-121226190D01*
X214402381Y-120940476D02*
X214354762Y-120916667D01*
X214330953Y-120892857D01*
X214307143Y-120845238D01*
X214307143Y-120821429D01*
X214330953Y-120773810D01*
X214354762Y-120750000D01*
X214402381Y-120726190D01*
X214497619Y-120726190D01*
X214545238Y-120750000D01*
X214569048Y-120773810D01*
X214592857Y-120821429D01*
X214592857Y-120845238D01*
X214569048Y-120892857D01*
X214545238Y-120916667D01*
X214497619Y-120940476D01*
X214402381Y-120940476D01*
X214354762Y-120964286D01*
X214330953Y-120988095D01*
X214307143Y-121035714D01*
X214307143Y-121130952D01*
X214330953Y-121178571D01*
X214354762Y-121202381D01*
X214402381Y-121226190D01*
X214497619Y-121226190D01*
X214545238Y-121202381D01*
X214569048Y-121178571D01*
X214592857Y-121130952D01*
X214592857Y-121035714D01*
X214569048Y-120988095D01*
X214545238Y-120964286D01*
X214497619Y-120940476D01*
X174897267Y-131277490D02*
X174730600Y-131039395D01*
X174611553Y-131277490D02*
X174611553Y-130777490D01*
X174802029Y-130777490D01*
X174849648Y-130801300D01*
X174873457Y-130825110D01*
X174897267Y-130872729D01*
X174897267Y-130944157D01*
X174873457Y-130991776D01*
X174849648Y-131015586D01*
X174802029Y-131039395D01*
X174611553Y-131039395D01*
X175063934Y-130777490D02*
X175373457Y-130777490D01*
X175206791Y-130967967D01*
X175278219Y-130967967D01*
X175325838Y-130991776D01*
X175349648Y-131015586D01*
X175373457Y-131063205D01*
X175373457Y-131182252D01*
X175349648Y-131229871D01*
X175325838Y-131253681D01*
X175278219Y-131277490D01*
X175135362Y-131277490D01*
X175087743Y-131253681D01*
X175063934Y-131229871D01*
X176516667Y-119976190D02*
X176350000Y-119738095D01*
X176230953Y-119976190D02*
X176230953Y-119476190D01*
X176421429Y-119476190D01*
X176469048Y-119500000D01*
X176492857Y-119523810D01*
X176516667Y-119571429D01*
X176516667Y-119642857D01*
X176492857Y-119690476D01*
X176469048Y-119714286D01*
X176421429Y-119738095D01*
X176230953Y-119738095D01*
X176945238Y-119642857D02*
X176945238Y-119976190D01*
X176826191Y-119452381D02*
X176707143Y-119809524D01*
X177016667Y-119809524D01*
X178366790Y-120194638D02*
X178366790Y-120432733D01*
X177866790Y-120432733D01*
X177866790Y-119789876D02*
X177866790Y-120027971D01*
X178104886Y-120051781D01*
X178081076Y-120027971D01*
X178057267Y-119980352D01*
X178057267Y-119861305D01*
X178081076Y-119813686D01*
X178104886Y-119789876D01*
X178152505Y-119766067D01*
X178271552Y-119766067D01*
X178319171Y-119789876D01*
X178342981Y-119813686D01*
X178366790Y-119861305D01*
X178366790Y-119980352D01*
X178342981Y-120027971D01*
X178319171Y-120051781D01*
X166454972Y-125298971D02*
X166431162Y-125322781D01*
X166359734Y-125346590D01*
X166312115Y-125346590D01*
X166240686Y-125322781D01*
X166193067Y-125275162D01*
X166169258Y-125227543D01*
X166145448Y-125132305D01*
X166145448Y-125060876D01*
X166169258Y-124965638D01*
X166193067Y-124918019D01*
X166240686Y-124870400D01*
X166312115Y-124846590D01*
X166359734Y-124846590D01*
X166431162Y-124870400D01*
X166454972Y-124894210D01*
X166645448Y-124894210D02*
X166669258Y-124870400D01*
X166716877Y-124846590D01*
X166835924Y-124846590D01*
X166883543Y-124870400D01*
X166907353Y-124894210D01*
X166931162Y-124941829D01*
X166931162Y-124989448D01*
X166907353Y-125060876D01*
X166621639Y-125346590D01*
X166931162Y-125346590D01*
X167216876Y-125060876D02*
X167169257Y-125037067D01*
X167145448Y-125013257D01*
X167121638Y-124965638D01*
X167121638Y-124941829D01*
X167145448Y-124894210D01*
X167169257Y-124870400D01*
X167216876Y-124846590D01*
X167312114Y-124846590D01*
X167359733Y-124870400D01*
X167383543Y-124894210D01*
X167407352Y-124941829D01*
X167407352Y-124965638D01*
X167383543Y-125013257D01*
X167359733Y-125037067D01*
X167312114Y-125060876D01*
X167216876Y-125060876D01*
X167169257Y-125084686D01*
X167145448Y-125108495D01*
X167121638Y-125156114D01*
X167121638Y-125251352D01*
X167145448Y-125298971D01*
X167169257Y-125322781D01*
X167216876Y-125346590D01*
X167312114Y-125346590D01*
X167359733Y-125322781D01*
X167383543Y-125298971D01*
X167407352Y-125251352D01*
X167407352Y-125156114D01*
X167383543Y-125108495D01*
X167359733Y-125084686D01*
X167312114Y-125060876D01*
D14*
D17*
X164310786Y-113329599D02*
X163730215Y-113329599D01*
X164020501Y-113329599D02*
X164020501Y-112313599D01*
X163923739Y-112458742D01*
X163826977Y-112555504D01*
X163730215Y-112603885D01*
M02*
